SplineFontDB: 3.2
FontName: VirusIsUp
FullName: VirusIsUp
FamilyName: VirusIsUp
Weight: Regular
Copyright: No Copyright (cC) 2020, Met Sender / Mehmet PINARCI
UComments: "Times like these be good stay clean and health. March 22 2020"
Version: 001.000
ItalicAngle: 0
UnderlinePosition: -102.4
UnderlineWidth: 51.2
Ascent: 819
Descent: 205
InvalidEm: 0
LayerCount: 2
Layer: 0 0 "Back" 1
Layer: 1 0 "Fore" 0
XUID: [1021 66 1585159542 1310]
StyleMap: 0x0000
FSType: 0
OS2Version: 0
OS2_WeightWidthSlopeOnly: 0
OS2_UseTypoMetrics: 1
CreationTime: 1584805717
ModificationTime: 1584839375
PfmFamily: 17
TTFWeight: 400
TTFWidth: 5
LineGap: 94
VLineGap: 0
OS2TypoAscent: 0
OS2TypoAOffset: 1
OS2TypoDescent: 0
OS2TypoDOffset: 1
OS2TypoLinegap: 92
OS2WinAscent: 0
OS2WinAOffset: 1
OS2WinDescent: 0
OS2WinDOffset: 1
HheadAscent: 0
HheadAOffset: 1
HheadDescent: 0
HheadDOffset: 1
OS2Vendor: 'PfEd'
MarkAttachClasses: 1
DEI: 91125
LangName: 1033
Encoding: ISO8859-1
UnicodeInterp: none
NameList: AGL For New Fonts
DisplaySize: -48
AntiAlias: 1
FitToEm: 0
WinInfo: 0 38 7
BeginPrivate: 0
EndPrivate
TeXData: 1 0 0 349176 174064 116382 810549 1048576 116391 783286 444596 497025 792723 393216 433062 380633 303038 157286 324010 404750 52429 2506097 1059062 262144
BeginChars: 256 85

StartChar: A
Encoding: 65 65 0
Width: 849
Flags: W
HStem: -83 46<273.012 306.795> -63 40<68.1933 90.6712> 165 46<368.011 400.552> 259 61<-23.3848 11.6712> 439 60<23.9991 59.6712> 475 39<780.42 811.9> 621 59<686.514 724.301> 700 49<31.6875 71.9884> 781 32<125.05 153.992>
VStem: -37 45<6.25659 49.9869> 68 33<-62.3594 -31.0087> 252 55<-82.5 -38.561> 345 45<434.099 479.988> 346 55<165.511 209.439> 446 45<-46.7322 -3.01236> 466 53<791.01 831.621> 676 49<642 679.883> 693 54<-74.3477 -31.561> 778 34<489.009 513.526>
LayerCount: 2
Fore
SplineSet
330 302 m 1x33f420
 368 220 l 1
 368 220 383 218 391 211 c 0
 397 205 403 197 401 189 c 0
 399 181 391 167 376 165 c 0
 366 164 352 166 346 177 c 24
 340 188 355 198 351 210 c 0
 341 243 309 289 309 289 c 1
 330 302 l 1x33f420
108 305 m 1
 25 286 l 1
 25 286 20 270 12 264 c 0
 5 259 -3 255 -10 259 c 0
 -17 263 -27 275 -25 291 c 0
 -23 302 -18 316 -7 320 c 24
 4 324 9 305 21 306 c 0
 53 309 102 331 102 331 c 1
 108 305 l 1
435 555 m 1
 385 480 l 1
 385 480 392 464 390 453 c 0
 388 445 383 436 376 434 c 0
 369 432 353 433 345 447 c 0x33f820
 339 456 335 470 341 481 c 24
 347 492 362 482 370 491 c 0
 392 517 414 569 414 569 c 1
 435 555 l 1
552 61 m 1
 491 -3 l 1
 491 -3 495 -20 491 -30 c 0
 488 -38 481 -46 474 -47 c 0
 467 -48 452 -43 446 -28 c 0x33f220
 442 -18 440 -3 448 7 c 24
 456 17 468 3 478 11 c 0
 504 32 534 79 534 79 c 1
 552 61 l 1
756 390 m 1
 837 366 l 1
 837 366 849 379 859 380 c 0
 867 381 876 380 880 373 c 0
 884 366 889 350 880 337 c 0
 874 328 864 319 852 321 c 24
 840 323 844 342 833 347 c 0
 803 361 751 364 751 364 c 1
 756 390 l 1
602 597 m 1
 676 642 l 1
 676 642 676 660 682 669 c 0
 687 676 695 681 702 680 c 0
 709 679 723 670 725 654 c 0x33f0a0
 727 643 726 628 716 621 c 24
 706 614 697 630 686 625 c 0
 656 612 615 575 615 575 c 1
 602 597 l 1
677 61 m 1
 714 -22 l 1
 714 -22 730 -23 738 -30 c 0
 744 -36 749 -45 747 -53 c 0
 745 -61 747 -84 722 -76 c 0
 712 -73 699 -75 693 -64 c 24x33f060
 687 -53 702 -43 698 -31 c 0
 688 2 655 48 655 48 c 1
 677 61 l 1
69 113 m 1
 8 50 l 1
 8 50 12 32 8 22 c 0
 5 14 -2 7 -9 6 c 0
 -16 5 -31 10 -37 25 c 0
 -41 35 -43 49 -35 59 c 24
 -27 69 -15 56 -5 64 c 0
 21 85 51 132 51 132 c 1
 69 113 l 1
156 486 m 1
 73 467 l 1
 73 467 68 449 60 443 c 0
 53 438 45 435 38 439 c 0
 31 443 21 455 23 471 c 0
 24 482 30 495 41 499 c 24x3bf020
 52 503 57 485 69 486 c 0
 101 489 149 512 149 512 c 1
 156 486 l 1
440 707 m 1
 475 791 l 1
 475 791 466 805 466 816 c 0
 466 825 470 835 477 838 c 0
 484 842 498 844 509 832 c 0
 516 824 523 811 519 799 c 24x33f120
 515 787 498 794 492 783 c 0
 475 753 463 698 463 698 c 1
 440 707 l 1
134 638 m 1
 72 701 l 1
 72 701 56 696 47 700 c 0
 40 703 32 709 31 717 c 0
 30 725 34 742 47 749 c 0
 56 754 70 757 79 749 c 24
 88 741 76 726 84 716 c 0
 104 689 149 659 149 659 c 1
 134 638 l 1
739 173 m 1
 821 149 l 1
 821 149 832 162 842 163 c 0
 850 164 860 163 864 156 c 0
 868 149 873 133 864 120 c 0
 858 111 848 102 836 104 c 24
 824 106 828 125 817 130 c 0
 787 144 734 147 734 147 c 1
 739 173 l 1
713 459 m 1
 772 489 l 1
 772 489 773 501 778 507 c 0
 782 512 787 515 793 514 c 0
 799 513 810 508 812 497 c 0
 813 490 812 480 804 475 c 24x37f020
 796 470 789 481 780 478 c 0
 756 469 724 444 724 444 c 1
 713 459 l 1
236 53 m 1
 273 -29 l 1
 273 -29 289 -30 297 -37 c 0
 303 -43 309 -52 307 -60 c 0
 305 -68 297 -81 282 -83 c 0xb3f020
 272 -84 258 -82 252 -71 c 24
 246 -60 261 -50 257 -38 c 0
 247 -5 215 41 215 41 c 1
 236 53 l 1
145 17 m 1
 101 -31 l 1
 101 -31 104 -43 101 -51 c 0
 99 -57 94 -63 89 -63 c 0
 84 -63 72 -60 68 -49 c 0
 65 -41 64 -30 70 -23 c 24x73f020
 76 -16 84 -26 91 -20 c 0
 110 -4 132 31 132 31 c 1
 145 17 l 1
281 406 m 24
 310 358 370 338 411 373 c 24
 455 412 452 478 421 529 c 24
 389 581 329 624 284 585 c 24
 235 541 246 464 281 406 c 24
117 549 m 1
 117 549 119 748 204 783 c 24
 320 833 420 802 520 720 c 24
 667 598 742 492 794 299 c 24
 821 199 773 120 703 48 c 24
 654 -3 584 -21 530 25 c 24
 451 93 499 206 427 284 c 24
 397 316 345 289 324 249 c 24
 282 174 352 77 285 29 c 24
 210 -25 115 -14 57 61 c 24
 -1 135 57 213 69 309 c 24
 80 404 117 549 117 549 c 1
199 739 m 1
 154 781 l 1
 154 781 143 778 136 781 c 0
 131 783 126 787 125 792 c 0
 124 797 126 808 136 813 c 0
 143 816 152 818 159 813 c 24
 166 808 158 799 163 792 c 0
 178 774 210 753 210 753 c 1
 199 739 l 1
EndSplineSet
Validated: 37
EndChar

StartChar: B
Encoding: 66 66 1
Width: 782
Flags: W
HStem: -51 36<339.011 368.557> 83 49<-43.8799 -12.282> 179 44<297.423 326.761> 199 43<419.24 446.577> 220 47<748.467 783.899> 369 18<702 785.338> 439 48<-57.8675 -25.282> 476 49<230.237 264.757> 745 39<260.051 296.989>
VStem: -58 33<439.145 460.99> -44 32<83.1457 104.991> 88 49<727.237 762.88> 260 43<758.377 783.714> 287 40<188.01 222.552> 320 49<-50.9451 -15.4673> 419 40<199.493 233.99> 583 16<-79.7944 -18.2424> 746 38<237.01 266.561>
LayerCount: 2
Fore
SplineSet
352 695 m 1xc499c0
 297 746 l 1
 297 746 282 742 274 745 c 0
 267 747 261 752 260 759 c 0
 259 766 262 778 274 784 c 0
 282 788 295 791 303 784 c 24
 311 777 301 766 308 758 c 0
 326 736 366 711 366 711 c 1
 352 695 l 1xc499c0
600 0 m 1
 599 -74 l 1
 599 -74 612 -82 615 -90 c 0
 618 -96 618 -104 614 -109 c 0
 610 -114 599 -121 586 -116 c 0
 577 -113 568 -106 567 -96 c 24
 566 -86 582 -85 583 -75 c 0
 587 -47 578 -1 578 -1 c 1
 600 0 l 1
145 651 m 1
 116 719 l 1
 116 719 101 721 95 727 c 0
 90 732 86 740 88 746 c 0
 90 752 98 762 111 763 c 0
 120 763 132 761 137 752 c 24
 142 743 128 736 131 726 c 0
 139 699 165 660 165 660 c 1
 145 651 l 1
145 651 m 1
 116 719 l 1
 116 719 101 721 95 727 c 0
 90 732 86 740 88 746 c 0
 90 752 98 762 111 763 c 0
 120 763 132 761 137 752 c 24
 142 743 128 736 131 726 c 0
 139 699 165 660 165 660 c 1
 145 651 l 1
145 651 m 1
 116 719 l 1
 116 719 101 721 95 727 c 0
 90 732 86 740 88 746 c 0
 90 752 98 762 111 763 c 0
 120 763 132 761 137 752 c 24
 142 743 128 736 131 726 c 0
 139 699 165 660 165 660 c 1
 145 651 l 1
75 253 m 1
 2 269 l 1
 2 269 -8 258 -17 256 c 0
 -24 255 -32 256 -36 261 c 0
 -40 266 -45 279 -38 290 c 0
 -33 298 -24 306 -13 305 c 24
 -2 304 -5 289 5 285 c 0
 32 275 79 274 79 274 c 1
 75 253 l 1
75 253 m 1
 2 269 l 1
 2 269 -8 258 -17 256 c 0
 -24 255 -32 256 -36 261 c 0
 -40 266 -45 279 -38 290 c 0
 -33 298 -24 306 -13 305 c 24
 -2 304 -5 289 5 285 c 0
 32 275 79 274 79 274 c 1
 75 253 l 1
75 253 m 1
 2 269 l 1
 2 269 -8 258 -17 256 c 0
 -24 255 -32 256 -36 261 c 0
 -40 266 -45 279 -38 290 c 0
 -33 298 -24 306 -13 305 c 24
 -2 304 -5 289 5 285 c 0
 32 275 79 274 79 274 c 1
 75 253 l 1
702 387 m 1
 777 386 l 1
 777 386 785 398 793 401 c 0
 800 404 808 404 813 400 c 0
 818 396 825 384 820 372 c 0
 817 363 810 354 799 353 c 24
 788 352 788 367 777 369 c 0
 748 373 702 366 702 366 c 1
 702 387 l 1
702 387 m 1
 777 386 l 1
 777 386 785 398 793 401 c 0
 800 404 808 404 813 400 c 0
 818 396 825 384 820 372 c 0
 817 363 810 354 799 353 c 24
 788 352 788 367 777 369 c 0
 748 373 702 366 702 366 c 1
 702 387 l 1
74 121 m 1
 0 105 l 1
 0 105 -5 92 -12 87 c 0
 -18 83 -25 80 -31 83 c 0
 -37 86 -46 96 -44 109 c 0xc4b1c0
 -43 118 -39 129 -29 132 c 24
 -19 135 -15 120 -4 121 c 0
 25 123 68 142 68 142 c 1
 74 121 l 1
702 387 m 1
 777 386 l 1
 777 386 785 398 793 401 c 0
 800 404 808 404 813 400 c 0
 818 396 825 384 820 372 c 0
 817 363 810 354 799 353 c 24
 788 352 788 367 777 369 c 0
 748 373 702 366 702 366 c 1
 702 387 l 1
391 632 m 1
 384 558 l 1
 384 558 396 549 399 541 c 0
 401 534 401 527 396 522 c 0
 391 517 379 511 367 517 c 0
 359 521 350 529 350 539 c 24
 350 549 366 549 368 559 c 0
 374 587 369 633 369 633 c 1xc493c0
 391 632 l 1
513 285 m 1
 459 234 l 1
 459 234 463 220 459 212 c 0
 456 206 451 199 444 199 c 0
 437 199 424 202 419 214 c 0
 415 222 413 234 420 242 c 24xd491c0
 427 250 438 239 447 245 c 0
 470 262 497 300 497 300 c 1
 513 285 l 1
664 560 m 1
 695 627 l 1
 695 627 688 639 688 648 c 0
 688 655 691 663 697 666 c 0
 703 669 716 670 725 661 c 0
 732 655 738 644 734 634 c 24
 730 624 717 630 711 621 c 0
 696 597 684 552 684 552 c 1
 664 560 l 1
148 479 m 1
 220 500 l 1
 220 500 223 514 230 520 c 0
 235 524 243 528 249 525 c 0
 255 522 266 513 265 500 c 0
 264 491 260 480 250 476 c 24xc591c0
 240 472 235 487 225 485 c 0
 196 481 155 459 155 459 c 1
 148 479 l 1
513 100 m 24
 544 112 560 142 553 174 c 24
 541 226 520 261 472 284 c 24
 397 318 343 328 263 310 c 24
 218 300 165 259 188 220 c 24xcc91c0
 233 145 301 138 384 108 c 24
 431 91 466 82 513 100 c 24
477 402 m 24
 508 414 524 443 517 475 c 24
 505 527 483 562 435 585 c 24
 360 619 306 629 226 611 c 24
 181 601 129 560 152 521 c 24
 197 446 264 440 347 410 c 24
 394 393 430 384 477 402 c 24
205 87 m 24
 167 90 146 43 110 58 c 24
 69 75 55 110 49 153 c 24
 37 242 72 294 65 384 c 24
 59 469 5 513 17 597 c 24
 24 642 63 664 109 672 c 24
 284 703 394 749 563 695 c 24
 668 661 699 576 731 472 c 24
 748 413 718 369 674 325 c 24
 642 293 544 343 560 300 c 24
 587 225 689 250 727 180 c 24
 749 141 707 113 682 76 c 24
 654 34 644 -14 593 -18 c 24
 472 -29 405 9 288 41 c 24
 252 51 242 84 205 87 c 24
646 66 m 1
 719 47 l 1
 719 47 729 57 738 58 c 0
 745 59 753 57 757 52 c 0
 761 47 773 24 765 13 c 0
 760 6 742 8 732 10 c 0
 722 12 725 27 715 31 c 0
 688 42 642 45 642 45 c 1
 646 66 l 1
674 200 m 1
 740 237 l 1
 740 237 741 251 746 258 c 0
 750 264 756 268 763 267 c 0
 770 266 782 259 784 246 c 0
 785 237 784 226 775 220 c 24xcc91c0
 766 214 758 227 748 223 c 0xe491c0
 721 212 686 182 686 182 c 1
 674 200 l 1
306 59 m 1
 339 -8 l 1
 339 -8 354 -9 361 -15 c 0
 366 -20 371 -26 369 -32 c 0
 367 -38 360 -50 347 -51 c 0
 338 -52 325 -51 320 -42 c 24xc493c0
 315 -33 328 -25 325 -15 c 0
 316 12 287 48 287 48 c 1xc495c0
 306 59 l 1
391 632 m 1
 384 558 l 1
 384 558 396 549 399 541 c 0
 401 534 401 527 396 522 c 0
 391 517 379 511 367 517 c 0
 359 521 350 529 350 539 c 24
 350 549 366 549 368 559 c 0
 374 587 369 633 369 633 c 1
 391 632 l 1
60 477 m 1
 -13 461 l 1
 -13 461 -18 447 -25 442 c 0xc6d1c0
 -31 438 -38 436 -44 439 c 0xc6b1c0
 -50 442 -60 451 -58 464 c 0
 -57 473 -52 484 -42 487 c 24xc6d1c0
 -32 490 -28 476 -17 477 c 0
 12 479 55 498 55 498 c 1
 60 477 l 1
664 560 m 1
 695 627 l 1
 695 627 688 639 688 648 c 0
 688 655 691 663 697 666 c 0
 703 669 716 670 725 661 c 0
 732 655 738 644 734 634 c 24
 730 624 717 630 711 621 c 0
 696 597 684 552 684 552 c 1
 664 560 l 1
230 139 m 1
 286 188 l 1
 286 188 283 202 287 210 c 0xe495c0
 290 216 296 223 303 223 c 0xe499c0
 310 223 322 219 327 207 c 0
 330 198 331 187 324 179 c 24xe495c0
 317 171 306 183 297 177 c 0
 273 161 245 124 245 124 c 1
 230 139 l 1
EndSplineSet
Validated: 37
EndChar

StartChar: C
Encoding: 67 67 2
Width: 927
Flags: W
HStem: -175 46<773.013 809.511> -137 54<138.335 172.483> -70 49<942.005 974.81> 54 61<-28.756 9.6697> 125 59<930.561 973.051> 190 42<394.148 424.987> 229 34<318.422 351.9> 343 48<894.562 935.855> 608 59<924.561 967.051> 724 49<49.7324 93.9876>
VStem: -30 40<54.1941 81.9877> 138 50<-136.182 -93.0124> 298 61<848.376 884.396> 310 42<241 255.762> 394 62<190.33 230.734> 402 49<-194.697 -149.012> 507 58<799.011 824.459> 683 58<780.011 805.459> 750 60<-173.66 -130.561> 927 47<146.013 183.386 629.013 663.173>
LayerCount: 2
Fore
SplineSet
807 427 m 1x39f0f0
 889 383 l 1
 889 383 904 392 915 391 c 0
 924 390 933 386 936 378 c 0
 939 370 939 354 927 343 c 0
 918 335 906 329 894 334 c 24
 882 339 891 357 880 365 c 0
 851 386 796 403 796 403 c 1
 807 427 l 1x39f0f0
81 336 m 1
 -7 366 l 1
 -7 366 -21 354 -32 353 c 0
 -41 352 -51 355 -55 362 c 0
 -59 369 -62 385 -52 398 c 0
 -45 407 -33 416 -20 413 c 24
 -7 410 -13 391 -1 385 c 0
 31 369 88 362 88 362 c 1
 81 336 l 1
95 526 m 1
 7 556 l 1
 7 556 -6 545 -17 544 c 0
 -26 543 -36 546 -40 553 c 0
 -44 560 -48 576 -38 589 c 0
 -31 598 -19 606 -6 603 c 24
 7 600 1 582 13 576 c 0
 45 560 103 552 103 552 c 1
 95 526 l 1
839 101 m 1
 919 146 l 1
 919 146 920 164 927 173 c 0
 932 180 941 185 949 184 c 0
 957 183 971 174 974 158 c 0
 976 147 974 132 963 125 c 24
 952 118 942 134 930 129 c 0
 897 116 853 78 853 78 c 1
 839 101 l 1
508 -79 m 1
 448 -149 l 1
 448 -149 454 -166 451 -177 c 0
 448 -185 442 -194 434 -195 c 0
 426 -196 410 -194 402 -180 c 0
 396 -170 392 -156 400 -145 c 24
 408 -134 422 -146 432 -137 c 0x79f1f0
 458 -113 487 -62 487 -62 c 1
 508 -79 l 1
162 662 m 1
 94 725 l 1
 94 725 77 720 67 724 c 0
 59 727 50 733 49 741 c 0
 48 749 52 766 67 773 c 0
 77 778 91 781 101 773 c 24
 111 765 100 750 108 740 c 0
 131 712 179 682 179 682 c 1
 162 662 l 1
451 87 m 1
 425 177 l 1
 425 177 407 181 400 190 c 0
 395 197 391 206 394 214 c 0
 397 222 410 233 426 232 c 0
 437 231 451 226 456 214 c 24x3df2f0
 461 202 442 196 444 183 c 0
 449 148 476 96 476 96 c 1
 451 87 l 1
478 715 m 1
 517 799 l 1
 517 799 507 814 507 825 c 0
 507 834 511 843 518 847 c 0
 525 851 542 852 554 840 c 0
 562 832 570 819 565 807 c 24
 560 795 542 802 535 791 c 0
 516 761 503 705 503 705 c 1
 478 715 l 1
833 584 m 1
 913 629 l 1
 913 629 914 647 921 656 c 0
 926 663 934 668 942 667 c 0
 950 666 965 657 968 641 c 0
 970 630 968 615 957 608 c 24
 946 601 936 617 924 612 c 0
 891 599 847 561 847 561 c 1
 833 584 l 1
654 695 m 1
 693 780 l 1
 693 780 683 795 683 806 c 0
 683 815 687 824 694 828 c 0
 701 832 718 833 730 821 c 0
 738 813 746 800 741 788 c 24
 736 776 719 783 712 772 c 0
 693 742 679 685 679 685 c 1
 654 695 l 1
71 154 m 24
 25 255 57 328 73 438 c 24
 89 546 70 636 153 707 c 24
 246 787 338 779 460 770 c 24
 598 760 682 735 796 657 c 24
 854 617 870 563 867 492 c 24
 864 427 841 374 781 350 c 24
 706 320 650 343 577 377 c 24
 498 414 495 501 411 524 c 24
 360 537 314 501 298 451 c 24x39f8f0
 265 351 229 258 300 180 c 24
 382 90 483 114 605 111 c 24
 680 109 716 182 790 166 c 24
 851 153 884 108 898 47 c 24
 910 -3 898 -67 847 -76 c 24
 637 -114 505 -119 300 -59 c 24
 183 -24 121 43 71 154 c 24
273 395 m 1
 332 374 l 1
 332 374 341 385 348 386 c 0
 354 387 361 386 364 380 c 0
 367 374 370 360 364 348 c 0
 360 340 352 332 343 334 c 24
 334 336 337 352 329 356 c 0
 307 368 270 372 270 372 c 1
 273 395 l 1
247 215 m 1
 310 241 l 1
 310 241 311 251 316 256 c 0
 320 260 327 264 333 263 c 0
 339 262 350 257 352 248 c 0
 353 242 352 233 344 229 c 24x3bf4f0
 336 225 327 234 318 231 c 0
 292 223 258 202 258 202 c 1
 247 215 l 1
732 -37 m 1
 773 -120 l 1
 773 -120 791 -122 799 -129 c 0
 806 -135 812 -143 810 -151 c 0
 808 -159 798 -173 782 -175 c 0xb9f0f0
 771 -176 757 -174 750 -163 c 24
 743 -152 759 -142 755 -130 c 0
 744 -96 709 -50 709 -50 c 1
 732 -37 l 1
255 -29 m 1
 188 -93 l 1
 188 -93 192 -110 188 -120 c 0
 184 -128 177 -136 169 -137 c 0
 161 -138 145 -133 138 -118 c 0
 133 -108 131 -93 140 -83 c 24x79f0f0
 149 -73 162 -87 173 -79 c 0
 202 -58 235 -10 235 -10 c 1
 255 -29 l 1
116 102 m 1
 25 82 l 1
 25 82 19 65 10 59 c 0
 3 54 -7 50 -14 54 c 0
 -21 58 -32 71 -30 87 c 0
 -28 98 -24 111 -11 115 c 24
 2 119 7 101 20 102 c 0
 56 105 109 128 109 128 c 1
 116 102 l 1
874 -29 m 1
 942 -35 l 1
 942 -35 949 -24 957 -21 c 0
 963 -19 971 -18 975 -23 c 0
 979 -28 984 -40 979 -52 c 0
 975 -61 969 -70 959 -70 c 24
 949 -70 950 -54 941 -52 c 0
 916 -46 873 -51 873 -51 c 1
 874 -29 l 1
333 739 m 1
 322 831 l 1
 322 831 306 838 301 848 c 0
 297 856 294 866 298 873 c 0
 303 880 316 890 332 886 c 0
 343 883 356 876 359 863 c 24
 362 850 342 847 342 834 c 0
 341 798 359 743 359 743 c 1x39f8f0
 333 739 l 1
EndSplineSet
Validated: 37
EndChar

StartChar: D
Encoding: 68 68 3
Width: 1013
Flags: W
HStem: -92 54<661.334 695.483> -48 46<517.013 553.511> -33 46<941.013 977.789> 293 59<443.561 485.104 622.855 661.669> 319 61<-20.368 18.669> 574 50<-19.4298 24.9869> 645 59<967.561 1010.05> 818 49<288.376 332.987>
VStem: -22 41<319.193 346.987> 20 49<0.570187 43.9876> 432 54<314 351.386> 494 60<-46.6597 -3.56105> 532 57<872.011 913.621> 621 41<298.193 325.988> 661 49<-91.4298 -48.0124> 740 248<232.52 423.757> 775 58<805.011 830.459> 918 60<-31.7656 11.439> 964 47<666.013 703.106>
LayerCount: 2
Fore
SplineSet
955 376 m 1x17e0
 1044 352 l 1
 1044 352 1057 365 1068 366 c 0
 1077 367 1087 366 1092 359 c 0
 1097 352 1102 336 1092 323 c 0
 1085 314 1074 305 1061 307 c 24
 1048 309 1052 328 1040 333 c 0
 1007 347 949 350 949 350 c 1
 955 376 l 1x17e0
876 621 m 1
 956 666 l 1
 956 666 957 684 964 693 c 0
 969 700 977 705 985 704 c 0
 993 703 1008 694 1011 678 c 0x07e020
 1013 667 1011 652 1000 645 c 24
 989 638 979 654 967 649 c 0
 934 636 890 598 890 598 c 1
 876 621 l 1
900 104 m 1
 941 21 l 1
 941 21 959 20 967 13 c 0
 974 7 980 -2 978 -10 c 0
 976 -18 966 -31 950 -33 c 0
 939 -34 925 -32 918 -21 c 24x27e040
 911 -10 927 0 923 12 c 0
 912 46 877 91 877 91 c 1
 900 104 l 1
777 16 m 1
 710 -48 l 1x47e2
 710 -48 714 -65 710 -75 c 0
 706 -83 699 -91 691 -92 c 0
 683 -93 668 -88 661 -73 c 0
 656 -63 654 -48 663 -38 c 24x87e2
 672 -28 685 -42 696 -34 c 0
 725 -13 758 35 758 35 c 1
 777 16 l 1
767 346 m 1
 676 326 l 1
 676 326 671 309 662 303 c 0
 655 298 644 294 637 298 c 0
 630 302 619 314 621 330 c 0x07e4
 623 341 628 355 641 359 c 24
 654 363 658 345 671 346 c 0
 707 349 760 372 760 372 c 1
 767 346 l 1
746 721 m 1
 785 805 l 1
 785 805 775 820 775 831 c 0
 775 840 779 849 786 853 c 0
 793 857 810 858 822 846 c 0
 830 838 838 825 833 813 c 24x07e080
 828 801 811 808 804 797 c 0
 785 767 771 711 771 711 c 1
 746 721 l 1
400 756 m 1
 333 819 l 1
 333 819 315 814 305 818 c 0
 297 821 289 828 288 836 c 0
 287 844 290 860 305 867 c 0
 315 872 330 875 340 867 c 24
 350 859 338 845 346 835 c 0
 369 807 418 776 418 776 c 1
 400 756 l 1
392 201 m 24
 478 149 553 164 650 190 c 24
 701 203 738 239 740 291 c 24
 743 380 723 443 660 506 c 24
 604 562 534 606 464 567 c 24
 386 523 403 439 386 352 c 24x17e1
 375 294 342 232 392 201 c 24
280 61 m 24
 252 50 242 22 212 25 c 24
 169 30 129 39 116 80 c 24
 85 172 119 232 112 328 c 24
 105 426 91 481 81 578 c 24
 73 656 34 704 62 778 c 24
 75 814 126 802 161 786 c 24
 193 771 172 712 208 709 c 24
 253 705 260 765 304 774 c 24
 424 800 496 817 617 797 c 24
 723 780 806 768 869 680 c 24
 964 547 983 442 988 279 c 24
 991 183 953 124 890 51 c 24
 850 6 804 -4 744 0 c 24
 596 10 521 69 374 88 c 24
 336 93 316 75 280 61 c 24
386 506 m 1
 475 481 l 1
 475 481 488 494 499 495 c 0
 508 496 518 495 523 488 c 0
 528 481 532 465 522 452 c 0
 515 443 505 434 492 436 c 24
 479 438 483 457 471 462 c 0
 438 476 380 479 380 479 c 1
 386 506 l 1
351 268 m 1
 432 314 l 1
 432 314 432 332 439 341 c 0
 444 348 453 353 461 352 c 0
 469 351 483 342 486 326 c 0
 488 315 487 300 476 293 c 24
 465 286 455 302 443 297 c 0
 410 284 366 246 366 246 c 1
 351 268 l 1
476 90 m 1
 517 7 l 1
 517 7 535 5 543 -2 c 0
 550 -8 556 -16 554 -24 c 0
 552 -32 542 -46 526 -48 c 0
 515 -49 501 -47 494 -36 c 24x47f0
 487 -25 503 -15 499 -3 c 0
 488 31 453 77 453 77 c 1
 476 90 l 1
136 109 m 1
 69 44 l 1
 69 44 73 27 69 17 c 0
 65 9 58 1 50 0 c 0
 42 -1 27 4 20 19 c 0
 15 29 13 44 22 54 c 24
 31 64 44 51 55 59 c 0
 84 80 117 127 117 127 c 1
 136 109 l 1
124 367 m 1
 33 347 l 1
 33 347 28 329 19 323 c 0
 12 318 1 315 -6 319 c 0
 -13 323 -24 335 -22 351 c 0
 -20 362 -15 376 -2 380 c 24x0fe0
 11 384 15 365 28 366 c 0
 64 369 117 393 117 393 c 1
 124 367 l 1
502 788 m 1
 541 872 l 1
 541 872 532 887 532 898 c 0
 532 907 536 916 543 920 c 0
 550 924 566 926 578 914 c 0
 586 906 594 893 589 881 c 24x07e8
 584 869 567 876 560 865 c 0
 541 835 527 778 527 778 c 1
 502 788 l 1
92 512 m 1
 25 575 l 1
 25 575 7 570 -3 574 c 0
 -11 577 -19 584 -20 592 c 0
 -21 600 -18 617 -3 624 c 0
 7 629 22 632 32 624 c 24
 42 616 30 601 38 591 c 0
 61 563 110 532 110 532 c 1
 92 512 l 1
EndSplineSet
Validated: 37
EndChar

StartChar: E
Encoding: 69 69 4
Width: 933
Flags: W
HStem: -19 29<660.009 684.82> -8 44<108.287 138.576> 314 37<874.012 905.795> 335 50<98.1274 133.717 505.42 535.789> 507 50<-11.7539 23.7166> 583 49<879.513 916.898> 708 40<37.1111 75.9891> 772 40<147.111 185.989>
VStem: 108 43<-7.28932 27.9898> 384 53<-69.8036 -40.2827> 497 39<355 370.761> 553 51<796.009 829.67> 566 50<267.009 299.67> 644 41<-18.9473 8.62718> 697 51<734.009 767.67> 853 53<314.205 350.533> 876 41<600.011 631.621>
LayerCount: 2
Fore
SplineSet
782 203 m 24x0fe6
 766 122 723 62 636 39 c 24
 471 -4 357 -7 198 52 c 24
 130 77 150 152 149 220 c 24
 149 251 179 260 196 286 c 24
 209 306 234 317 225 339 c 24
 184 444 118 486 75 591 c 24
 61 625 48 669 83 684 c 24
 219 744 311 784 459 759 c 24
 628 730 743 686 843 556 c 24
 895 488 860 362 771 353 c 24
 589 335 506 454 331 504 c 24
 309 510 278 514 275 494 c 24
 270 456 285 429 317 405 c 24
 357 376 405 407 441 375 c 24
 466 352 473 310 445 291 c 24
 404 262 365 289 315 287 c 24
 294 286 273 303 261 286 c 24
 245 263 236 220 265 215 c 24
 390 195 465 217 591 232 c 24
 628 236 644 270 681 264 c 24
 727 257 791 246 782 203 c 24x0fe6
538 199 m 1
 574 267 l 1
 574 267 565 279 566 288 c 0
 566 295 569 303 576 306 c 0
 583 309 597 310 607 300 c 0
 614 293 620 283 616 273 c 24x0fee
 612 263 597 269 591 260 c 0
 574 236 560 190 560 190 c 1
 538 199 l 1
798 563 m 1
 869 600 l 1
 869 600 870 615 876 622 c 0
 881 628 888 633 895 632 c 0
 902 631 915 623 917 610 c 0x0fe680
 919 601 918 589 908 583 c 24
 898 577 890 590 879 586 c 0
 850 575 811 544 811 544 c 1
 798 563 l 1
838 427 m 1
 874 359 l 1
 874 359 890 357 897 351 c 0
 903 346 908 340 906 333 c 0
 904 326 896 315 882 314 c 0
 872 313 859 315 853 324 c 24
 847 333 862 341 858 351 c 0x2fe7
 848 379 817 416 817 416 c 1
 838 427 l 1
408 50 m 1
 417 -26 l 1
 417 -26 431 -32 436 -40 c 0
 440 -46 441 -54 437 -60 c 0
 433 -66 421 -73 407 -70 c 0
 397 -68 386 -63 384 -52 c 24
 382 -41 399 -39 399 -28 c 0
 400 1 385 47 385 47 c 1
 408 50 l 1
117 546 m 1
 37 530 l 1
 37 530 32 515 24 510 c 0
 18 506 9 504 3 507 c 0
 -3 510 -14 520 -12 533 c 0
 -11 542 -5 554 6 557 c 24
 17 560 22 545 33 546 c 0
 64 548 111 567 111 567 c 1
 117 546 l 1
527 727 m 1
 562 796 l 1
 562 796 553 809 553 818 c 0
 553 825 556 833 563 836 c 0
 570 839 584 840 594 830 c 0
 601 823 608 813 604 803 c 24x0ff6
 600 793 584 799 578 790 c 0
 561 765 549 719 549 719 c 1
 527 727 l 1
136 657 m 1
 76 709 l 1
 76 709 61 705 52 708 c 0
 45 711 38 715 37 722 c 0
 36 729 39 742 52 748 c 0
 61 752 74 755 83 748 c 24
 92 741 81 730 88 722 c 0
 108 699 151 674 151 674 c 1
 136 657 l 1
709 118 m 1
 788 98 l 1
 788 98 799 108 809 109 c 0
 817 110 826 108 830 103 c 0
 834 97 838 85 830 74 c 0
 824 66 814 58 803 60 c 24
 792 62 795 78 784 82 c 0
 755 93 704 96 704 96 c 1
 709 118 l 1
441 328 m 1
 497 355 l 1
 497 355 498 366 503 371 c 0
 507 375 512 379 518 378 c 0
 524 377 534 372 536 362 c 0
 537 355 536 346 528 342 c 24
 520 338 514 348 505 345 c 0
 482 337 451 314 451 314 c 1x2fe6
 441 328 l 1
632 66 m 1
 660 15 l 1
 660 15 672 14 678 10 c 0
 682 6 686 1 685 -4 c 0
 684 -9 677 -18 666 -19 c 0
 658 -20 649 -18 644 -11 c 24
 639 -4 651 1 648 9 c 0
 640 30 616 58 616 58 c 1x8fee
 632 66 l 1
211 81 m 1
 152 28 l 1
 152 28 155 14 151 6 c 0
 148 -1 142 -8 135 -8 c 0
 128 -8 114 -4 108 8 c 0
 104 17 102 28 110 36 c 24x4fe6
 118 44 130 34 139 40 c 0
 164 57 193 96 193 96 c 1
 211 81 l 1
227 375 m 1
 147 358 l 1
 147 358 142 344 134 339 c 0
 128 335 119 332 113 335 c 0
 107 338 96 349 98 362 c 0
 99 371 105 382 116 385 c 24x1fe6
 127 388 132 373 143 374 c 0
 174 376 221 396 221 396 c 1
 227 375 l 1
672 665 m 1
 706 734 l 1
 706 734 697 746 697 755 c 0
 697 762 700 770 707 773 c 0
 714 776 728 778 738 768 c 0
 745 761 752 751 748 741 c 24
 744 731 728 737 722 728 c 0
 705 703 694 657 694 657 c 1
 672 665 l 1
246 721 m 1
 186 773 l 1
 186 773 171 769 162 772 c 0
 155 775 148 779 147 786 c 0
 146 793 149 806 162 812 c 0
 171 816 184 819 193 812 c 24
 202 805 191 793 198 785 c 0
 218 762 261 737 261 737 c 1
 246 721 l 1
EndSplineSet
Validated: 37
EndChar

StartChar: F
Encoding: 70 70 5
Width: 782
Flags: W
HStem: -57 42<379.01 406.813> 46 56<20.5215 51.718> 173 29<553.008 574.833> 452 57<34.6999 64.718> 593 54<721.422 754.654> 704 41<695.188 715.952>
VStem: 20 43<50.2885 72> 34 42<457.288 478> 78 38<301.185 341.988> 170 38<-78.9012 -37.5171> 293 15<766.914 832.027> 356 38<416.185 455.988> 361 46<-56.8983 -16.5142> 477 26<429.006 448.811> 539 36<173.053 200.627> 558 44<806.009 843.668> 686 30<727 742.807> 719 36<612.012 646.421>
LayerCount: 2
Fore
SplineSet
391 76 m 24xfce4c0
 333 4 267 18 184 18 c 24
 153 18 126 39 122 76 c 24
 111 181 152 239 149 344 c 24
 145 482 106 555 104 693 c 24
 103 722 117 748 141 751 c 24
 327 770 437 785 621 745 c 24
 659 737 655 683 662 638 c 24
 671 584 703 514 660 498 c 24
 520 447 431 515 286 500 c 24
 272 498 266 475 272 459 c 24
 284 423 292 387 324 382 c 24
 425 368 484 442 583 416 c 24
 619 407 633 342 610 306 c 24
 569 241 522 220 454 212 c 24
 392 204 363 283 301 269 c 24
 272 262 301 211 315 180 c 24
 337 133 423 115 391 76 c 24xfce4c0
241 37 m 1
 203 -35 l 1
 203 -35 209 -50 208 -60 c 0
 207 -68 203 -77 197 -79 c 0
 191 -81 178 -81 170 -69 c 0
 165 -61 160 -48 165 -37 c 24
 170 -26 183 -35 189 -26 c 0
 207 -1 223 49 223 49 c 1
 241 37 l 1
637 715 m 1
 686 727 l 1
 686 727 690 739 695 743 c 0
 699 746 704 748 708 745 c 0
 712 742 717 734 716 723 c 0
 715 715 712 706 705 704 c 24
 698 702 696 715 689 714 c 0
 670 713 640 697 640 697 c 1
 637 715 l 1
528 259 m 1
 553 207 l 1
 553 207 564 207 569 202 c 0
 573 198 576 193 575 188 c 0
 574 183 569 174 559 173 c 0
 552 172 543 174 539 181 c 24xfce6c0
 535 188 545 193 542 201 c 0
 535 222 513 251 513 251 c 1
 528 259 l 1
446 515 m 1
 394 456 l 1
 394 456 397 440 394 431 c 0
 391 424 386 417 380 416 c 0
 374 415 361 419 356 433 c 0xfcf4c0
 352 443 350 456 357 465 c 24
 364 474 375 462 383 469 c 0
 405 488 431 532 431 532 c 1
 446 515 l 1
146 497 m 1
 76 478 l 1
 76 478 72 463 65 457 c 0
 59 452 52 449 46 452 c 0
 40 455 32 467 34 482 c 0xfde4c0
 35 492 39 505 49 509 c 24
 59 513 62 495 72 496 c 0
 99 499 141 520 141 520 c 1
 146 497 l 1
463 388 m 1
 481 429 l 1
 481 429 477 437 477 442 c 0
 477 446 479 450 482 452 c 0
 485 454 493 455 498 449 c 0
 502 445 505 439 503 433 c 24
 501 427 493 430 490 425 c 0
 481 410 475 383 475 383 c 1
 463 388 l 1
115 696 m 1
 63 755 l 1xfee4c0
 63 755 50 750 42 754 c 0
 36 757 30 763 29 770 c 0
 28 778 31 792 42 799 c 0
 50 804 61 807 69 799 c 24
 77 791 68 778 74 769 c 0
 91 744 129 715 129 715 c 1
 115 696 l 1
578 306 m 1
 647 284 l 1
 647 284 657 296 665 297 c 0
 672 298 679 296 683 290 c 0
 687 284 690 269 683 257 c 0
 678 248 669 240 659 242 c 24
 649 244 652 261 643 266 c 0
 618 279 573 282 573 282 c 1
 578 306 l 1
651 570 m 1
 713 612 l 1
 713 612 714 629 719 637 c 0
 723 643 729 648 735 647 c 0
 741 646 753 638 755 623 c 0
 756 613 755 600 747 593 c 24
 739 586 730 600 721 596 c 0
 695 584 662 549 662 549 c 1
 651 570 l 1
347 70 m 1
 379 -7 l 1
 379 -7 393 -8 399 -15 c 0
 404 -20 408 -28 407 -35 c 0
 406 -42 399 -55 386 -57 c 0
 377 -58 366 -56 361 -46 c 24xfcecc0
 356 -36 368 -27 365 -16 c 0
 356 15 329 58 329 58 c 1
 347 70 l 1
168 401 m 1
 117 342 l 1
 117 342 119 325 116 316 c 0
 113 309 108 302 102 301 c 0
 96 300 83 304 78 318 c 0
 74 328 73 341 80 350 c 24
 87 359 97 348 105 355 c 0
 127 374 153 418 153 418 c 1
 168 401 l 1
133 90 m 1
 63 72 l 1
 63 72 59 56 52 50 c 0
 46 45 39 43 33 46 c 0
 27 49 18 61 20 76 c 0xfee4c0
 21 86 25 98 35 102 c 24
 45 106 49 89 59 90 c 0
 86 93 127 114 127 114 c 1
 133 90 l 1
535 728 m 1
 565 806 l 1
 565 806 558 819 558 829 c 0
 558 837 560 847 566 850 c 0
 572 853 585 855 594 844 c 0
 600 837 605 824 602 813 c 24xfce5c0
 599 802 585 808 580 798 c 0
 565 770 555 719 555 719 c 1
 535 728 l 1
296 741 m 1
 293 826 l 1
 293 826 281 834 277 843 c 0
 274 850 273 860 277 866 c 0
 281 872 291 881 303 876 c 0
 311 873 321 865 322 853 c 24
 323 841 309 840 308 828 c 0
 306 795 316 743 316 743 c 1
 296 741 l 1
EndSplineSet
Validated: 37
EndChar

StartChar: G
Encoding: 71 71 6
Width: 831
Flags: W
HStem: -109 48<374.241 402.577> -72 41<743.011 772.769> 149 40<479.011 508.666> 159 53<0.387543 33.7166> 215 52<807.468 842.899> 242 109<362.68 564.607> 408 52<275.468 310.898> 575 43<35.3177 71.9905> 695 49<168.287 188>
VStem: -0 34<159.146 182.99> 101 40<-14.774 23.9884> 162 50<706.282 743.85> 266 45<427 459.948> 374 41<-108.689 -70.0109> 459 50<149.101 187.487> 599 48<760.009 795.669> 724 49<-71.899 -32.5134> 735 47<652.009 687.669> 798 45<234 266.949>
LayerCount: 2
Fore
SplineSet
109 489 m 24x17ff20
 127 567 150 631 221 659 c 24
 364 714 462 721 610 682 c 24
 694 660 745 604 767 516 c 24
 783 451 750 382 689 365 c 24
 626 347 589 403 544 453 c 24
 513 487 544 547 503 567 c 24
 430 603 365 622 296 576 c 24
 231 534 231 463 226 383 c 24
 221 299 210 227 270 172 c 24
 344 104 417 111 515 116 c 24
 551 118 576 149 578 187 c 24
 580 219 549 233 520 242 c 24
 463 261 421 227 367 255 c 24
 343 268 334 315 359 327 c 24
 436 363 491 365 575 351 c 24
 636 341 676 321 716 271 c 24
 751 228 762 186 750 131 c 24
 736 64 719 0 656 -14 c 24
 509 -46 418 -15 274 30 c 24
 196 54 135 79 106 159 c 24
 63 279 80 364 109 489 c 24x17ff20
469 612 m 1
 456 532 l 1
 456 532 467 521 469 512 c 0
 471 504 470 495 465 490 c 0
 460 485 447 481 435 488 c 0
 427 493 418 503 419 514 c 24
 420 525 436 523 439 534 c 0
 448 564 447 615 447 615 c 1
 469 612 l 1
199 387 m 1
 266 427 l 1
 266 427 266 442 272 450 c 0
 276 456 283 461 290 460 c 0
 297 459 309 451 311 437 c 0
 313 427 312 414 303 408 c 24
 294 402 285 416 275 412 c 0
 248 400 211 367 211 367 c 1
 199 387 l 1
445 270 m 1
 479 197 l 1
 479 197 494 195 501 189 c 0
 506 184 511 177 509 170 c 0
 507 163 500 151 486 149 c 0x23ff20
 477 148 465 150 459 160 c 24
 453 170 467 177 464 188 c 0
 455 218 425 259 425 259 c 1
 445 270 l 1
471 -14 m 1
 415 -70 l 1
 415 -70 419 -85 415 -94 c 0
 412 -101 407 -108 400 -109 c 0
 393 -110 379 -105 374 -92 c 0
 370 -83 369 -70 376 -61 c 24x83ff20
 383 -52 394 -65 403 -58 c 0
 427 -40 455 3 455 3 c 1
 471 -14 l 1
121 201 m 1
 46 183 l 1
 46 183 41 169 34 163 c 0
 28 159 19 156 13 159 c 0
 7 162 -2 173 -0 187 c 0
 1 197 6 209 16 212 c 24x13ff20
 26 215 30 200 41 201 c 0
 70 204 115 224 115 224 c 1
 121 201 l 1
574 686 m 1
 607 760 l 1
 607 760 599 772 599 782 c 0
 599 790 602 799 608 802 c 0
 614 805 627 806 637 796 c 0
 644 789 651 778 647 767 c 24
 643 756 628 763 622 753 c 0
 606 726 595 677 595 677 c 1
 574 686 l 1
214 618 m 1
 188 695 l 1
 188 695 174 699 168 706 c 0
 163 712 160 719 162 726 c 0
 164 733 172 744 186 744 c 0
 196 744 208 741 212 730 c 24
 216 719 202 713 204 702 c 0
 210 671 235 627 235 627 c 1
 214 618 l 1
721 439 m 1
 795 417 l 1
 795 417 806 429 815 430 c 0
 822 431 830 429 834 423 c 0
 838 417 842 404 834 392 c 0
 829 384 820 375 809 377 c 24
 798 379 801 396 791 400 c 0
 764 412 716 415 716 415 c 1
 721 439 l 1
731 194 m 1
 798 234 l 1
 798 234 798 249 804 257 c 0
 808 263 815 268 822 267 c 0
 829 266 841 259 843 245 c 0
 845 235 844 221 835 215 c 24x0bff20
 826 209 817 223 807 219 c 0
 780 207 743 174 743 174 c 1
 731 194 l 1
709 50 m 1
 743 -24 l 1
 743 -24 758 -25 765 -31 c 0
 770 -36 775 -44 773 -51 c 0
 771 -58 765 -70 751 -72 c 0x43ffa0
 742 -73 730 -71 724 -61 c 24x83ffa0
 718 -51 731 -43 728 -32 c 0
 719 -2 690 38 690 38 c 1
 709 50 l 1
197 80 m 1
 142 24 l 1
 142 24 145 8 141 -1 c 0
 138 -8 133 -14 126 -15 c 0
 119 -16 106 -11 101 2 c 0
 97 11 95 23 102 32 c 24
 109 41 121 29 130 36 c 0
 154 54 181 96 181 96 c 1
 197 80 l 1
98 342 m 1
 25 370 l 1
 25 370 14 360 5 359 c 0
 -2 359 -11 361 -14 367 c 0
 -17 373 -21 388 -12 399 c 0
 -6 407 4 414 15 411 c 24
 26 408 20 392 30 387 c 0
 56 373 104 365 104 365 c 1
 98 342 l 1
710 577 m 1
 743 652 l 1
 743 652 735 664 735 674 c 0x03ff60
 735 682 738 691 744 694 c 0
 750 697 763 698 773 688 c 0x03ffa0
 780 681 786 670 782 659 c 24x03ff60
 778 648 764 655 758 645 c 0
 742 618 731 569 731 569 c 1
 710 577 l 1
129 520 m 1
 72 576 l 1
 72 576 59 572 50 575 c 0
 43 578 36 583 35 590 c 0
 34 597 38 612 50 618 c 0
 58 623 70 625 78 618 c 24
 86 611 77 598 84 589 c 0
 103 565 143 538 143 538 c 1
 129 520 l 1
EndSplineSet
Validated: 37
EndChar

StartChar: H
Encoding: 72 72 7
Width: 907
Flags: W
HStem: -81 46<705.013 740.543> -69 54<156.335 190.483> -14 27<363.009 385.827> 77 61<-21.368 17.669> 299 54<391.335 425.483> 341 61<-41.475 -3.3303> 412 60<892.376 927.205> 562 35<867.374 893.901> 677 49<-25.2676 18.9876>
VStem: -43 40<341.193 368.988> -23 41<77.1933 104.988> 156 49<-68.1995 -25.0131> 238 57<834.01 874.621> 349 37<-13.948 12.6726> 391 49<299.818 342.988> 492 317<335.664 741> 584 20<796.76 866.372> 681 60<-79.9366 -36.5603> 793 57<731.011 772.621> 865 29<575.008 596.596>
LayerCount: 2
Fore
SplineSet
371 82 m 24x339e50
 339 27 280 27 215 27 c 24
 167 27 112 33 104 80 c 24
 61 322 44 468 92 709 c 24
 105 775 181 766 246 782 c 24
 292 794 359 826 367 780 c 24
 401 589 333 478 334 283 c 24
 334 269 355 270 369 268 c 24
 403 264 449 234 457 268 c 24
 504 456 445 578 492 766 c 24
 502 805 553 811 590 797 c 24
 687 758 786 741 809 639 c 24x339f10
 854 434 796 307 741 104 c 24
 726 48 690 -16 635 0 c 24
 537 30 542 137 455 190 c 24
 408 219 347 241 313 197 c 24
 282 157 396 125 371 82 c 24x339e50
339 503 m 1
 395 489 l 1
 395 489 403 496 410 497 c 0
 415 498 421 497 424 493 c 0
 427 489 430 479 424 471 c 0
 420 465 413 461 405 462 c 24
 397 463 400 474 392 477 c 0
 372 485 336 487 336 487 c 1
 339 503 l 1
810 548 m 1
 860 575 l 1
 860 575 861 586 865 591 c 0
 868 595 873 598 878 597 c 0
 883 596 892 592 894 582 c 0
 895 575 895 566 888 562 c 24
 881 558 875 568 867 565 c 0
 846 557 819 535 819 535 c 1
 810 548 l 1
338 68 m 1
 363 19 l 1
 363 19 375 17 380 13 c 0
 384 10 387 5 386 0 c 0
 385 -5 379 -13 369 -14 c 0
 362 -15 353 -14 349 -7 c 24
 345 0 355 6 352 13 c 0
 345 33 323 60 323 60 c 1
 338 68 l 1
508 408 m 1
 441 343 l 1
 441 343 444 326 440 316 c 0
 436 308 430 300 422 299 c 0
 414 298 398 303 391 318 c 0
 386 328 384 343 393 353 c 24x3b9e10
 402 363 415 350 426 358 c 0
 455 379 488 426 488 426 c 1
 508 408 l 1
123 125 m 1
 32 105 l 1
 32 105 27 88 18 82 c 0
 11 77 0 73 -7 77 c 0
 -14 81 -25 93 -23 109 c 0x33be10
 -21 120 -16 134 -3 138 c 24x33de10
 10 142 14 124 27 125 c 0
 63 128 116 151 116 151 c 1
 123 125 l 1
209 749 m 1
 247 834 l 1
 247 834 238 848 238 859 c 0
 238 868 242 877 249 881 c 0
 256 885 272 887 284 875 c 0
 292 867 300 854 295 842 c 24
 290 830 273 837 266 826 c 0
 247 796 233 739 233 739 c 1
 209 749 l 1
586 767 m 1
 584 860 l 1
 584 860 568 869 563 879 c 0
 559 887 558 897 563 903 c 0
 568 910 582 918 598 913 c 0
 609 909 622 902 623 889 c 24
 624 876 605 874 604 861 c 0x339e90
 600 826 613 769 613 769 c 1
 586 767 l 1
731 159 m 1
 820 135 l 1
 820 135 833 148 844 149 c 0
 853 150 863 149 868 142 c 0
 873 135 877 119 867 106 c 0
 860 97 850 88 837 90 c 24
 824 92 828 111 816 116 c 0
 783 130 725 133 725 133 c 1
 731 159 l 1
781 444 m 1
 874 450 l 1
 874 450 882 466 892 471 c 0
 900 475 910 477 917 472 c 0
 924 467 933 453 928 437 c 0
 925 426 917 414 904 412 c 24
 891 410 889 429 876 430 c 0
 840 433 784 418 784 418 c 1
 781 444 l 1
664 57 m 1
 705 -26 l 1
 705 -26 723 -28 731 -35 c 0
 738 -41 743 -49 741 -57 c 0
 739 -65 730 -79 714 -81 c 0
 703 -82 688 -79 681 -68 c 24xb39e50
 674 -57 691 -48 687 -36 c 0
 676 -2 640 44 640 44 c 1
 664 57 l 1
272 39 m 1
 205 -25 l 1
 205 -25 209 -43 205 -53 c 0
 201 -61 195 -68 187 -69 c 0
 179 -70 163 -65 156 -50 c 0
 151 -40 149 -25 158 -15 c 24x739e10
 167 -5 180 -19 191 -11 c 0
 220 10 253 57 253 57 c 1
 272 39 l 1
102 389 m 1
 12 369 l 1
 12 369 6 352 -3 346 c 0
 -10 341 -20 337 -27 341 c 0
 -34 345 -45 357 -43 373 c 0
 -41 384 -37 398 -24 402 c 24x37de10
 -11 406 -6 388 7 389 c 0
 43 392 95 415 95 415 c 1
 102 389 l 1
764 647 m 1
 802 731 l 1
 802 731 793 746 793 757 c 0
 793 766 797 775 804 779 c 0
 811 783 827 785 839 773 c 0
 847 765 855 752 850 740 c 24x339e30
 845 728 828 734 821 723 c 0
 802 693 788 637 788 637 c 1
 764 647 l 1
87 614 m 1
 19 678 l 1
 19 678 2 673 -8 677 c 0
 -16 680 -25 686 -26 694 c 0
 -27 702 -23 719 -8 726 c 0
 2 731 17 734 27 726 c 24
 37 718 25 703 33 693 c 0
 56 665 104 635 104 635 c 1
 87 614 l 1
EndSplineSet
Validated: 37
EndChar

StartChar: I
Encoding: 73 73 8
Width: 669
Flags: W
HStem: -138 46<372.013 407.543> -108 54<28.3347 62.4829> 177 29<28.0498 57.9913> 264 59<484.561 526.104> 417 61<149.632 188.669> 524 32<597 614.76> 621 36<32.0491 58.7649> 692 35<627.374 655.901> 783 50<0.570187 44.9869>
VStem: 28 49<-107.2 -64.0131> 148 41<417.193 444.987> 162 36<-133.904 -111.235> 174 13<-104.052 -55.2871> 348 60<-136.937 -93.561> 370 38<824.007 848.763> 473 54<285 322.386> 521 58<825.011 866.621> 582 39<524.052 550.673> 625 31<704.008 726.839>
LayerCount: 2
Fore
SplineSet
290 -39 m 24x3fc060
 231 -49 179 -75 136 -33 c 24
 83 19 56 88 93 154 c 24
 124 209 230 118 253 176 c 24
 307 319 295 422 251 569 c 24
 236 622 153 582 120 627 c 24
 90 668 70 736 116 756 c 24
 233 808 316 784 443 772 c 24
 505 766 565 767 593 711 c 24
 620 657 587 607 544 565 c 24
 516 537 454 603 443 565 c 24
 401 420 415 327 431 176 c 24
 433 154 474 187 486 170 c 24
 518 126 569 77 531 37 c 24
 463 -35 387 -22 290 -39 c 24x3fc060
412 505 m 1
 471 491 l 1
 471 491 480 498 487 499 c 0
 493 500 500 499 503 495 c 0
 506 491 508 481 502 473 c 0
 498 467 490 462 482 463 c 24
 474 464 476 476 468 479 c 0
 446 487 409 489 409 489 c 1
 412 505 l 1
567 677 m 1
 620 704 l 1
 620 704 621 715 625 720 c 0
 629 724 635 728 640 727 c 0
 645 726 654 722 656 712 c 0
 657 705 656 696 649 692 c 24
 642 688 635 697 627 694 c 0
 605 686 577 664 577 664 c 1
 567 677 l 1
570 606 m 1
 597 556 l 1
 597 556 610 555 615 551 c 0
 619 548 622 543 621 538 c 0
 620 533 614 525 603 524 c 0
 595 523 586 524 582 531 c 24
 578 538 589 544 586 551 c 0
 578 571 555 598 555 598 c 1
 570 606 l 1
188 -41 m 1
 187 -99 l 1x3fc860
 187 -99 196 -105 199 -111 c 0
 201 -116 201 -122 198 -126 c 0
 195 -130 186 -137 176 -134 c 0
 169 -132 162 -127 162 -119 c 24x3fd060
 162 -111 173 -109 174 -101 c 0x3fc860
 177 -78 172 -43 172 -43 c 1
 188 -41 l 1
128 649 m 1
 68 637 l 1
 68 637 65 627 59 623 c 0
 54 620 48 619 43 621 c 0
 38 623 31 630 32 640 c 0
 33 647 37 655 45 657 c 24
 53 659 56 648 65 649 c 0
 88 651 123 665 123 665 c 1
 128 649 l 1
351 774 m 1
 377 824 l 1
 377 824 370 833 370 840 c 0
 370 845 373 851 378 853 c 0
 383 855 393 856 401 849 c 0
 406 844 411 836 408 829 c 24x3fc260
 405 822 394 827 389 820 c 0
 376 802 368 768 368 768 c 1
 351 774 l 1
102 139 m 1
 58 177 l 1
 58 177 46 175 39 177 c 0
 34 179 29 182 28 187 c 0
 27 192 29 202 39 206 c 0
 46 209 55 211 62 206 c 24
 69 201 61 192 66 186 c 0
 81 169 114 152 114 152 c 1
 102 139 l 1
492 49 m 1
 582 25 l 1
 582 25 595 38 606 39 c 0
 615 40 624 39 629 32 c 0
 634 25 639 8 629 -5 c 0
 622 -14 611 -23 598 -21 c 24
 585 -19 589 0 577 5 c 0
 544 19 486 23 486 23 c 1
 492 49 l 1
392 240 m 1
 473 285 l 1
 473 285 473 303 480 312 c 0
 485 319 494 324 502 323 c 0
 510 322 524 313 527 297 c 0x3fc160
 529 286 528 271 517 264 c 24
 506 257 496 273 484 268 c 0
 451 255 407 217 407 217 c 1
 392 240 l 1
331 0 m 1
 372 -83 l 1
 372 -83 390 -85 398 -92 c 0
 405 -98 410 -106 408 -114 c 0
 406 -122 397 -136 381 -138 c 0
 370 -139 355 -137 348 -126 c 24xbfc460
 341 -115 358 -105 354 -93 c 0
 343 -59 307 -13 307 -13 c 1
 331 0 l 1
144 0 m 1
 77 -64 l 1
 77 -64 81 -82 77 -92 c 0xbfc060
 73 -100 67 -107 59 -108 c 0
 51 -109 35 -104 28 -89 c 0
 23 -79 21 -64 30 -54 c 24x7fc060
 39 -44 52 -58 63 -50 c 0
 92 -29 125 18 125 18 c 1
 144 0 l 1
294 465 m 1
 203 445 l 1
 203 445 198 427 189 421 c 0
 182 416 171 413 164 417 c 0
 157 421 146 433 148 449 c 0x3fe060
 150 460 155 474 168 478 c 24
 181 482 185 464 198 465 c 0x3fd060
 234 468 287 491 287 491 c 1
 294 465 l 1
492 741 m 1
 531 825 l 1
 531 825 521 840 521 851 c 0
 521 860 525 869 532 873 c 0
 539 877 556 879 568 867 c 0
 576 859 584 846 579 834 c 24x3fc0e0
 574 822 557 829 550 818 c 0
 531 788 517 731 517 731 c 1
 492 741 l 1
113 721 m 1
 45 784 l 1
 45 784 27 779 17 783 c 0
 9 786 1 793 0 801 c 0
 -1 809 2 826 17 833 c 0
 27 838 42 841 52 833 c 24
 62 825 50 810 58 800 c 0
 81 772 130 741 130 741 c 1
 113 721 l 1
EndSplineSet
Validated: 37
EndChar

StartChar: J
Encoding: 74 74 9
Width: 780
Flags: W
HStem: -56 47<534 553.713> -5 46<145.239 170.624> 54 41<663.009 697.949> 71 30<90.1435 105.765> 169 51<-46.7738 -16.2812> 270 51<685.421 717.893> 351 21<196.097 209.993> 395 33<632.28 651.949> 417 42<401.062 434.991> 587 33<423.048 441.858> 598 25<714.006 730.834>
VStem: -47 43<172.242 192> 90 23<71.3433 95.9927> 145 37<-4.30786 32.9891> 196 30<351.188 371.952> 317 24<799.282 816.809> 423 26<589.146 602> 516 46<-55.9451 -18.5127> 551 45<845.009 879.669> 627 25<407 427.951> 677 41<288 310.665> 686 27<288.012 320.847 794.006 816.81> 703 28<598.052 622.673>
LayerCount: 2
Fore
SplineSet
122 122 m 24xce1f90
 63 159 47 216 37 291 c 24
 32 322 63 350 91 347 c 24
 224 337 291 268 425 260 c 24
 456 258 474 291 477 324 c 24
 488 454 508 539 460 658 c 24
 440 707 379 645 337 671 c 24
 310 688 284 739 312 752 c 24
 411 798 477 796 584 787 c 24
 641 783 682 771 717 721 c 24
 736 694 714 656 687 639 c 24
 656 620 605 683 597 646 c 24
 569 509 600 427 613 288 c 24
 618 239 668 209 644 168 c 24
 597 87 549 35 463 27 c 24
 327 15 241 48 122 122 c 24xce1f90
218 296 m 1
 210 343 l 1
 210 343 201 346 198 351 c 0
 196 355 194 359 196 363 c 0
 198 367 205 373 213 372 c 0
 219 371 224 369 226 362 c 24
 228 355 219 353 219 346 c 0
 220 327 231 300 231 300 c 1
 218 296 l 1
589 382 m 1
 627 407 l 1
 627 407 627 417 630 422 c 0
 633 426 636 429 640 428 c 0
 644 427 651 423 652 414 c 0
 653 408 652 399 647 395 c 24xcf1f90
 642 391 638 401 632 398 c 0
 616 391 595 369 595 369 c 1
 589 382 l 1
695 674 m 1
 714 628 l 1
 714 628 722 627 726 623 c 0
 729 620 732 615 731 611 c 0xce3f92
 730 607 726 599 718 598 c 0xce3f98
 713 597 706 599 703 605 c 24
 700 611 708 616 706 623 c 0xce3f92
 701 642 684 667 684 667 c 1
 695 674 l 1
144 131 m 1
 113 96 l 1
 113 96 115 86 113 80 c 0
 111 76 108 71 104 71 c 0
 100 71 93 74 90 82 c 0
 88 88 87 96 91 101 c 24xde1f90
 95 106 101 99 106 103 c 0
 120 115 135 141 135 141 c 1
 144 131 l 1
491 613 m 1
 449 602 l 1
 449 602 446 592 442 589 c 0
 439 586 434 585 431 587 c 0
 428 589 422 596 423 605 c 0
 424 611 426 618 432 620 c 24xce5f90
 438 622 440 612 446 613 c 0
 463 615 488 627 488 627 c 1
 491 613 l 1
672 748 m 1
 690 794 l 1
 690 794 686 802 686 808 c 0
 686 813 688 818 691 820 c 0
 694 822 703 823 708 817 c 0
 712 813 715 806 713 799 c 24xce1f94
 711 792 702 796 699 790 c 0
 690 773 684 742 684 742 c 1
 672 748 l 1
370 755 m 1
 338 790 l 1
 338 790 330 788 325 790 c 0
 321 792 317 795 317 799 c 0
 317 804 318 813 325 817 c 0
 330 820 336 822 341 817 c 24
 346 812 340 805 344 799 c 0
 355 784 378 766 378 766 c 1
 370 755 l 1
611 148 m 1
 663 94 l 1
 663 94 676 98 684 95 c 0
 690 92 697 87 698 80 c 0
 699 73 696 60 685 54 c 0
 677 50 666 47 658 54 c 24xee1f90
 650 61 659 72 653 81 c 0
 636 104 598 131 598 131 c 1
 611 148 l 1
614 250 m 1
 677 288 l 1
 677 288 677 304 682 311 c 0
 686 317 693 322 699 321 c 0
 705 320 716 312 718 298 c 0xce1f98
 719 288 718 276 710 270 c 24
 702 264 694 277 685 273 c 0
 659 262 625 230 625 230 c 1
 614 250 l 1
502 61 m 1
 534 -9 l 1
 534 -9 548 -11 554 -17 c 0
 559 -22 563 -29 562 -36 c 0
 561 -43 554 -55 541 -56 c 0
 532 -57 521 -56 516 -46 c 24xce1fd0
 511 -36 523 -29 520 -18 c 0
 511 11 484 50 484 50 c 1
 502 61 l 1
234 87 m 1
 183 33 l 1
 183 33 185 18 182 9 c 0
 179 2 174 -5 168 -5 c 0
 162 -5 150 -1 145 12 c 0
 141 21 139 33 146 41 c 24
 153 49 163 38 171 45 c 0
 193 63 219 103 219 103 c 1
 234 87 l 1
66 209 m 1
 -4 192 l 1
 -4 192 -9 177 -16 172 c 0
 -22 168 -28 166 -34 169 c 0
 -40 172 -49 182 -47 196 c 0
 -46 206 -42 217 -32 220 c 24
 -22 223 -18 208 -8 209 c 0
 19 212 60 231 60 231 c 1
 66 209 l 1
529 773 m 1
 559 845 l 1
 559 845 551 858 551 867 c 0
 551 874 554 882 560 885 c 0
 566 888 578 890 587 880 c 0
 593 873 599 862 596 852 c 24xce1fb0
 593 842 578 847 573 838 c 0
 558 812 548 765 548 765 c 1
 529 773 l 1
487 364 m 1
 435 418 l 1
 435 418 422 414 414 417 c 0
 408 420 402 425 401 432 c 0
 400 439 403 453 414 459 c 0
 422 463 433 466 441 459 c 24xce9f90
 449 452 440 440 446 431 c 0
 463 407 501 382 501 382 c 1
 487 364 l 1
EndSplineSet
Validated: 37
EndChar

StartChar: K
Encoding: 75 75 10
Width: 796
Flags: W
HStem: -74 44<340.011 369.666> -34 27<644 654.81> 33 27<97.1428 111.766> 200 30<69.0483 86.8579> 430 26<500 511.81> 515 58<-3.33804 29.7173> 685 57<734.467 769.492> 724 46<6.17317 42.9898>
VStem: -4 46<519.289 542> 41 40<313.236 354.988> 69 18<200.096 212.994> 88 239<472.551 703.381> 97 21<33.3955 54.9935> 274 48<795.01 833.623> 321 49<-73.8983 -31.5596> 445 23<689.236 704.81> 493 25<430.098 453.905> 614 25<775.006 794.811> 625 24<310 328.951> 634 25<-33.9488 -12.2798> 725 45<706 741.948>
LayerCount: 2
Fore
SplineSet
345 61 m 24x3e1188
 315 0 254 21 193 20 c 24
 168 20 141 28 135 57 c 24
 110 183 131 258 122 387 c 24
 113 520 61 596 88 726 c 24x3e1188
 98 776 155 765 200 758 c 24
 252 750 302 748 322 691 c 24x3e0588
 359 586 317 512 327 399 c 24
 328 390 342 396 347 403 c 24
 434 532 447 644 560 742 c 0
 606 782 666 697 706 650 c 0
 747 601 667 481 609 490 c 0
 394 525 374 340 374 340 c 0
 374 340 504 329 636 272 c 0
 710 240 723 104 665 42 c 24
 597 -31 580 -32 498 18 c 0
 399 78 419 240 311 270 c 24
 242 290 380 133 345 61 c 24x3e1188
476 492 m 1
 500 456 l 1
 500 456 508 457 512 454 c 0
 515 452 518 448 518 444 c 0
 518 440 515 432 508 430 c 0
 503 428 497 428 493 433 c 24
 489 438 496 444 493 450 c 0
 485 465 467 484 467 484 c 1
 476 492 l 1
591 288 m 1
 625 310 l 1
 625 310 625 319 628 323 c 0
 630 326 635 330 638 329 c 0
 641 328 648 324 649 316 c 0x3c01a8
 650 310 649 304 644 300 c 24
 639 296 635 304 630 302 c 0
 616 295 597 276 597 276 c 1
 591 288 l 1
626 34 m 1
 644 -7 l 1
 644 -7 651 -7 655 -11 c 0
 658 -14 660 -18 659 -22 c 0
 658 -26 655 -33 648 -34 c 0
 643 -35 637 -34 634 -28 c 24x7c0198
 631 -22 638 -18 636 -12 c 0
 631 5 616 28 616 28 c 1
 626 34 l 1
147 87 m 1
 118 55 l 1
 118 55 120 46 118 41 c 0
 116 37 114 33 110 33 c 0
 106 33 100 36 97 43 c 0x3c0988
 95 48 94 55 98 60 c 24
 102 65 107 58 112 62 c 0
 124 72 139 96 139 96 c 1
 147 87 l 1
132 223 m 1
 93 213 l 1
 93 213 91 205 87 202 c 0
 84 200 79 198 76 200 c 0
 73 202 68 207 69 215 c 0x3c2188
 70 221 73 228 78 230 c 24
 83 232 85 222 91 223 c 0
 106 224 129 236 129 236 c 1
 132 223 l 1
602 733 m 1
 619 775 l 1
 619 775 614 783 614 788 c 0x3c01c8
 614 792 616 797 619 799 c 0
 622 801 629 801 634 795 c 0x3c0198
 637 791 641 785 639 779 c 24x3c01c8
 637 773 630 776 627 771 c 0
 619 756 613 728 613 728 c 1
 602 733 l 1
493 650 m 1
 464 681 l 1
 464 681 457 679 453 681 c 0
 449 683 445 685 445 689 c 0
 445 693 447 701 453 705 c 0
 457 708 464 709 468 705 c 24
 472 701 466 694 470 689 c 0
 480 675 501 660 501 660 c 1
 493 650 l 1
663 104 m 1
 737 81 l 1
 737 81 748 94 757 95 c 0
 764 96 773 94 777 88 c 0
 781 82 784 66 776 53 c 0
 771 44 762 36 751 38 c 24
 740 40 744 57 734 62 c 0
 707 75 659 79 659 79 c 1x3c0198
 663 104 l 1
658 662 m 1
 725 706 l 1
 725 706 725 723 731 731 c 0
 735 738 742 743 749 742 c 0
 756 741 768 733 770 717 c 0
 772 706 770 692 761 685 c 24x3e0188
 752 678 744 694 734 689 c 0
 707 676 670 641 670 641 c 1
 658 662 l 1
306 57 m 1
 340 -22 l 1
 340 -22 355 -23 362 -30 c 0
 367 -35 372 -43 370 -51 c 0
 368 -59 362 -72 348 -74 c 0
 339 -75 327 -73 321 -62 c 24xbc0388
 315 -51 329 -43 326 -31 c 0
 317 1 287 45 287 45 c 1
 306 57 l 1
137 416 m 1
 82 355 l 1
 82 355 85 339 81 329 c 0
 78 321 73 314 66 313 c 0
 59 312 46 317 41 331 c 0x3c4188
 37 341 35 356 42 365 c 24x3c8188
 49 374 61 362 70 369 c 0
 94 389 121 434 121 434 c 1
 137 416 l 1
117 561 m 1
 42 542 l 1
 42 542 37 525 30 519 c 0
 24 514 16 511 10 515 c 0
 4 519 -6 530 -4 546 c 0x3c8188
 -3 557 2 569 12 573 c 24
 22 577 27 559 38 560 c 0
 67 563 111 585 111 585 c 1
 117 561 l 1
250 715 m 1
 282 795 l 1
 282 795 274 809 274 819 c 0
 274 827 277 837 283 840 c 0
 289 843 303 845 313 834 c 0
 320 826 326 815 322 803 c 24x3c0588
 318 791 304 798 298 787 c 0
 282 758 271 705 271 705 c 1
 250 715 l 1
99 664 m 1
 43 725 l 1
 43 725 29 720 20 724 c 0
 13 727 7 732 6 740 c 0
 5 748 8 763 20 770 c 0
 28 775 41 778 49 770 c 24x3d0188
 57 762 47 749 54 739 c 0
 73 713 113 684 113 684 c 1
 99 664 l 1
EndSplineSet
Validated: 37
EndChar

StartChar: L
Encoding: 76 76 11
Width: 833
Flags: W
HStem: -67 47<717 738.666> -37 32<521 534.808> 9 32<181.19 198.719> 37 217<404.617 737.24> 380 52<392.468 428.867> 413 36<71.0483 92.8118> 604 53<-5.61163 27.7173> 727 34<485.326 507.948> 804 29<107.05 131.993>
VStem: -6 34<604.146 628.989> 71 22<413.097 428.993> 99 42<190.226 228.988> 181 26<9.34714 34.9927> 264 42<-30.9019 8.52981> 383 46<399 431.948> 391 49<858.009 880.53> 479 29<739 760.951> 508 33<-36.948 -10.3274> 682 31<295.007 318.764> 697 51<-66.6608 -28.5134>
LayerCount: 2
Fore
SplineSet
198 176 m 24x13fe
 176 327 123 405 109 557 c 24
 101 642 76 724 144 773 c 24
 233 837 323 824 423 781 c 24
 469 761 450 697 429 651 c 24
 412 613 349 637 339 596 c 24
 310 467 331 388 341 256 c 24
 342 241 354 231 369 231 c 24
 489 230 556 266 675 254 c 24
 718 250 752 234 767 192 c 24
 787 135 810 49 752 37 c 24
 536 -8 405 38 187 72 c 24
 166 76 170 105 172 126 c 24
 175 148 201 154 198 176 c 24x13fe
319 586 m 1
 367 572 l 1
 367 572 374 580 380 581 c 0
 385 582 390 580 393 576 c 0
 396 572 398 563 393 555 c 0
 389 550 383 545 376 546 c 24
 369 547 371 558 365 561 c 0
 347 569 316 571 316 571 c 1
 319 586 l 1
436 713 m 1
 479 739 l 1
 479 739 479 750 483 755 c 0
 486 759 491 762 495 761 c 0
 499 760 507 756 508 746 c 0x03fc80
 509 739 508 731 502 727 c 24
 496 723 492 732 485 729 c 0
 467 721 443 699 443 699 c 1
 436 713 l 1
499 44 m 1
 521 -5 l 1
 521 -5 531 -6 535 -10 c 0
 539 -13 542 -18 541 -23 c 0
 540 -28 535 -36 526 -37 c 0
 520 -38 512 -37 508 -30 c 24x43fc40
 504 -23 514 -17 512 -10 c 0
 506 10 487 36 487 36 c 1
 499 44 l 1
243 72 m 1
 207 35 l 1
 207 35 209 25 207 19 c 0
 205 14 201 9 197 9 c 0
 193 9 185 11 181 20 c 0
 179 26 177 35 182 41 c 24x23fc
 187 47 193 38 199 43 c 0
 214 55 233 83 233 83 c 1
 243 72 l 1
149 441 m 1
 101 429 l 1
 101 429 98 420 93 416 c 0
 89 413 84 411 80 413 c 0x07fc
 76 415 70 422 71 432 c 0x0bfc
 72 439 75 447 82 449 c 24x07fc
 89 451 91 440 98 441 c 0
 117 443 145 456 145 456 c 1
 149 441 l 1
667 246 m 1
 688 295 l 1
 688 295 682 304 682 310 c 0
 682 315 684 321 688 323 c 0
 692 325 701 326 707 319 c 0
 711 314 715 307 713 300 c 24x03fc20
 711 293 702 296 698 290 c 0
 688 272 680 240 680 240 c 1
 667 246 l 1
168 768 m 1
 132 805 l 1
 132 805 123 802 117 804 c 0
 113 806 108 809 107 814 c 0
 106 819 109 829 117 833 c 0
 122 836 130 838 135 833 c 24
 140 828 135 820 139 814 c 0
 151 798 177 780 177 780 c 1
 168 768 l 1
742 174 m 1
 819 153 l 1
 819 153 830 164 839 165 c 0
 846 166 855 165 859 159 c 0
 863 153 867 139 859 127 c 0
 853 119 843 111 832 113 c 24
 821 115 825 131 815 135 c 0
 787 147 738 151 738 151 c 1
 742 174 l 1
315 359 m 1
 383 399 l 1
 383 399 383 414 389 422 c 0
 394 428 401 433 408 432 c 0
 415 431 427 423 429 409 c 0
 431 399 429 386 420 380 c 24x0bfe
 411 374 402 388 392 384 c 0
 364 372 327 340 327 340 c 1
 315 359 l 1
682 53 m 1xa3fc20
 717 -20 l 1
 717 -20 732 -21 739 -27 c 0
 745 -32 750 -40 748 -47 c 0
 746 -54 738 -65 724 -67 c 0
 714 -68 703 -67 697 -57 c 24xa3fc10
 691 -47 706 -39 702 -28 c 0
 692 1 662 41 662 41 c 1
 682 53 l 1xa3fc20
198 284 m 1
 141 229 l 1
 141 229 145 213 141 204 c 0
 138 197 132 191 125 190 c 0
 118 189 105 194 99 207 c 0
 95 216 93 228 100 237 c 24
 107 246 120 234 129 241 c 0
 153 259 181 300 181 300 c 1
 198 284 l 1
118 646 m 1
 41 629 l 1
 41 629 36 614 28 608 c 0
 22 604 14 601 8 604 c 0
 2 607 -8 618 -6 632 c 0
 -5 642 0 654 11 657 c 24
 22 660 25 645 36 646 c 0
 66 649 112 669 112 669 c 1
 118 646 l 1
366 785 m 1
 400 858 l 1
 400 858 391 871 391 881 c 0
 391 889 395 897 401 900 c 0
 407 903 421 904 431 894 c 0
 438 887 444 876 440 865 c 24x03fd
 436 854 421 861 415 851 c 0
 399 825 388 776 388 776 c 1
 366 785 l 1
346 76 m 1
 301 9 l 1
 301 9 308 -5 306 -14 c 0
 304 -21 300 -29 293 -31 c 0
 286 -33 272 -33 264 -21 c 0
 258 -13 254 -1 260 9 c 24x23fc
 266 19 280 11 287 19 c 0
 307 42 326 88 326 88 c 1
 346 76 l 1
EndSplineSet
Validated: 37
EndChar

StartChar: M
Encoding: 77 77 12
Width: 897
Flags: W
HStem: -44 42<274.01 302.903> -32 41<522.236 547.906> 151 56<-17.3886 13.718> 363 33<277.007 296.858>
VStem: -18 44<155.288 177> 22 39<446.158 486.988> 261 46<-43.1711 -3.51417 672.01 709.668> 264 33<363.053 394.58> 385 43<185 219.948> 521 27<-31.4987 -1.00872> 737 32<772.007 800.717> 837 30<582 608.949>
LayerCount: 2
Fore
SplineSet
349 94 m 24x30f0
 319 48 277 44 227 48 c 24
 166 53 101 47 81 114 c 24
 46 233 113 310 112 435 c 24
 111 549 50 614 76 723 c 24
 88 773 156 790 189 755 c 0
 303 635 331 447 397 447 c 0
 463 447 508 653 641 744 c 0
 698 784 772 717 788 642 c 24
 830 436 851 290 772 99 c 24
 733 3 633 36 541 41 c 24
 512 43 504 80 502 114 c 24
 495 225 570 306 517 399 c 24
 485 456 461 278 403 286 c 24
 328 295 312 490 258 431 c 24
 199 366 306 296 331 207 c 24
 342 165 373 130 349 94 c 24x30f0
799 257 m 1
 848 240 l 1
 848 240 855 249 861 250 c 0
 866 251 871 250 874 245 c 0
 877 240 879 229 874 219 c 0
 870 212 864 206 857 208 c 24
 850 210 853 222 846 226 c 0
 828 236 796 239 796 239 c 1
 799 257 l 1
793 549 m 1
 837 582 l 1
 837 582 837 595 841 601 c 0
 844 606 849 610 853 609 c 0
 857 608 866 602 867 590 c 0
 868 582 867 572 861 567 c 24
 855 562 850 572 843 569 c 0
 825 560 801 533 801 533 c 1
 793 549 l 1
254 461 m 1
 277 402 l 1
 277 402 287 401 292 396 c 0
 296 392 298 386 297 380 c 0
 296 374 291 364 282 363 c 0
 276 362 268 364 264 372 c 24x31f0
 260 380 269 386 267 395 c 0
 261 419 241 452 241 452 c 1
 254 461 l 1
585 45 m 1
 548 -1 l 1
 548 -1 550 -13 548 -20 c 0
 546 -26 543 -32 538 -32 c 0
 533 -32 525 -29 521 -18 c 0
 518 -11 517 -1 522 6 c 24
 527 13 534 4 540 9 c 0x70f0
 556 24 575 58 575 58 c 1
 585 45 l 1
564 557 m 1
 514 543 l 1
 514 543 511 530 506 526 c 0
 502 522 497 520 493 523 c 0
 489 526 482 534 483 546 c 0
 484 554 487 563 494 566 c 24
 501 569 504 556 511 557 c 0
 531 559 560 576 560 576 c 1
 564 557 l 1
721 712 m 1
 742 772 l 1
 742 772 737 782 737 790 c 0
 737 796 739 803 743 806 c 0
 747 809 757 809 763 801 c 0
 767 795 772 787 769 778 c 24
 766 769 757 774 753 766 c 0
 742 745 735 705 735 705 c 1
 721 712 l 1
602 667 m 1
 565 712 l 1
 565 712 555 708 549 711 c 0
 544 713 541 718 540 724 c 0
 539 730 541 741 549 746 c 0
 555 750 563 752 569 746 c 24
 575 740 567 730 572 723 c 0
 584 703 612 682 612 682 c 1
 602 667 l 1
728 82 m 1
 800 60 l 1
 800 60 810 72 819 73 c 0
 826 74 833 73 837 67 c 0
 841 61 845 45 837 33 c 0
 832 24 823 16 813 18 c 24
 803 20 806 37 796 42 c 0
 770 55 723 58 723 58 c 1
 728 82 l 1
320 143 m 1
 385 185 l 1
 385 185 385 201 390 209 c 0
 394 215 402 221 408 220 c 0
 414 219 426 211 428 196 c 0
 429 186 429 172 420 165 c 24
 411 158 403 173 393 169 c 0
 367 157 331 122 331 122 c 1
 320 143 l 1
241 82 m 1
 274 6 l 1
 274 6 288 5 295 -2 c 0
 300 -7 305 -16 303 -23 c 0
 301 -30 294 -42 281 -44 c 0xb0f0
 272 -45 260 -43 255 -33 c 24
 250 -23 263 -14 260 -3 c 0
 251 28 222 70 222 70 c 1
 241 82 l 1
115 546 m 1
 61 487 l 1
 61 487 65 470 61 461 c 0
 58 454 53 447 46 446 c 0
 39 445 27 450 22 464 c 0x34f0
 18 474 16 487 23 496 c 24
 30 505 42 493 50 500 c 0
 73 519 99 563 99 563 c 1
 115 546 l 1
99 195 m 1
 26 177 l 1
 26 177 21 161 14 155 c 0
 8 150 1 148 -5 151 c 0
 -11 154 -20 166 -18 181 c 0x38f0
 -17 191 -12 203 -2 207 c 24
 8 211 12 194 22 195 c 0
 50 198 93 219 93 219 c 1
 99 195 l 1
238 595 m 1
 269 672 l 1
 269 672 261 686 261 696 c 0
 261 704 264 713 270 716 c 0
 276 719 289 721 298 710 c 0
 304 703 311 691 307 680 c 24x32f0
 303 669 290 675 284 665 c 0
 269 637 258 585 258 585 c 1
 238 595 l 1
98 714 m 1
 44 772 l 1
 44 772 30 767 22 771 c 0
 15 774 9 780 8 787 c 0
 7 795 10 809 22 816 c 0x34f0
 30 821 42 824 50 816 c 24
 58 808 47 795 54 786 c 0
 72 761 112 732 112 732 c 1
 98 714 l 1
EndSplineSet
Validated: 37
EndChar

StartChar: N
Encoding: 78 78 13
Width: 848
Flags: W
HStem: -56 46<310.014 346.532> 45 47<45.0484 70.7649> 401 61<-51.3533 -12.3303> 419 46<526.283 555.904> 498 59<856.562 899.104> 677 49<-26.2676 17.9876>
VStem: -53 41<401.193 428.987> -32 50<136.013 179.987> 45 35<48.2402 66> 294 58<-52.5312 -11.561 750.01 790.621> 453 38<97.2827 120.992> 524 32<419.58 453.99> 770 37<792.009 824.716> 846 54<519 556.386>
LayerCount: 2
Fore
SplineSet
374 489 m 1xccfc
 406 543 l 1
 406 543 400 556 401 564 c 0
 402 570 405 577 410 578 c 0
 415 579 426 578 433 567 c 0
 438 560 442 548 438 540 c 24
 434 532 423 541 418 534 c 0
 403 516 390 477 390 477 c 1
 374 489 l 1xccfc
398 140 m 0
 391 54 312 39 244 40 c 24
 172 41 97 57 79 147 c 24
 32 385 44 540 97 777 c 24
 110 835 184 816 219 775 c 24
 365 604 487 270 535 267 c 0
 611 263 546 578 611 753 c 24
 630 805 685 808 725 781 c 24
 777 746 809 696 810 620 c 24
 812 391 792 257 731 42 c 24
 719 -2 669 0 639 26 c 0
 483 160 455 264 279 347 c 24
 185 392 408 269 398 140 c 0
760 262 m 1
 818 243 l 1
 818 243 826 253 833 254 c 0
 839 255 845 254 848 249 c 0
 851 244 854 232 848 221 c 0
 844 214 836 206 828 208 c 24
 820 210 823 224 815 228 c 0
 794 239 757 242 757 242 c 1
 760 262 l 1
624 94 m 1
 590 41 l 1
 590 41 595 28 594 20 c 0
 593 14 590 7 585 6 c 0
 580 5 569 8 562 19 c 0
 557 27 554 37 558 45 c 24
 562 53 573 44 579 51 c 0
 594 69 608 107 608 107 c 1
 624 94 l 1
536 174 m 1
 490 121 l 1
 490 121 494 110 491 103 c 0
 489 97 485 91 479 89 c 0
 473 87 460 88 454 97 c 0
 450 103 447 111 453 119 c 24
 459 127 469 124 478 128 c 0
 517 144 520 183 520 183 c 1
 536 174 l 1
599 504 m 1
 556 454 l 1
 556 454 559 440 556 432 c 0
 554 426 549 419 544 419 c 0
 539 419 528 422 524 434 c 0
 521 442 520 453 526 461 c 24
 532 469 540 459 547 465 c 0xdcfc
 565 481 587 518 587 518 c 1
 599 504 l 1
138 82 m 1
 80 66 l 1
 80 66 77 53 71 48 c 0
 66 44 60 42 55 45 c 0
 50 48 44 57 45 70 c 0
 46 79 49 89 57 92 c 24
 65 95 69 81 77 82 c 0
 100 84 134 102 134 102 c 1
 138 82 l 1
751 727 m 1
 776 792 l 1
 776 792 770 804 770 813 c 0
 770 820 772 827 777 830 c 0
 782 833 793 834 800 825 c 0
 805 819 810 809 807 799 c 24
 804 789 792 795 788 786 c 0
 776 763 767 719 767 719 c 1
 751 727 l 1
608 662 m 1
 565 711 l 1
 565 711 554 708 547 711 c 0
 542 713 537 718 536 724 c 0
 535 730 538 743 547 749 c 0
 554 753 563 755 570 749 c 24
 577 743 569 731 574 723 c 0
 588 701 620 678 620 678 c 1
 608 662 l 1
720 141 m 1
 810 117 l 1
 810 117 823 130 834 131 c 0
 843 132 852 131 857 124 c 0
 862 117 867 101 857 88 c 0
 850 79 839 70 826 72 c 24
 813 74 818 93 806 98 c 0
 773 112 715 115 715 115 c 1
 720 141 l 1
765 473 m 1
 846 519 l 1
 846 519 846 536 853 545 c 0
 858 552 867 558 875 557 c 0
 883 556 897 547 900 531 c 0
 902 520 901 505 890 498 c 24
 879 491 868 507 856 502 c 0
 823 489 779 451 779 451 c 1
 765 473 l 1
269 82 m 1
 310 -1 l 1
 310 -1 329 -3 337 -10 c 0
 344 -16 349 -24 347 -32 c 0
 345 -40 335 -54 319 -56 c 0
 308 -57 294 -55 287 -44 c 24
 280 -33 297 -23 293 -11 c 0
 282 23 246 69 246 69 c 1
 269 82 l 1
85 244 m 1
 18 180 l 1
 18 180 22 162 18 152 c 0
 14 144 7 136 -1 135 c 0
 -9 134 -25 140 -32 155 c 0xcdfc
 -37 165 -39 179 -30 189 c 24
 -21 199 -8 186 3 194 c 0
 32 215 65 262 65 262 c 1
 85 244 l 1
93 449 m 1
 3 429 l 1
 3 429 -3 411 -12 405 c 0
 -19 400 -29 397 -36 401 c 0
 -43 405 -55 417 -53 433 c 0
 -51 444 -46 458 -33 462 c 24xeefc
 -20 466 -16 447 -3 448 c 0
 33 451 86 474 86 474 c 1
 93 449 l 1
265 665 m 1
 304 750 l 1
 304 750 294 764 294 775 c 0
 294 784 298 794 305 798 c 0
 312 802 329 803 341 791 c 0
 349 783 357 770 352 758 c 24
 347 746 329 753 322 742 c 0
 303 712 290 655 290 655 c 1
 265 665 l 1
86 614 m 1
 18 678 l 1xcdfc
 18 678 1 673 -9 677 c 0
 -17 680 -26 686 -27 694 c 0
 -28 702 -24 719 -9 726 c 0
 1 731 16 734 26 726 c 24
 36 718 24 703 32 693 c 0
 55 665 103 635 103 635 c 1
 86 614 l 1
EndSplineSet
Validated: 37
EndChar

StartChar: O
Encoding: 79 79 14
Width: 946
Flags: W
HStem: -63 49<619 641.665> -23 148<317 442> -23 39<298.192 319.67> 37 48<150.287 180.576> 247 33<837.008 859.889> 288 55<-29.4336 4.71658> 303 42<316.374 342.902> 349 39<554.192 585.859> 444 44<0.0483513 24.811> 462 54<876.514 913.648> 673 45<42.1111 80.9891> 743 36<233.049 260.991>
VStem: -30 35<288.146 313.988> -0 35<448.239 465> 42 46<688.425 717.666> 150 43<37.1852 76.9884> 298 31<-22.5834 8.99055> 314 29<318.009 344.833> 461 42<181.235 206.95> 506 36<796.007 825.717> 554 32<349.627 376.991> 598 52<-62.899 -23.5142> 731 50<743.009 779.668> 822 38<247.053 278.58> 867 47<481 515.948>
LayerCount: 2
Fore
SplineSet
635 413 m 1x09333f80
 588 377 l 1
 588 377 589 364 586 358 c 0
 583 353 580 349 574 349 c 0
 568 349 558 354 554 365 c 0
 551 372 550 382 556 388 c 24
 562 394 571 384 578 388 c 0
 598 399 622 427 622 427 c 1
 635 413 l 1x09333f80
305 507 m 1
 361 489 l 1
 361 489 369 498 376 499 c 0
 381 500 388 499 391 494 c 0
 394 489 397 478 391 468 c 0
 387 461 379 454 371 456 c 24
 363 458 366 471 358 475 c 0
 337 485 302 488 302 488 c 1x09b33f80
 305 507 l 1
517 496 m 24
 456 540 382 548 328 496 c 24
 265 436 258 358 284 273 c 24
 309 191 359 127 442 125 c 24x49333f80
 537 122 627 166 647 263 c 24
 667 365 600 436 517 496 c 24
382 46 m 24
 272 110 177 124 118 238 c 24
 59 351 53 456 113 568 c 24
 174 683 263 728 389 746 c 24
 538 766 666 774 763 656 c 24
 860 537 844 403 790 258 c 24
 738 121 644 71 517 5 c 24
 468 -21 430 18 382 46 c 24
483 110 m 1
 477 171 l 1
 477 171 466 175 462 181 c 0
 459 186 458 192 461 197 c 0
 464 202 474 209 485 207 c 0
 493 206 501 201 503 193 c 24
 505 185 491 182 491 173 c 0
 490 150 501 114 501 114 c 1
 483 110 l 1
259 285 m 1
 309 318 l 1
 309 318 310 331 314 337 c 0
 317 342 323 346 328 345 c 0
 333 344 341 339 343 327 c 0
 344 319 344 308 337 303 c 24x0b337f80
 330 298 324 310 316 306 c 0
 295 296 268 269 268 269 c 1
 259 285 l 1
811 346 m 1
 837 286 l 1
 837 286 848 285 853 280 c 0
 857 276 861 270 860 264 c 0
 859 258 852 248 842 247 c 0
 835 246 826 248 822 256 c 24
 818 264 829 270 826 279 c 0
 819 303 796 337 796 337 c 1
 811 346 l 1
371 55 m 1
 329 9 l 1
 329 9 332 -4 329 -11 c 0
 327 -17 322 -23 317 -23 c 0x4933bf80
 312 -23 302 -20 298 -9 c 0
 295 -1 294 9 299 16 c 24x2933bf80
 304 23 313 13 320 19 c 0
 338 34 359 68 359 68 c 1
 371 55 l 1
91 479 m 1
 35 465 l 1
 35 465 31 453 25 448 c 0
 21 444 15 441 10 444 c 0
 5 447 -1 456 -0 468 c 0
 1 476 4 485 12 488 c 24x09b73f80
 20 491 23 478 31 479 c 0
 53 481 87 498 87 498 c 1
 91 479 l 1
487 735 m 1
 512 796 l 1
 512 796 506 806 506 814 c 0
 506 820 507 827 512 830 c 0
 517 833 528 834 535 826 c 0
 540 820 545 811 542 802 c 24
 539 793 527 798 523 790 c 0
 511 768 503 728 503 728 c 1
 487 735 l 1
303 698 m 1
 261 744 l 1
 261 744 249 740 243 743 c 0
 238 745 234 750 233 756 c 0
 232 762 234 774 243 779 c 0
 249 783 259 785 265 779 c 24
 271 773 264 762 269 755 c 0
 283 735 314 713 314 713 c 1x09337f80
 303 698 l 1
706 171 m 1
 784 150 l 1
 784 150 795 161 805 162 c 0
 813 163 822 162 826 156 c 0
 830 150 833 135 825 123 c 0
 819 115 810 106 799 108 c 24
 788 110 791 127 780 132 c 0
 751 144 702 148 702 148 c 1
 706 171 l 1
797 441 m 1
 867 481 l 1
 867 481 867 497 873 505 c 0
 878 511 885 517 892 516 c 0
 899 515 912 507 914 492 c 0
 916 482 914 469 905 462 c 24x09733f80
 896 455 887 470 876 466 c 0
 847 454 809 420 809 420 c 1
 797 441 l 1
583 61 m 1
 619 -14 l 1
 619 -14 635 -15 642 -22 c 0
 648 -27 652 -35 650 -42 c 0
 648 -49 641 -61 627 -63 c 0x89333f80
 617 -64 604 -63 598 -53 c 24
 592 -43 607 -34 603 -23 c 0x29333f80
 593 7 563 49 563 49 c 1
 583 61 l 1
252 134 m 1
 193 77 l 1
 193 77 197 61 193 52 c 0
 190 45 184 38 177 37 c 0
 170 36 156 40 150 54 c 0
 146 63 144 76 152 85 c 24x19333f80
 160 94 172 82 181 89 c 0
 206 108 235 151 235 151 c 1
 252 134 l 1
97 332 m 1
 18 314 l 1
 18 314 13 298 5 292 c 0
 -1 287 -10 285 -16 288 c 0
 -22 291 -32 302 -30 317 c 0
 -29 327 -24 340 -13 343 c 24x0d3b3f80
 -2 346 2 330 13 331 c 0
 44 334 90 355 90 355 c 1
 97 332 l 1
706 667 m 1
 739 743 l 1
 739 743 731 756 731 766 c 0
 731 774 735 783 741 786 c 0
 747 789 762 791 772 780 c 0
 779 773 785 761 781 750 c 24
 777 739 762 746 756 736 c 0
 739 709 727 658 727 658 c 1
 706 667 l 1
140 617 m 1
 81 674 l 1
 81 674 66 670 57 673 c 0
 50 676 43 682 42 689 c 0
 41 696 44 711 57 718 c 0
 66 723 79 725 88 718 c 24
 97 711 86 697 93 688 c 0
 113 663 155 636 155 636 c 1
 140 617 l 1
EndSplineSet
Validated: 37
EndChar

StartChar: P
Encoding: 80 80 15
Width: 819
Flags: W
HStem: -105 38<378.012 411.667> 27 44<70.2878 101.529> 193 35<56.0491 78.8118> 263 26<641.007 661.675> 315 50<-1.85911 35.6704> 468 50<785.515 825.898> 472 28<425.049 450.993> 591 33<398.236 423.906> 643 33<771.327 795.948> 660 41<13.181 54.9884>
VStem: -2 38<315.146 337.99> 70 46<27.5999 62.9891> 355 57<-104.442 -68.4673> 396 28<591.402 615.993> 425 30<481.283 499.809> 461 32<824.007 847.764> 628 34<263.052 288.673> 632 54<781.009 815.669> 765 31<655 675.951> 782 44<486.011 517.56>
LayerCount: 2
Fore
SplineSet
408 428 m 24xf933
 456 447 505 452 518 496 c 24
 534 551 531 612 472 637 c 24
 401 667 309 659 275 596 c 24
 241 533 319 493 364 436 c 24
 374 423 392 422 408 428 c 24xf933
162 88 m 24
 122 204 115 275 123 397 c 24
 132 538 62 682 202 752 c 24
 371 837 547 794 695 683 c 24
 799 605 744 490 705 375 c 24
 686 319 626 306 562 293 c 24
 480 278 372 378 349 307 c 24
 315 204 514 166 487 62 c 24
 467 -18 358 -22 266 -14 c 24
 205 -9 179 37 162 88 c 24
256 599 m 1
 306 585 l 1
 306 585 314 592 320 593 c 0
 325 594 330 593 333 589 c 0
 336 585 338 577 333 569 c 0
 329 564 322 558 315 559 c 24
 308 560 311 571 304 574 c 0
 285 582 252 584 252 584 c 1
 256 599 l 1
720 629 m 1
 765 655 l 1xf9b320
 765 655 765 665 769 670 c 0
 772 674 777 677 782 676 c 0xf9b310
 787 675 795 671 796 662 c 0
 797 656 796 647 790 643 c 24xf9b320
 784 639 778 648 771 645 c 0
 752 638 728 616 728 616 c 1
 720 629 l 1
618 341 m 1
 641 294 l 1
 641 294 651 293 656 289 c 0
 660 286 663 281 662 277 c 0
 661 272 655 264 646 263 c 0
 640 262 632 264 628 270 c 24xf93380
 624 276 633 282 631 289 c 0
 625 308 605 334 605 334 c 1
 618 341 l 1
462 652 m 1
 424 616 l 1
 424 616 426 606 424 600 c 0
 422 595 419 591 414 591 c 0
 409 591 400 593 396 602 c 0xf937
 393 608 393 615 398 621 c 24
 403 627 410 620 416 624 c 0
 432 636 451 662 451 662 c 1
 462 652 l 1
139 220 m 1
 88 209 l 1
 88 209 84 200 79 196 c 0
 75 193 70 191 66 193 c 0
 62 195 55 202 56 211 c 0
 57 217 61 226 68 228 c 24
 75 230 78 219 85 220 c 0
 105 222 135 235 135 235 c 1
 139 220 l 1
444 777 m 1
 466 824 l 1
 466 824 461 833 461 839 c 0
 461 844 463 849 467 851 c 0
 471 853 480 855 487 848 c 0
 492 843 496 836 493 829 c 24
 490 822 481 826 477 820 c 0
 466 803 458 771 458 771 c 1
 444 777 l 1
489 437 m 1
 451 472 l 1
 451 472 441 470 435 472 c 0
 430 474 426 477 425 482 c 0
 424 487 427 496 435 500 c 0
 441 503 449 505 455 500 c 24xfb33
 461 495 453 487 458 481 c 0
 471 465 499 448 499 448 c 1
 489 437 l 1
464 69 m 1
 548 49 l 1
 548 49 561 60 571 61 c 0
 579 62 589 61 593 55 c 0
 597 49 602 36 593 25 c 0
 587 17 576 9 564 11 c 24
 552 13 555 29 544 33 c 0
 513 44 459 47 459 47 c 1
 464 69 l 1
699 448 m 1
 775 486 l 1
 775 486 776 501 782 508 c 0
 787 514 794 519 802 518 c 0
 810 517 824 510 826 496 c 0
 828 487 826 474 816 468 c 24xfd3310
 806 462 796 476 785 472 c 0
 754 461 712 429 712 429 c 1
 699 448 l 1
339 10 m 1
 378 -59 l 1
 378 -59 394 -61 402 -67 c 0
 408 -72 414 -78 412 -85 c 0
 410 -92 401 -104 386 -105 c 0
 375 -106 361 -104 355 -95 c 24xf93b
 349 -86 365 -78 361 -68 c 0
 350 -40 317 -1 317 -1 c 1
 339 10 l 1
179 117 m 1
 116 63 l 1
 116 63 120 48 116 40 c 0
 113 33 107 27 99 27 c 0
 91 27 76 30 70 43 c 0
 66 52 63 63 71 71 c 24
 79 79 92 69 102 75 c 0
 129 92 161 132 161 132 c 1
 179 117 l 1
135 355 m 1
 50 338 l 1
 50 338 44 324 36 319 c 0
 29 315 20 312 13 315 c 0
 6 318 -4 328 -2 342 c 0
 -1 351 4 362 16 365 c 24
 28 368 33 353 45 354 c 0
 78 356 128 376 128 376 c 1
 135 355 l 1
604 711 m 1
 641 781 l 1
 641 781 632 794 632 803 c 0
 632 810 635 818 642 821 c 0
 649 824 665 826 676 816 c 0
 684 809 690 798 686 788 c 24xf93340
 682 778 665 784 658 775 c 0
 640 750 628 703 628 703 c 1xf93380
 604 711 l 1
119 608 m 1
 55 661 l 1
 55 661 39 657 29 660 c 0
 21 663 14 667 13 674 c 0
 12 681 15 695 29 701 c 0
 39 705 52 708 62 701 c 24xf973
 72 694 60 681 68 673 c 0
 89 650 135 625 135 625 c 1
 119 608 l 1
EndSplineSet
Validated: 37
EndChar

StartChar: Q
Encoding: 81 81 16
Width: 817
Flags: W
HStem: -38 39<437.012 468.795> 22 36<160.192 181.671> 181 45<-16.7129 13.576> 222 39<218.374 244.901> 346 50<770.513 807.898> 365 40<548.049 573.766> 470 52<480.24 515.717> 487 30<281.009 303.949 516.373 552.595> 575 41<-8.64127 30.9891> 707 33<189.05 217.992>
VStem: -17 43<181.585 217.99> 160 31<22.4128 50.992> 189 33<718.33 739.761> 216 29<236.009 260.543> 266 38<487.053 515.626> 417 52<-37.7885 -0.512722> 480 36<470.146 493.989> 496 36<749.007 775.763> 548 26<365.098 382.992> 621 51<732.009 766.669> 761 47<364 395.949>
LayerCount: 2
Fore
SplineSet
494 265 m 0xc0e338
 563 289 602 142 605 179 c 0
 605 179 680 400 602 499 c 24
 527 594 404 627 295 572 c 24
 174 512 90 392 139 269 c 24
 196 128 350 147 492 83 c 24
 503 78 517 91 515 102 c 24
 503 158 418 154 459 239 c 0
 466 254 478 260 494 265 c 0xc0e338
292 52 m 24
 197 86 113 105 81 197 c 24
 31 338 16 457 105 578 c 0
 184 686 311 724 448 718 c 24
 574 713 686 666 734 553 c 0
 798 400 657 298 672 134 c 24
 677 80 779 97 781 43 c 24
 782 -17 740 -75 678 -76 c 24
 603 -77 599 14 528 38 c 24
 441 67 378 21 292 52 c 24
713 577 m 1
 770 561 l 1
 770 561 778 569 785 570 c 0
 790 571 797 570 800 566 c 0
 803 562 806 551 800 542 c 0
 796 536 788 529 780 531 c 24
 772 533 775 545 767 548 c 0
 746 557 709 560 709 560 c 1
 713 577 l 1
160 206 m 1xd0f738
 211 236 l 1
 211 236 212 248 216 254 c 0
 219 259 224 262 229 261 c 0
 234 260 243 255 245 244 c 0
 246 237 246 227 239 222 c 24
 232 217 226 228 218 225 c 0
 197 216 169 192 169 192 c 1
 160 206 l 1xd0f738
255 577 m 1
 281 523 l 1
 281 523 293 522 298 517 c 0
 302 513 305 507 304 502 c 0
 303 497 297 488 287 487 c 0xc1e338
 280 486 270 488 266 495 c 24
 262 502 273 508 270 516 c 0
 263 538 240 569 240 569 c 1
 255 577 l 1
234 93 m 1
 191 51 l 1
 191 51 194 40 191 33 c 0
 189 28 184 22 179 22 c 0
 174 22 164 25 160 35 c 0xc0f338
 157 42 155 52 161 58 c 24
 167 64 175 56 182 61 c 0
 200 75 221 105 221 105 c 1
 234 93 l 1
641 396 m 1xc8e338
 584 383 l 1
 584 383 580 372 574 368 c 0
 569 365 564 363 559 365 c 0
 554 367 547 375 548 386 c 0
 549 393 553 402 561 405 c 24xc4e338
 569 408 572 395 580 396 c 0
 603 398 636 413 636 413 c 1
 641 396 l 1xc8e338
477 693 m 1
 502 749 l 1
 502 749 496 759 496 766 c 0
 496 772 498 778 503 780 c 0
 508 782 518 784 525 776 c 0
 530 771 535 762 532 754 c 24xc0e378
 529 746 518 750 514 743 c 0
 502 723 493 687 493 687 c 1
 477 693 l 1
260 667 m 1
 218 708 l 1
 218 708 207 704 200 707 c 0
 195 709 190 714 189 719 c 0
 188 724 191 735 200 740 c 0
 206 743 216 745 222 740 c 24xc0eb38
 228 735 221 725 226 718 c 0
 240 700 271 680 271 680 c 1
 260 667 l 1
660 224 m 1
 739 203 l 1
 739 203 750 214 760 215 c 0
 768 216 777 215 781 209 c 0
 785 203 789 189 781 178 c 0
 775 170 765 162 754 164 c 24
 743 166 746 182 735 186 c 0
 706 198 655 201 655 201 c 1
 660 224 l 1
690 325 m 1
 761 364 l 1
 761 364 761 379 767 386 c 0
 772 392 779 397 786 396 c 0
 793 395 806 388 808 374 c 0
 810 364 809 352 799 346 c 24xc8e338
 789 340 781 353 770 349 c 0
 741 338 702 306 702 306 c 1
 690 325 l 1
401 79 m 1
 437 9 l 1
 437 9 453 7 460 1 c 0
 466 -4 471 -11 469 -18 c 0
 467 -25 459 -37 445 -38 c 0
 435 -39 423 -38 417 -28 c 24
 411 -18 426 -11 422 0 c 0
 412 29 381 68 381 68 c 1
 401 79 l 1
86 273 m 1
 27 218 l 1
 27 218 30 204 26 195 c 0
 23 188 17 181 10 181 c 0
 3 181 -11 184 -17 197 c 0
 -21 206 -23 218 -15 226 c 24xe0e338
 -7 234 5 223 14 230 c 0
 39 248 69 288 69 288 c 1
 86 273 l 1
608 511 m 1
 529 494 l 1
 529 494 524 479 516 474 c 0
 510 470 501 467 495 470 c 0
 489 473 478 484 480 498 c 0
 481 508 486 519 497 522 c 24xc2e3b8
 508 525 513 510 524 511 c 0
 555 514 602 533 602 533 c 1
 608 511 l 1
596 661 m 1
 630 732 l 1
 630 732 621 745 621 754 c 0
 621 761 624 770 631 773 c 0
 638 776 652 777 662 767 c 0
 669 760 676 749 672 739 c 24
 668 729 652 735 646 726 c 0
 629 700 617 652 617 652 c 1
 596 661 l 1
90 521 m 1
 31 575 l 1
 31 575 16 572 7 575 c 0
 0 578 -8 582 -9 589 c 0
 -10 596 -6 610 7 616 c 0
 16 620 28 623 37 616 c 24
 46 609 36 598 43 589 c 0
 63 565 106 539 106 539 c 1
 90 521 l 1
EndSplineSet
Validated: 37
EndChar

StartChar: R
Encoding: 82 82 17
Width: 921
Flags: W
HStem: -37 39<304.012 335.795> 1 27<795.007 814.833> 63 46<466.287 495.577> 185 52<-33.7573 0.716576> 222 34<418.048 439.812> 263 34<371.327 394.947> 503 50<497.469 534.898> 515 46<16.0512 54.9891 588.286 617.577> 765 28<410.049 434.993>
VStem: -34 35<185.146 208.989> 284 52<-36.7885 0.487278> 365 30<276 296.95> 418 22<222.097 236.993> 466 43<63.5848 99.9898> 488 47<521 552.949> 588 42<515.627 552.989> 685 49<303.009 337.669> 718 50<790.009 824.669> 782 33<1.05196 26.6726>
LayerCount: 2
Fore
SplineSet
489 423 m 24x24f920
 523 379 593 407 632 447 c 24
 675 491 700 553 662 602 c 24
 613 666 519 722 464 665 c 24
 398 596 431 499 489 423 c 24x24f920
339 111 m 24
 273 39 142 -53 100 35 c 24
 8 227 102 368 116 580 c 24
 120 651 92 714 147 759 c 24
 185 790 209 701 258 698 c 24
 306 695 325 738 373 741 c 24
 513 751 618 816 732 735 c 24
 830 664 832 551 801 435 c 24
 782 363 648 418 630 346 c 24
 613 278 691 254 744 207 c 24
 753 199 762 223 773 219 c 24
 808 203 874 191 852 160 c 24
 798 83 731 -5 644 33 c 24
 496 97 503 242 394 360 c 24
 378 377 349 384 334 367 c 24
 314 343 330 318 331 287 c 24
 333 218 386 162 339 111 c 24
415 635 m 1
 464 621 l 1
 464 621 471 628 477 629 c 0
 482 630 487 629 490 625 c 0
 493 621 495 612 490 604 c 0
 486 599 480 594 473 595 c 24
 466 596 469 607 462 610 c 0
 444 618 412 620 412 620 c 1
 415 635 l 1
321 250 m 1
 365 276 l 1
 365 276 365 286 369 291 c 0
 372 295 377 298 381 297 c 0
 385 296 394 291 395 282 c 0
 396 276 396 267 390 263 c 24
 384 259 378 269 371 266 c 0
 353 258 329 237 329 237 c 1x34f920
 321 250 l 1
773 80 m 1
 795 33 l 1
 795 33 805 32 810 28 c 0
 814 25 816 20 815 15 c 0
 814 10 809 2 800 1 c 0x64f920
 794 0 786 2 782 8 c 24
 778 14 787 20 785 27 c 0
 779 46 760 73 760 73 c 1
 773 80 l 1
567 155 m 1
 509 100 l 1
 509 100 513 86 509 77 c 0
 506 70 500 63 493 63 c 0
 486 63 472 66 466 79 c 0x24fd20
 462 88 460 101 468 109 c 24
 476 117 487 105 496 112 c 0
 521 130 550 171 550 171 c 1
 567 155 l 1
498 249 m 1
 448 237 l 1x34f920
 448 237 445 228 440 224 c 0
 436 221 431 220 427 222 c 0
 423 224 417 231 418 240 c 0
 419 246 421 254 428 256 c 24x2cf920
 435 258 438 248 445 249 c 0
 465 251 494 264 494 264 c 1
 498 249 l 1
660 231 m 1
 693 303 l 1
 693 303 685 316 685 325 c 0
 685 332 688 341 694 344 c 0
 700 347 715 348 725 338 c 0
 732 331 738 320 734 310 c 24x24f9a0
 730 300 715 305 709 296 c 0
 693 270 681 223 681 223 c 1
 660 231 l 1
472 730 m 1
 435 766 l 1
 435 766 426 763 420 765 c 0
 415 767 411 770 410 775 c 0
 409 780 412 789 420 793 c 0
 426 796 433 798 439 793 c 24
 445 788 438 781 443 775 c 0
 455 759 482 741 482 741 c 1
 472 730 l 1
781 486 m 1
 858 465 l 1
 858 465 870 476 879 477 c 0
 886 478 895 477 899 471 c 0
 903 465 907 451 899 440 c 0
 893 432 884 424 873 426 c 24
 862 428 865 444 855 448 c 0
 827 460 777 463 777 463 c 1
 781 486 l 1
419 482 m 1
 488 521 l 1
 488 521 488 537 494 544 c 0
 499 550 506 554 513 553 c 0
 520 552 533 545 535 531 c 0
 537 521 535 509 526 503 c 24x26fb20
 517 497 507 510 497 506 c 0
 469 495 431 463 431 463 c 1
 419 482 l 1
269 80 m 1
 304 9 l 1
 304 9 320 8 327 2 c 0
 333 -3 338 -10 336 -17 c 0
 334 -24 326 -36 312 -37 c 0xa4f920
 302 -38 290 -37 284 -27 c 24
 278 -17 293 -10 289 1 c 0x64f920
 279 30 249 69 249 69 c 1
 269 80 l 1
688 607 m 1
 631 553 l 1x26f920
 631 553 634 538 630 529 c 0
 627 522 621 515 614 515 c 0
 607 515 594 519 588 532 c 0
 584 541 582 553 590 561 c 24x25f920
 598 569 609 558 618 565 c 0
 643 583 671 623 671 623 c 1
 688 607 l 1
91 226 m 1
 13 209 l 1
 13 209 9 194 1 189 c 0
 -5 185 -14 182 -20 185 c 0
 -26 188 -36 199 -34 213 c 0
 -33 223 -29 234 -18 237 c 24x34f920
 -7 240 -2 225 9 226 c 0
 40 229 85 248 85 248 c 1
 91 226 l 1
693 719 m 1
 727 790 l 1
 727 790 718 803 718 812 c 0
 718 819 722 828 728 831 c 0
 734 834 748 835 758 825 c 0
 765 818 772 807 768 797 c 24x24f960
 764 787 749 793 743 784 c 0
 727 758 715 710 715 710 c 1
 693 719 l 1
113 466 m 1
 55 520 l 1
 55 520 40 517 31 520 c 0
 24 523 17 527 16 534 c 0
 15 541 18 555 31 561 c 0
 40 565 52 568 61 561 c 24x25f920
 70 554 59 542 66 533 c 0
 85 509 128 484 128 484 c 1
 113 466 l 1
EndSplineSet
Validated: 37
EndChar

StartChar: S
Encoding: 83 83 18
Width: 806
Flags: W
HStem: -68 43<483.012 515.795> 183 56<-27.1736 7.7173> 309 34<322.192 343.67> 323 37<255.373 281.901> 449 39<40.0484 64.811> 526 34<300 322.949> 600 55<763.513 801.489> 723 46<43.3587 83.9884> 775 32<242.049 269.991>
VStem: -28 36<183.146 207.989> 40 25<449.098 466.992> 157 44<1.17956 41.9876> 242 32<786.284 806.761> 253 29<336.008 359.546> 285 38<526.053 553.626> 322 30<309.418 336.991> 462 54<-67.4914 -26.5142> 533 52<788.01 825.668> 651 36<701.007 727.763> 760 42<619.012 654.509>
LayerCount: 2
Fore
SplineSet
586 62 m 24xcff4f0
 540 -1 470 33 394 28 c 24
 355 26 322 17 294 45 c 24
 195 142 18 208 83 331 c 24
 143 444 263 230 388 222 c 24
 455 217 588 254 541 302 c 24
 444 403 324 345 202 413 c 24
 137 449 55 487 77 560 c 24
 113 675 193 744 310 758 c 24
 463 777 580 749 686 635 c 24
 747 570 722 424 635 409 c 24
 477 382 293 719 253 561 c 24
 211 395 520 466 614 325 c 24
 671 240 647 144 586 62 c 24xcff4f0
685 487 m 1
 740 472 l 1
 740 472 748 479 755 480 c 0
 760 481 767 480 770 476 c 0
 773 472 775 462 769 453 c 0
 765 447 758 441 750 443 c 24
 742 445 745 456 737 459 c 0
 717 468 681 470 681 470 c 1
 685 487 l 1
198 307 m 1
 248 336 l 1
 248 336 249 347 253 353 c 0
 256 357 261 361 266 360 c 0
 271 359 280 354 282 344 c 0
 283 337 282 328 275 323 c 24xdff4f0
 268 318 263 328 255 325 c 0
 234 317 207 293 207 293 c 1
 198 307 l 1
275 613 m 1
 300 560 l 1
 300 560 311 560 316 555 c 0
 320 551 324 546 323 541 c 0
 322 536 316 527 306 526 c 0
 299 525 289 526 285 533 c 24xcff2f0
 281 540 292 546 289 554 c 0
 282 575 260 605 260 605 c 1
 275 613 l 1
394 378 m 1
 353 337 l 1
 353 337 355 325 352 319 c 0
 350 314 346 309 341 309 c 0
 336 309 326 311 322 321 c 0xeff1f0
 319 328 318 337 323 343 c 24xeff2f0
 328 349 337 341 344 346 c 0
 362 359 382 389 382 389 c 1
 394 378 l 1
131 479 m 1
 75 467 l 1
 75 467 71 456 65 452 c 0
 61 449 55 447 50 449 c 0
 45 451 39 459 40 469 c 0
 41 476 44 486 52 488 c 24
 60 490 63 478 71 479 c 0
 93 481 126 496 126 496 c 1
 131 479 l 1
633 648 m 1
 657 701 l 1
 657 701 651 711 651 718 c 0
 651 724 653 730 658 732 c 0
 663 734 673 735 680 728 c 0
 685 723 690 715 687 707 c 24
 684 699 673 703 669 696 c 0
 657 677 649 641 649 641 c 1
 633 648 l 1
312 736 m 1
 270 776 l 1
 270 776 258 773 252 775 c 0
 247 777 243 781 242 786 c 0
 241 791 243 802 252 807 c 0
 258 810 268 812 274 807 c 24xcff9f0
 280 802 273 792 278 786 c 0
 292 768 322 749 322 749 c 1
 312 736 l 1
603 176 m 1
 683 154 l 1
 683 154 695 166 705 167 c 0
 713 168 722 166 726 160 c 0
 730 154 735 139 726 127 c 0
 720 118 710 110 698 112 c 24
 686 114 690 131 679 136 c 0
 649 149 598 152 598 152 c 1
 603 176 l 1
680 578 m 1
 753 619 l 1
 753 619 754 636 760 644 c 0
 765 650 772 656 779 655 c 0
 786 654 800 645 802 630 c 0
 804 620 802 607 792 600 c 24
 782 593 774 608 763 604 c 0
 733 592 693 557 693 557 c 1
 680 578 l 1
446 59 m 1
 483 -17 l 1
 483 -17 500 -18 507 -25 c 0
 513 -30 518 -39 516 -46 c 0
 514 -53 506 -66 491 -68 c 0
 481 -69 468 -66 462 -56 c 24
 456 -46 471 -37 467 -26 c 0
 457 5 425 47 425 47 c 1
 446 59 l 1
262 101 m 1
 201 42 l 1
 201 42 205 25 201 16 c 0
 198 9 191 2 184 1 c 0
 177 0 163 5 157 19 c 0
 153 29 150 42 158 51 c 24
 166 60 178 48 188 55 c 0
 214 74 244 118 244 118 c 1
 262 101 l 1
103 227 m 1
 22 208 l 1
 22 208 16 193 8 187 c 0
 2 182 -6 180 -13 183 c 0
 -20 186 -30 197 -28 212 c 0
 -27 222 -22 235 -11 239 c 24
 0 243 5 226 17 227 c 0
 49 230 97 251 97 251 c 1
 103 227 l 1
506 711 m 1
 541 788 l 1
 541 788 533 802 533 812 c 0
 533 820 536 829 543 832 c 0
 550 835 564 837 575 826 c 0
 582 819 589 807 585 796 c 24
 581 785 564 791 558 781 c 0
 541 753 529 702 529 702 c 1
 506 711 l 1
145 666 m 1
 84 724 l 1
 84 724 68 719 59 723 c 0
 52 726 44 732 43 739 c 0
 42 747 46 762 59 769 c 0
 68 774 81 777 90 769 c 24
 99 761 89 747 96 738 c 0
 116 713 160 685 160 685 c 1
 145 666 l 1
EndSplineSet
Validated: 37
EndChar

StartChar: T
Encoding: 84 84 19
Width: 770
Flags: W
HStem: -92 44<428.011 457.666> -13 33<197.191 216.717> 260 30<199.049 225.992> 350 37<456.327 480.902> 438 28<751.007 771.95> 502 59<-71.0796 -39.2827> 596 38<-47.9509 -24.1889> 687 58<751.467 786.351> 766 47<-7.67598 28.9898>
VStem: -72 46<506.289 529> -48 24<596.098 612.993> 197 29<-12.5379 13.992> 204 40<421.257 463.988> 408 50<-91.8755 -49.5596> 435 48<774.01 813.622> 450 31<363 386.95> 628 33<745.007 769.764> 737 35<438.052 464.627> 742 45<708 744.947>
LayerCount: 2
Fore
SplineSet
322 14 m 24xff8280
 293 28 252 16 249 53 c 24
 237 204 279 289 289 441 c 24
 291 473 306 514 280 522 c 24
 208 545 165 500 90 504 c 24
 69 505 44 509 40 534 c 24
 27 606 -6 692 52 721 c 24
 183 786 276 738 418 721 c 24
 553 705 665 749 758 635 c 24
 813 567 710 497 661 423 c 24
 652 409 636 425 622 431 c 24
 548 462 473 597 435 518 c 24
 366 376 486 262 462 101 c 24
 453 40 405 29 358 -0 c 24
 345 -8 336 7 322 14 c 24xff8280
409 485 m 1
 461 470 l 1
 461 470 469 478 475 479 c 0
 480 480 486 478 489 474 c 0
 492 470 494 460 488 452 c 0
 484 446 478 441 471 442 c 24
 464 443 466 455 459 458 c 0
 440 466 406 469 406 469 c 1
 409 485 l 1
403 335 m 1
 450 363 l 1
 450 363 450 375 454 380 c 0
 457 384 461 388 466 387 c 0
 471 386 479 381 481 371 c 0xff8180
 482 364 481 354 475 350 c 24
 469 346 463 356 456 353 c 0
 437 345 411 322 411 322 c 1
 403 335 l 1
727 522 m 1
 751 471 l 1
 751 471 761 470 766 466 c 0
 770 462 773 457 772 452 c 0
 771 447 766 439 756 438 c 0
 749 437 741 438 737 445 c 24xff80c0
 733 452 743 457 741 465 c 0
 734 486 713 514 713 514 c 1
 727 522 l 1
265 53 m 1
 226 14 l 1
 226 14 229 3 226 -3 c 0
 224 -8 220 -13 215 -13 c 0
 210 -13 201 -10 197 -1 c 0xff9080
 194 5 193 14 198 20 c 24
 203 26 211 18 217 23 c 0
 234 36 253 65 253 65 c 1
 265 53 l 1
37 626 m 1
 -16 613 l 1
 -16 613 -19 603 -24 599 c 0
 -28 596 -34 594 -38 596 c 0
 -42 598 -49 606 -48 616 c 0xffa080
 -47 623 -43 632 -36 634 c 24
 -29 636 -27 624 -19 625 c 0
 2 627 33 641 33 641 c 1
 37 626 l 1
611 693 m 1
 633 745 l 1
 633 745 628 754 628 761 c 0
 628 766 630 772 634 774 c 0
 638 776 648 777 655 770 c 0
 660 765 664 758 661 750 c 24
 658 742 648 747 644 740 c 0
 633 722 625 687 625 687 c 1
 611 693 l 1
265 222 m 1
 226 260 l 1xff9080
 226 260 215 258 209 260 c 0
 204 262 200 265 199 270 c 0
 198 275 200 285 209 290 c 0
 215 293 224 295 230 290 c 24
 236 285 228 276 233 270 c 0
 246 253 275 234 275 234 c 1
 265 222 l 1
430 153 m 1
 504 130 l 1
 504 130 515 142 524 143 c 0
 531 144 540 142 544 136 c 0
 548 129 551 114 543 101 c 0
 538 92 529 83 518 85 c 24
 507 87 511 105 501 110 c 0
 474 123 425 127 425 127 c 1
 430 153 l 1
675 664 m 1
 742 708 l 1
 742 708 742 726 748 734 c 0
 752 741 759 746 766 745 c 0
 773 744 785 735 787 719 c 0xff80a0
 789 708 787 694 778 687 c 24
 769 680 761 696 751 691 c 0
 724 678 687 642 687 642 c 1
 675 664 l 1
394 41 m 1
 428 -39 l 1
 428 -39 443 -41 450 -48 c 0xff8180
 455 -54 460 -61 458 -69 c 0xff8480
 456 -77 449 -90 435 -92 c 0xff8280
 426 -93 414 -91 408 -80 c 24xff8480
 402 -69 416 -61 413 -49 c 0
 404 -16 374 29 374 29 c 1
 394 41 l 1
300 526 m 1
 245 464 l 1
 245 464 248 447 244 437 c 0
 241 429 236 422 229 421 c 0
 222 420 209 425 204 440 c 0xff8880
 200 450 198 464 205 473 c 24
 212 482 224 471 233 478 c 0
 257 498 284 544 284 544 c 1
 300 526 l 1
49 548 m 1
 -26 529 l 1
 -26 529 -32 512 -39 506 c 0
 -45 501 -53 498 -59 502 c 0
 -65 506 -74 517 -72 533 c 0xffc080
 -71 544 -66 557 -56 561 c 24
 -46 565 -42 547 -31 548 c 0
 -2 551 43 573 43 573 c 1
 49 548 l 1
411 692 m 1
 443 774 l 1
 443 774 435 788 435 799 c 0
 435 807 438 818 444 821 c 0
 450 824 464 825 474 814 c 0
 481 806 487 794 483 782 c 24xff8280
 479 770 464 778 458 767 c 0xff8480
 442 738 431 683 431 683 c 1
 411 692 l 1
85 705 m 1
 29 767 l 1
 29 767 15 762 6 766 c 0
 -1 769 -7 774 -8 782 c 0
 -9 790 -6 806 6 813 c 0
 14 818 27 821 35 813 c 24
 43 805 33 791 40 781 c 0
 59 754 100 725 100 725 c 1
 85 705 l 1
EndSplineSet
Validated: 37
EndChar

StartChar: U
Encoding: 85 85 20
Width: 878
Flags: W
HStem: -19 41<523.012 555.795> 41 35<271.192 291.717> 106 48<82.2878 112.53> 273 40<51.0491 74.8111> 284 30<773.007 793.692> 378 55<-19.3348 16.6712> 401 38<399.328 424.902> 555 44<395.268 435.988> 685 32<23.0491 49.992> 696 53<824.514 863.883>
VStem: -20 37<378.146 402.99> 51 24<273.098 291.991> 82 44<106.341 144.989> 271 30<41.4128 69.992> 277 53<724.009 760.668> 393 32<414 438.95> 395 48<570.425 598.667> 502 54<-18.5006 20.4866> 602 34<801.007 827.763> 759 35<284.053 312.626> 815 49<715 748.889>
LayerCount: 2
Fore
SplineSet
277 120 m 24xe13a78
 201 152 155 196 132 274 c 24
 81 445 53 556 96 729 c 24
 109 783 210 754 240 707 c 24
 340 549 328 430 396 257 c 24
 404 236 427 190 434 212 c 24
 494 407 452 539 540 724 c 24
 565 778 642 790 691 757 c 24
 767 706 818 639 799 551 c 24
 757 354 708 226 551 97 c 24
 469 30 376 78 277 120 c 24xe13a78
763 473 m 1
 816 457 l 1
 816 457 824 465 830 466 c 0
 835 467 841 466 844 462 c 0
 847 458 850 447 844 438 c 0
 840 432 834 426 826 428 c 24
 818 430 820 441 813 444 c 0
 794 453 760 456 760 456 c 1
 763 473 l 1
345 385 m 1
 393 414 l 1
 393 414 393 426 397 432 c 0
 400 436 405 440 410 439 c 0
 415 438 423 433 425 422 c 0
 426 415 425 406 419 401 c 24xe33978
 413 396 406 406 399 403 c 0
 379 394 353 370 353 370 c 1
 345 385 l 1
749 374 m 1
 773 320 l 1
 773 320 783 319 788 314 c 0
 792 310 795 305 794 300 c 0
 793 295 788 285 778 284 c 0xe93878
 771 283 763 285 759 292 c 24
 755 299 764 305 762 313 c 0xf13878
 755 335 735 365 735 365 c 1
 749 374 l 1
340 111 m 1
 301 70 l 1
 301 70 304 59 301 52 c 0
 299 47 295 41 290 41 c 0
 285 41 275 43 271 53 c 0xe13c78
 268 60 268 70 273 76 c 24
 278 82 286 74 292 79 c 0
 309 93 329 123 329 123 c 1
 340 111 l 1
137 305 m 1
 84 292 l 1
 84 292 80 280 75 276 c 0
 71 273 65 271 61 273 c 0
 57 275 50 283 51 294 c 0
 52 301 56 311 63 313 c 24xf13878
 70 315 73 303 81 304 c 0
 102 306 133 321 133 321 c 1
 137 305 l 1
585 747 m 1
 608 801 l 1
 608 801 602 811 602 818 c 0
 602 824 604 831 608 833 c 0
 612 835 623 836 630 828 c 0
 635 823 639 815 636 807 c 24
 633 799 623 803 619 796 c 0
 608 776 599 740 599 740 c 1
 585 747 l 1
90 645 m 1
 50 686 l 1
 50 686 39 682 33 685 c 0
 28 687 24 692 23 697 c 0
 22 702 24 712 33 717 c 0
 39 720 48 722 54 717 c 24xe1b878
 60 712 53 703 58 696 c 0xe17878
 71 678 100 658 100 658 c 1
 90 645 l 1
618 195 m 1
 700 174 l 1
 700 174 711 185 721 186 c 0
 729 187 739 186 743 180 c 0
 747 174 751 160 742 148 c 0
 736 140 727 131 715 133 c 24
 703 135 707 152 696 156 c 0
 666 168 613 172 613 172 c 1
 618 195 l 1
741 675 m 1
 815 715 l 1
 815 715 815 731 821 739 c 0
 826 745 834 750 841 749 c 0
 848 748 862 741 864 726 c 0
 866 716 864 703 854 696 c 24xe17878
 844 689 835 704 824 700 c 0
 794 688 754 654 754 654 c 1
 741 675 l 1
486 104 m 1
 523 30 l 1
 523 30 539 28 547 22 c 0
 553 17 558 9 556 2 c 0
 554 -5 546 -17 531 -19 c 0
 521 -20 508 -18 502 -8 c 24
 496 2 511 10 507 21 c 0
 497 51 464 92 464 92 c 1
 486 104 l 1
188 202 m 1
 127 145 l 1
 127 145 130 130 126 121 c 0
 123 114 117 107 110 106 c 0
 103 105 88 110 82 123 c 0
 78 132 75 145 83 154 c 24
 91 163 103 151 113 158 c 0
 139 177 170 219 170 219 c 1
 188 202 l 1
113 421 m 1
 31 403 l 1
 31 403 25 389 17 383 c 0
 10 379 2 375 -5 378 c 0
 -12 381 -22 392 -20 407 c 0
 -19 417 -13 430 -2 433 c 24xe53878
 9 436 14 420 26 421 c 0
 58 424 107 444 107 444 c 1
 113 421 l 1
251 649 m 1
 286 724 l 1
 286 724 277 737 277 747 c 0
 277 755 280 763 287 766 c 0
 294 769 309 771 320 761 c 0
 327 754 334 742 330 731 c 24
 326 720 309 727 303 717 c 0xe1ba78
 286 690 273 640 273 640 c 1
 251 649 l 1
498 500 m 1
 436 556 l 1
 436 556 420 552 411 555 c 0
 404 558 396 564 395 571 c 0
 394 578 398 592 411 599 c 0
 420 604 434 606 443 599 c 24xe138f8
 452 592 440 579 448 570 c 0
 468 545 514 518 514 518 c 1
 498 500 l 1
EndSplineSet
Validated: 37
EndChar

StartChar: V
Encoding: 86 86 21
Width: 949
Flags: W
HStem: -25 41<620.012 650.798> -13 33<394.19 412.718> 136 48<250.287 280.576> 280 37<194.048 215.812> 300 28<815.007 834.692> 419 36<461.327 483.948> 489 55<26.5664 60.7166> 622 30<586.049 609.993> 754 44<-4.90625 33.9891> 818 53<840.514 877.867>
VStem: 26 35<489.146 513.989> 194 22<280.097 296.992> 250 43<136.185 175.988> 319 50<820.009 856.668> 394 27<-12.7974 13.992> 455 29<432 454.95> 599 52<-24.899 14.4866> 802 33<300.053 327.627> 831 47<837 870.949> 911 31<739.007 763.764>
LayerCount: 2
Fore
SplineSet
504 -25 m 0xa7ff90
 504 -25 198 334 85 615 c 24
 58 682 108 767 178 775 c 24
 269 786 366 744 379 650 c 0
 425 327 514 187 514 187 c 0
 514 187 614 401 671 727 c 0
 682 788 759 819 812 790 c 24
 886 750 944 677 914 597 c 24
 811 324 504 -25 504 -25 c 0xa7ff90
838 480 m 1
 887 465 l 1
 887 465 895 473 901 474 c 0
 906 475 910 473 913 469 c 0
 916 465 918 455 913 447 c 0
 909 441 903 436 896 437 c 24
 889 438 892 450 885 453 c 0
 867 461 835 464 835 464 c 1x27ffd0
 838 480 l 1
410 404 m 1
 455 432 l 1
 455 432 455 443 459 448 c 0
 462 452 467 456 471 455 c 0
 475 454 483 449 484 439 c 0
 485 432 485 423 479 419 c 24
 473 415 468 424 461 421 c 0
 443 413 418 390 418 390 c 1
 410 404 l 1
792 385 m 1
 815 334 l 1
 815 334 824 332 829 328 c 0
 833 324 836 320 835 315 c 0
 834 310 829 301 820 300 c 0
 814 299 806 301 802 308 c 24
 798 315 807 320 805 328 c 0x2fffd0
 799 349 780 377 780 377 c 1
 792 385 l 1
457 53 m 1
 421 14 l 1
 421 14 423 3 421 -3 c 0
 419 -8 414 -13 410 -13 c 0
 405 -13 398 -11 394 -2 c 0
 391 4 390 14 395 20 c 24x67ff90
 400 26 407 17 413 22 c 0
 429 35 447 64 447 64 c 1
 457 53 l 1
274 309 m 1
 224 297 l 1
 224 297 221 286 216 282 c 0
 212 279 207 278 203 280 c 0
 199 282 193 289 194 299 c 0
 195 306 198 315 205 317 c 24x37ff90
 212 319 214 308 221 309 c 0
 240 311 270 325 270 325 c 1
 274 309 l 1
895 688 m 1
 916 739 l 1
 916 739 911 748 911 755 c 0
 911 760 913 766 917 768 c 0
 921 770 930 771 936 764 c 0
 940 759 944 752 942 744 c 24
 940 736 930 741 926 734 c 0
 916 716 908 681 908 681 c 1
 895 688 l 1
647 584 m 1
 610 623 l 1
 610 623 601 620 595 622 c 0
 591 624 587 628 586 633 c 0
 585 638 587 647 595 652 c 0
 601 655 608 657 614 652 c 24
 620 647 613 638 618 632 c 0
 630 615 657 597 657 597 c 1
 647 584 l 1
648 202 m 1
 726 181 l 1
 726 181 737 192 747 193 c 0
 755 194 763 193 767 187 c 0
 771 181 775 166 767 154 c 0
 761 146 751 137 740 139 c 24
 729 141 733 158 722 163 c 0
 693 175 643 178 643 178 c 1
 648 202 l 1
760 796 m 1
 831 837 l 1
 831 837 831 853 837 861 c 0
 842 867 849 872 856 871 c 0
 863 870 876 863 878 848 c 0x27ffb0
 880 838 878 825 869 818 c 24
 860 811 851 825 840 821 c 0
 811 809 773 775 773 775 c 1
 760 796 l 1
584 99 m 1
 620 24 l 1
 620 24 636 23 643 16 c 0
 649 11 653 3 651 -4 c 0
 649 -11 642 -23 628 -25 c 0xa7ff90
 618 -26 605 -24 599 -14 c 24
 593 -4 608 4 604 15 c 0
 594 45 564 87 564 87 c 1
 584 99 l 1
352 233 m 1
 293 176 l 1
 293 176 297 160 293 151 c 0
 290 144 284 137 277 136 c 0
 270 135 256 139 250 153 c 0
 246 162 244 175 252 184 c 24
 260 193 272 181 281 188 c 0
 306 207 335 250 335 250 c 1
 352 233 l 1
153 532 m 1
 74 514 l 1
 74 514 69 499 61 493 c 0
 55 488 46 486 40 489 c 0
 34 492 24 503 26 518 c 0
 27 528 32 541 43 544 c 24
 54 547 59 531 70 532 c 0
 101 535 147 555 147 555 c 1
 153 532 l 1
293 744 m 1
 327 820 l 1
 327 820 319 833 319 843 c 0
 319 851 322 860 328 863 c 0
 334 866 349 868 359 857 c 0
 366 850 373 838 369 827 c 24
 365 816 349 823 343 813 c 0
 326 786 315 735 315 735 c 1
 293 744 l 1
93 698 m 1
 34 755 l 1
 34 755 19 751 10 754 c 0
 3 757 -4 763 -5 770 c 0
 -6 777 -3 791 10 798 c 0
 19 803 32 805 41 798 c 24
 50 791 39 778 46 769 c 0
 66 744 108 716 108 716 c 1
 93 698 l 1
EndSplineSet
Validated: 37
EndChar

StartChar: W
Encoding: 87 87 22
Width: 796
Flags: W
HStem: -3 33<499.19 518.717> 35 40<337.011 367.903> 194 28<399.007 419.675> 385 37<311.327 335.902> 397 38<526.048 548.811> 416 53<2.38837 36.7166> 537 52<299.469 336.867> 608 30<549.049 574.993> 690 43<-26.8377 11.9891>
VStem: 2 35<416.146 439.99> 104 43<176.311 214.988> 203 34<699.007 724.763> 290 47<556 588.948> 305 31<398 421.949> 317 51<35.1003 73.4866> 386 34<194.053 221.627> 499 28<-2.65286 23.992> 526 23<397.098 414.992> 733 50<718.009 753.669>
LayerCount: 2
Fore
SplineSet
416 298 m 24xe3f120
 344 303 379 104 307 110 c 24
 219 117 189 217 157 319 c 24
 111 464 -11 714 115 717 c 24
 264 720 199 415 328 323 c 24
 386 282 351 532 414 506 c 24
 499 471 440 182 512 248 c 24
 650 374 568 911 681 751 c 24
 830 541 743 296 663 34 c 24
 637 -52 537 38 481 98 c 24
 430 153 483 294 416 298 c 24xe3f120
744 390 m 1
 795 375 l 1
 795 375 803 382 809 383 c 0
 814 384 819 383 822 379 c 0
 825 375 827 365 822 357 c 0
 818 351 812 346 805 347 c 24
 798 348 800 360 793 363 c 0
 774 371 740 373 740 373 c 1
 744 390 l 1
258 370 m 1
 305 398 l 1
 305 398 305 409 309 414 c 0
 312 418 316 423 321 422 c 0
 326 421 334 415 336 405 c 0
 337 398 336 390 330 385 c 24xf3f520
 324 380 318 390 311 387 c 0
 292 379 266 356 266 356 c 1
 258 370 l 1
375 279 m 1
 399 228 l 1
 399 228 409 226 414 222 c 0
 418 218 421 214 420 209 c 0
 419 204 413 195 404 194 c 0
 397 193 390 195 386 202 c 24
 382 209 391 214 389 222 c 0
 382 243 362 271 362 271 c 1
 375 279 l 1
566 64 m 1
 527 24 l 1
 527 24 530 13 527 7 c 0
 525 2 521 -3 516 -3 c 0
 511 -3 503 0 499 9 c 0xe3f1a0
 496 15 495 24 500 30 c 24
 505 36 513 28 519 33 c 0
 536 46 554 75 554 75 c 1
 566 64 l 1
610 427 m 1
 558 415 l 1
 558 415 554 404 549 400 c 0
 545 397 539 395 535 397 c 0
 531 399 525 407 526 417 c 0
 527 424 530 433 537 435 c 24xebf160
 544 437 547 426 555 427 c 0
 575 429 606 443 606 443 c 1
 610 427 l 1
187 647 m 1
 209 699 l 1
 209 699 203 708 203 715 c 0
 203 720 206 727 210 729 c 0
 214 731 223 732 230 725 c 0
 235 720 240 712 237 704 c 24
 234 696 224 701 220 694 c 0
 209 675 201 641 201 641 c 1
 187 647 l 1
614 569 m 1
 575 609 l 1
 575 609 565 606 559 608 c 0
 554 610 550 614 549 619 c 0
 548 624 550 633 559 638 c 0
 565 641 573 643 579 638 c 24
 585 633 577 624 582 618 c 0
 595 601 624 582 624 582 c 1
 614 569 l 1
655 115 m 1
 733 94 l 1
 733 94 744 106 753 107 c 0
 760 108 769 106 773 100 c 0
 777 94 781 81 773 69 c 0
 767 61 758 53 747 55 c 24
 736 57 739 73 729 77 c 0
 701 89 651 92 651 92 c 1
 655 115 l 1
220 516 m 1
 290 556 l 1
 290 556 290 571 296 579 c 0
 301 585 308 590 315 589 c 0
 322 588 335 580 337 566 c 0xe3f920
 339 556 337 543 328 537 c 24
 319 531 309 545 299 541 c 0
 271 529 233 497 233 497 c 1
 220 516 l 1
301 155 m 1
 337 82 l 1xe3f920
 337 82 352 81 359 75 c 0
 365 70 370 62 368 55 c 0
 366 48 359 37 345 35 c 0
 335 34 323 35 317 45 c 24xe3f320
 311 55 325 63 321 74 c 0
 311 103 281 143 281 143 c 1
 301 155 l 1
205 270 m 1
 147 215 l 1
 147 215 151 199 147 190 c 0
 144 183 138 177 131 176 c 0
 124 175 110 180 104 193 c 0
 100 202 98 214 106 223 c 24
 114 232 125 220 134 227 c 0
 159 245 188 286 188 286 c 1
 205 270 l 1
127 457 m 1
 49 440 l 1
 49 440 45 426 37 420 c 0
 31 416 22 413 16 416 c 0
 10 419 0 430 2 444 c 0
 3 454 8 466 19 469 c 24xe7f120
 30 472 34 456 45 457 c 0
 76 460 121 480 121 480 c 1
 127 457 l 1
708 644 m 1
 741 718 l 1
 741 718 733 730 733 740 c 0
 733 748 737 756 743 759 c 0
 749 762 763 764 773 754 c 0
 780 747 787 736 783 725 c 24
 779 714 764 721 758 711 c 0
 742 685 729 636 729 636 c 1
 708 644 l 1
70 636 m 1
 12 691 l 1
 12 691 -3 687 -12 690 c 0
 -19 693 -26 698 -27 705 c 0
 -28 712 -25 727 -12 733 c 0
 -3 737 9 740 18 733 c 24
 27 726 16 713 23 704 c 0
 42 680 85 653 85 653 c 1
 70 636 l 1
EndSplineSet
Validated: 37
EndChar

StartChar: X
Encoding: 88 88 23
Width: 900
Flags: W
HStem: -58 50<530.287 561.529> -23 25<777.007 793.814> -5 43<341.012 374.775> 127 33<448.048 467.857> 225 47<82.181 122.989> 318 26<264.334 284.994> 409 29<189.144 205.764> 530 24<491.256 512.993> 545 57<-24.3325 11.6712> 650 24<618.256 639.993> 684 56<862.515 901.642>
VStem: -25 37<545.193 570.988> 82 48<241.471 271.666> 156 28<733.006 754.811> 189 24<409.343 432.993> 264 25<327.237 343.809> 319 56<-4.18536 36.4404> 328 53<619.01 657.623> 448 20<127.097 141.993> 491 30<530.095 553.856> 530 45<-57.8267 -17.0124> 618 30<650.095 673.856> 749 26<243 255.739> 766 28<-22.948 0.674053> 859 43<704.012 739.637>
LayerCount: 2
Fore
SplineSet
669 614 m 1x1e7f3c80
 640 649 l 1
 640 649 630 647 625 650 c 0
 621 652 618 656 618 660 c 0
 618 664 621 671 629 674 c 0
 635 676 642 677 647 672 c 24
 652 667 645 661 648 656 c 0
 657 641 680 623 680 623 c 1
 669 614 l 1x1e7f3c80
543 494 m 1
 513 529 l 1
 513 529 503 527 498 530 c 0
 494 532 491 536 491 540 c 0
 491 544 494 551 502 554 c 0x1f7f3c80
 508 556 515 557 520 552 c 24
 525 547 518 541 521 536 c 0
 530 521 553 503 553 503 c 1
 543 494 l 1
175 688 m 24
 301 598 433 406 449 403 c 0
 463 400 611 619 758 699 c 24
 798 721 855 647 831 610 c 24
 745 474 524 331 524 331 c 0
 529 339 792 225 783 88 c 0
 776 -18 634 8 543 66 c 24
 473 111 468 289 468 289 c 0
 468 289 324 75 182 7 c 24
 135 -16 128 88 147 136 c 0
 188 239 378 347 378 347 c 0
 381 339 97 543 25 705 c 0
 1 758 128 722 175 688 c 24
781 573 m 1
 824 561 l 1
 824 561 830 567 835 568 c 0
 839 569 844 568 846 564 c 0
 848 560 851 552 846 545 c 0x1eff3c80
 843 540 837 535 831 536 c 24
 825 537 827 547 821 550 c 0
 805 557 778 559 778 559 c 1
 781 573 l 1
707 224 m 1
 749 243 l 1
 749 243 750 252 754 256 c 0
 757 259 761 262 765 261 c 0
 769 260 775 254 775 245 c 0x1e7f3e80
 775 239 774 231 768 228 c 24
 762 225 758 235 752 233 c 0
 735 228 712 211 712 211 c 1
 707 224 l 1
757 51 m 1
 777 7 l 1
 777 7 786 6 790 2 c 0
 793 -1 795 -6 794 -10 c 0
 793 -14 789 -22 781 -23 c 0
 776 -24 769 -22 766 -16 c 24x5e7f3d80
 763 -10 770 -6 768 1 c 0
 763 19 746 44 746 44 c 1
 757 51 l 1
245 467 m 1
 213 433 l 1
 213 433 215 423 213 418 c 0
 211 414 208 409 204 409 c 0
 200 409 192 411 189 419 c 0
 187 425 186 433 190 438 c 24
 194 443 201 436 206 440 c 0
 220 451 235 477 235 477 c 1
 245 467 l 1
518 153 m 1
 475 142 l 1
 475 142 472 133 468 130 c 0
 465 127 459 125 456 127 c 0
 452 129 447 136 448 145 c 0
 449 151 452 158 458 160 c 24
 464 162 466 152 472 153 c 0
 489 155 515 167 515 167 c 1
 518 153 l 1
142 688 m 1
 161 733 l 1
 161 733 156 741 156 747 c 0
 156 752 158 757 162 759 c 0
 166 761 173 761 179 755 c 0
 183 751 186 745 184 738 c 24
 182 731 173 735 170 729 c 0
 161 713 154 683 154 683 c 1
 142 688 l 1
318 285 m 1
 285 319 l 1
 285 319 277 316 272 318 c 0
 268 320 264 323 264 327 c 0
 264 331 265 340 272 344 c 0
 277 347 284 348 289 344 c 24
 294 340 288 332 292 327 c 0
 303 312 326 296 326 296 c 1
 318 285 l 1
614 430 m 1
 697 408 l 1
 697 408 708 420 718 421 c 0
 726 422 736 420 740 414 c 0
 744 408 749 393 740 380 c 0
 734 371 724 363 712 365 c 24
 700 367 703 384 692 389 c 0
 662 402 609 406 609 406 c 1
 614 430 l 1
778 662 m 1
 852 704 l 1
 852 704 853 721 859 729 c 0
 864 735 872 741 879 740 c 0
 886 739 900 731 902 716 c 0
 904 705 903 691 893 684 c 24
 883 677 873 693 862 688 c 0
 832 676 791 640 791 640 c 1
 778 662 l 1
303 124 m 1
 341 46 l 1
 341 46 357 45 365 38 c 0
 371 33 377 24 375 17 c 0
 373 9 364 -3 349 -5 c 0
 339 -6 325 -5 319 6 c 24x3e7fbc80
 313 17 329 25 325 37 c 0
 314 69 282 112 282 112 c 1
 303 124 l 1
637 43 m 1
 575 -17 l 1
 575 -17 579 -34 575 -43 c 0
 572 -51 566 -57 558 -58 c 0
 550 -59 536 -54 530 -40 c 0
 526 -30 523 -17 531 -8 c 24x9e7f3c80
 539 1 552 -11 562 -4 c 0
 589 16 619 61 619 61 c 1
 637 43 l 1
109 590 m 1
 26 571 l 1
 26 571 20 555 12 549 c 0
 5 544 -3 541 -10 545 c 0
 -17 549 -27 560 -25 575 c 0
 -24 586 -19 598 -7 602 c 24x1eff3c80
 5 606 9 589 21 590 c 0
 54 593 103 614 103 614 c 1
 109 590 l 1
301 540 m 1
 337 619 l 1
 337 619 328 633 328 643 c 0
 328 651 331 661 338 664 c 0
 345 667 360 669 371 658 c 0
 378 650 385 639 381 627 c 24
 377 615 360 622 354 612 c 0
 336 584 324 530 324 530 c 1x1f7f7c80
 301 540 l 1
185 167 m 1
 123 226 l 1
 123 226 108 221 98 225 c 0
 90 228 83 234 82 242 c 0
 81 250 84 265 98 272 c 0
 107 277 121 280 130 272 c 24
 139 264 128 251 136 241 c 0
 157 215 201 186 201 186 c 1
 185 167 l 1
EndSplineSet
Validated: 37
EndChar

StartChar: Y
Encoding: 89 89 24
Width: 817
Flags: W
HStem: -84 38<465.011 494.903> -63 44<217.286 245.576> 115 36<247.048 268.812> 206 34<534.327 557.947> 281 34<235.236 260.905> 353 27<643.007 662.833> 374 50<98.1201 131.717> 611 28<443.05 467.993> 678 40<-46.8917 -10.0102> 690 49<758.468 794.899>
VStem: 98 34<374.146 396.99> 217 41<-62.4001 -27.0109> 225 49<687.009 720.67> 234 27<281.402 306.992> 247 22<115.097 130.993> 443 29<620.283 638.809> 445 50<-83.9365 -47.4673> 528 30<218 239.95> 631 32<353.052 378.673> 684 31<777.007 800.764> 749 46<708 738.949>
LayerCount: 2
Fore
SplineSet
523 91 m 24x392078
 483 15 405 -39 322 -10 c 24
 256 14 319 98 313 167 c 24
 308 223 326 263 294 311 c 24
 211 435 102 460 31 591 c 0
 4 641 49 737 100 711 c 0
 456 530 342 335 390 345 c 0
 432 354 453 645 609 753 c 24
 673 798 760 658 735 585 c 0
 686 442 500 336 478 291 c 0
 442 219 560 162 523 91 c 24x392078
696 540 m 1
 745 526 l 1
 745 526 752 533 758 534 c 0
 763 535 768 534 771 530 c 0
 774 526 776 516 771 508 c 0
 767 503 761 498 754 499 c 24
 747 500 750 511 743 514 c 0
 725 522 693 524 693 524 c 1
 696 540 l 1
484 192 m 1
 528 218 l 1
 528 218 528 229 532 234 c 0
 535 238 540 241 544 240 c 0
 548 239 557 234 558 225 c 0
 559 218 558 210 552 206 c 24
 546 202 541 211 534 208 c 0
 516 200 492 178 492 178 c 1
 484 192 l 1
621 434 m 1
 643 385 l 1
 643 385 653 384 658 380 c 0
 662 377 664 372 663 367 c 0
 662 362 657 354 648 353 c 0x3d2078
 642 352 635 353 631 360 c 24
 627 367 636 372 634 379 c 0
 628 399 608 426 608 426 c 1
 621 434 l 1
298 344 m 1
 261 307 l 1
 261 307 263 296 261 290 c 0
 259 285 255 281 251 281 c 0
 247 281 238 283 234 292 c 0x392478
 232 298 230 306 235 312 c 24
 240 318 247 311 253 315 c 0
 269 327 287 355 287 355 c 1
 298 344 l 1
327 143 m 1
 277 131 l 1
 277 131 274 122 269 118 c 0
 265 115 260 113 256 115 c 0
 252 117 246 124 247 134 c 0x392278
 248 141 251 149 258 151 c 24x393078
 265 153 268 142 275 143 c 0
 294 145 323 158 323 158 c 1
 327 143 l 1
668 728 m 1
 689 777 l 1
 689 777 684 786 684 792 c 0
 684 797 686 803 690 805 c 0
 694 807 703 808 709 801 c 0
 713 796 717 789 715 782 c 24
 713 775 703 779 699 773 c 0
 689 755 681 722 681 722 c 1
 668 728 l 1
505 574 m 1
 468 611 l 1
 468 611 459 609 453 611 c 0
 449 613 444 616 443 621 c 0
 442 626 445 635 453 639 c 0
 459 642 466 644 472 639 c 24x392178
 478 634 470 626 475 620 c 0
 487 604 514 586 514 586 c 1
 505 574 l 1
504 140 m 1
 579 120 l 1
 579 120 590 130 599 131 c 0
 606 132 615 131 619 126 c 0
 623 120 627 107 619 96 c 0
 613 88 604 80 593 82 c 24
 582 84 585 100 575 104 c 0
 547 115 499 118 499 118 c 1
 504 140 l 1
681 671 m 1
 749 708 l 1
 749 708 749 723 755 730 c 0
 760 736 767 740 774 739 c 0x396078
 781 738 793 731 795 718 c 0x39a078
 797 709 795 696 786 690 c 24x396078
 777 684 768 698 758 694 c 0
 730 683 693 652 693 652 c 1
 681 671 l 1
430 29 m 1
 465 -39 l 1
 465 -39 480 -40 487 -46 c 0
 493 -51 497 -58 495 -65 c 0xb920f8
 493 -72 486 -83 472 -84 c 0xb92178
 462 -85 451 -83 445 -74 c 24xb920f8
 439 -65 454 -57 450 -47 c 0
 440 -19 410 18 410 18 c 1
 430 29 l 1
315 25 m 1
 258 -27 l 1
 258 -27 262 -42 258 -50 c 0
 255 -57 250 -63 243 -63 c 0
 236 -63 223 -60 217 -48 c 0
 213 -39 211 -27 218 -19 c 24x793078
 225 -11 237 -22 246 -16 c 0
 270 1 298 41 298 41 c 1
 315 25 l 1
220 413 m 1
 144 397 l 1
 144 397 140 383 132 378 c 0
 126 374 117 371 111 374 c 0
 105 377 96 388 98 401 c 0
 99 410 103 421 114 424 c 24x3b2078
 125 427 129 412 140 413 c 0
 170 415 214 435 214 435 c 1
 220 413 l 1
201 618 m 1
 234 687 l 1x392478
 234 687 225 699 225 708 c 0
 225 715 229 723 235 726 c 0
 241 729 255 731 265 721 c 0
 272 714 278 704 274 694 c 24x392878
 270 684 255 690 249 681 c 0
 233 656 222 610 222 610 c 1
 201 618 l 1
47 627 m 1
 -10 679 l 1
 -10 679 -24 675 -33 678 c 0
 -40 681 -46 685 -47 692 c 0
 -48 699 -45 712 -33 718 c 0
 -24 722 -12 725 -3 718 c 24x39a078
 6 711 -5 699 2 691 c 0
 21 668 62 643 62 643 c 1
 47 627 l 1
EndSplineSet
Validated: 37
EndChar

StartChar: Z
Encoding: 90 90 25
Width: 928
Flags: W
HStem: -53 41<702.01 729.875> 59 38<73.0476 91.8579> 264 30<254.229 274.994> 404 28<421.413 443.993> 448 33<843 855.809> 466 35<202.19 224.575> 563 54<27.4186 57.7634> 745 52<615.422 648.893> 762 43<64.1248 97.9905>
VStem: 27 42<567.288 588> 73 26<62.1918 76> 177 38<-44.6586 -6.01091> 201 23<466.494 492.992> 254 25<274.283 293.808> 305 44<808.009 844.669> 421 28<414.282 431.809> 613 36<764.011 796.731> 684 46<-52.899 -13.5134> 784 27<706.007 731.763> 832 29<448.052 474.627>
LayerCount: 2
Fore
SplineSet
574 521 m 0xf267f0
 568 583 322 467 174 521 c 24
 103 547 33 689 103 718 c 24
 297 799 429 754 632 711 c 24
 724 691 858 664 833 560 c 0
 793 393 445 251 441 237 c 0
 441 237 709 309 802 248 c 0
 851 215 891 99 836 83 c 24
 578 7 416 1 154 56 c 0
 93 69 163 147 163 147 c 0
 163 147 579 474 574 521 c 0xf267f0
847 143 m 1
 890 128 l 1
 890 128 896 135 901 136 c 0
 905 137 911 136 913 132 c 0
 915 128 917 118 912 110 c 0
 909 104 904 99 898 100 c 24
 892 101 894 113 888 116 c 0
 872 124 844 127 844 127 c 1
 847 143 l 1
478 370 m 1
 444 405 l 1
 444 405 435 402 430 404 c 0
 426 406 421 409 421 414 c 0
 421 419 423 428 431 432 c 0
 436 435 444 437 449 432 c 24
 454 427 448 420 452 414 c 0
 463 399 488 382 488 382 c 1
 478 370 l 1
824 532 m 1
 843 481 l 1
 843 481 852 480 856 476 c 0
 859 472 862 467 861 462 c 0
 860 457 856 449 848 448 c 0xfa67f0
 843 447 835 448 832 455 c 24
 829 462 837 467 835 475 c 0
 830 496 812 524 812 524 c 1
 824 532 l 1
257 532 m 1
 225 493 l 1
 225 493 226 482 224 476 c 0
 222 471 220 466 216 466 c 0
 212 466 204 468 201 477 c 0
 199 483 198 492 202 498 c 24
 206 504 213 496 218 501 c 0xf66ff0
 232 514 247 543 247 543 c 1
 257 532 l 1
143 89 m 1
 99 76 l 1
 99 76 96 66 92 62 c 0
 89 59 84 57 81 59 c 0
 77 61 72 69 73 79 c 0
 74 86 76 95 82 97 c 24
 88 99 91 87 97 88 c 0
 114 90 139 104 139 104 c 1
 143 89 l 1
770 655 m 1
 788 706 l 1
 788 706 784 715 784 722 c 0
 784 727 785 734 789 736 c 0
 793 738 800 739 806 732 c 0
 810 727 813 719 811 712 c 24
 809 705 800 709 797 702 c 0
 788 684 782 649 782 649 c 1
 770 655 l 1
308 226 m 1
 275 265 l 1
 275 265 267 262 262 264 c 0
 258 266 254 270 254 275 c 0
 254 280 255 290 262 294 c 0
 267 297 274 299 279 294 c 24
 284 289 278 280 282 274 c 0
 293 257 316 239 316 239 c 1
 308 226 l 1
643 387 m 1
 711 366 l 1
 711 366 721 377 729 378 c 0
 736 379 743 378 747 372 c 0
 751 366 754 352 747 340 c 0
 742 332 733 323 723 325 c 24
 713 327 716 344 707 348 c 0
 682 360 638 364 638 364 c 1
 643 387 l 1
546 723 m 1
 607 764 l 1
 607 764 608 779 613 787 c 0
 617 793 624 798 630 797 c 0
 636 796 647 788 649 774 c 0
 650 764 649 751 641 745 c 24xf367f0
 633 739 624 752 615 748 c 0
 590 736 557 703 557 703 c 1
 546 723 l 1
671 69 m 1
 702 -5 l 1
 702 -5 716 -6 722 -12 c 0
 727 -17 731 -25 730 -32 c 0
 729 -39 722 -51 709 -53 c 0
 700 -54 689 -52 684 -42 c 24
 679 -32 691 -24 688 -13 c 0
 679 17 653 57 653 57 c 1
 671 69 l 1
266 51 m 1
 215 -6 l 1
 215 -6 218 -21 215 -30 c 0xf277f0
 212 -37 207 -44 201 -45 c 0xf26ff0
 195 -46 182 -41 177 -28 c 0xf277f0
 174 -19 172 -6 179 3 c 24
 186 12 196 0 204 7 c 0
 226 26 251 67 251 67 c 1
 266 51 l 1
138 606 m 1
 69 588 l 1
 69 588 65 573 58 567 c 0
 53 563 45 560 39 563 c 0
 33 566 25 578 27 592 c 0
 28 602 32 614 42 617 c 24
 52 620 55 604 65 605 c 0
 92 608 133 629 133 629 c 1
 138 606 l 1
283 734 m 1
 313 808 l 1
 313 808 305 821 305 831 c 0
 305 839 308 847 314 850 c 0
 320 853 332 855 341 845 c 0
 347 838 352 827 349 816 c 24
 346 805 332 811 327 801 c 0
 312 774 302 725 302 725 c 1
 283 734 l 1
150 707 m 1
 98 763 l 1
 98 763 85 759 77 762 c 0
 71 765 65 770 64 777 c 0
 63 784 66 798 77 805 c 0
 85 810 96 812 104 805 c 24xf2e7f0
 112 798 102 786 108 777 c 0
 125 753 163 725 163 725 c 1
 150 707 l 1
EndSplineSet
Validated: 37
EndChar

StartChar: exclam
Encoding: 33 33 26
Width: 456
Flags: W
HStem: -9 45<255 271.761> 4 47<53.2834 84.9033> 199 23<92.1348 106.996> 250 25<291 299.857> 275 28<127.141 143.001> 434 29<83.0476 97.8594> 592 50<46.1026 72.7649> 780 40<86.0505 115.992>
VStem: 52 33<4.42162 39.9891 596.241 615> 83 20<437.144 448> 92 18<207.235 221.856> 126 17<275.396 295.994> 210 20<242.005 261.811> 239 40<-8.94513 27.5327> 283 21<250.051 270.719> 289 19<175 192.951> 304 38<808.009 841.67> 431 31<704.011 735.531>
LayerCount: 2
Fore
SplineSet
194 218 m 24x271c40
 227 221 252 202 268 166 c 24
 282 136 277 101 255 81 c 24
 215 45 177 20 132 44 c 24
 99 62 98 115 113 156 c 24
 128 198 157 215 194 218 c 24x271c40
189 297 m 24
 162 307 142 327 137 361 c 24
 119 503 101 592 133 731 c 24
 145 783 191 797 234 789 c 24
 305 776 389 773 398 684 c 24
 414 529 355 437 285 307 c 24
 264 268 225 284 189 297 c 24
370 533 m 1
 402 522 l 1
 402 522 406 527 410 528 c 0
 413 529 416 528 418 525 c 0
 420 522 421 514 418 508 c 0
 416 504 412 499 407 500 c 24
 402 501 404 511 400 513 c 0
 388 519 368 521 368 521 c 1
 370 533 l 1
261 153 m 1
 289 175 l 1
 289 175 289 183 291 187 c 0
 293 190 296 194 299 193 c 0
 302 192 307 188 308 180 c 0x271d40
 309 175 308 168 304 165 c 24x271cc0
 300 162 297 169 293 167 c 0
 281 161 266 143 266 143 c 1
 261 153 l 1
276 314 m 1
 291 275 l 1
 291 275 297 274 300 271 c 0
 302 268 305 265 304 261 c 0
 303 257 300 251 294 250 c 0
 290 249 285 250 283 255 c 24x371e40
 281 260 286 265 285 271 c 0
 281 287 268 308 268 308 c 1
 276 314 l 1
167 326 m 1
 143 296 l 1
 143 296 145 288 143 283 c 0
 142 279 140 275 137 275 c 0
 134 275 128 277 126 284 c 0
 124 289 124 296 127 301 c 24
 130 306 134 299 138 303 c 0x2f1c40
 148 313 160 335 160 335 c 1
 167 326 l 1
134 457 m 1
 103 448 l 1
 103 448 101 440 98 437 c 0
 95 435 92 432 89 434 c 0
 86 436 82 442 83 450 c 0x275c40
 84 455 86 461 90 463 c 24
 94 465 96 456 101 457 c 0
 113 458 132 469 132 469 c 1
 134 457 l 1
200 203 m 1
 214 242 l 1
 214 242 210 249 210 254 c 0
 210 258 211 263 214 265 c 0
 217 267 223 267 227 262 c 0
 230 258 232 252 230 246 c 24
 228 240 222 244 220 239 c 0
 213 225 209 198 209 198 c 1
 200 203 l 1
131 170 m 1
 107 200 l 1
 107 200 102 197 98 199 c 0
 95 200 92 204 92 208 c 0
 92 212 93 219 98 222 c 0
 102 224 106 226 110 222 c 24x273c40
 114 218 109 212 112 207 c 0
 120 194 137 180 137 180 c 1
 131 170 l 1
301 383 m 1
 360 363 l 1
 360 363 369 374 376 375 c 0
 382 376 389 374 392 369 c 0
 395 363 397 350 391 339 c 0
 387 331 380 324 371 326 c 24
 362 328 365 343 357 347 c 0
 335 358 297 362 297 362 c 1
 301 383 l 1
373 667 m 1
 426 704 l 1
 426 704 427 719 431 726 c 0
 435 732 440 737 445 736 c 0
 450 735 460 727 462 714 c 0
 463 705 462 693 455 687 c 24
 448 681 441 694 433 690 c 0
 411 679 382 648 382 648 c 1
 373 667 l 1
228 104 m 1
 255 36 l 1
 255 36 267 35 272 29 c 0
 276 24 280 18 279 11 c 0
 278 4 272 -8 261 -9 c 0xa71c40
 253 -10 243 -8 239 1 c 24
 235 10 246 18 243 28 c 0
 235 56 212 94 212 94 c 1
 228 104 l 1
129 92 m 1
 85 40 l 1
 85 40 88 25 85 17 c 0
 83 10 77 4 72 4 c 0
 67 4 56 7 52 19 c 0
 49 28 47 40 53 48 c 24
 59 56 68 45 75 51 c 0x679c40
 94 68 116 108 116 108 c 1
 129 92 l 1
143 632 m 1
 83 615 l 1x275c40
 83 615 79 601 73 596 c 0
 68 592 62 589 57 592 c 0
 52 595 45 606 46 619 c 0
 47 628 51 639 59 642 c 24
 67 645 70 630 79 631 c 0
 102 633 138 653 138 653 c 1
 143 632 l 1
284 739 m 1
 310 808 l 1
 310 808 304 820 304 829 c 0
 304 836 306 844 311 847 c 0
 316 850 326 852 334 842 c 0
 339 835 345 825 342 815 c 24x271cc0
 339 805 327 811 322 802 c 0
 309 777 301 731 301 731 c 1
 284 739 l 1
161 729 m 1
 116 781 l 1
 116 781 105 777 98 780 c 0
 93 783 87 787 86 794 c 0
 85 801 88 814 98 820 c 0
 105 824 114 827 121 820 c 24
 128 813 120 802 125 794 c 0
 140 771 172 746 172 746 c 1
 161 729 l 1
EndSplineSet
Validated: 37
EndChar

StartChar: quotedbl
Encoding: 34 34 27
Width: 493
Flags: W
HStem: 449 36<201.098 225.859> 498 20<340.002 348.906> 526 36<196.095 212.812 397.006 416.81> 600 34<194.009 219.743 408.142 429.623> 604 40<36.238 59.6704> 625 23<138 146.857> 660 30<280.514 300.993> 687 45<9.04836 36.7642> 807 20<76.1421 84.9956> 825 44<270.374 299.901> 863 36<89.0498 119.991>
VStem: 9 38<690.239 707> 36 34<604.417 635.991> 70 17<813.19 826.856> 131 19<625.051 643.766> 178 42<600.054 632.58> 201 25<449.234 474> 218 19<864.024 880.857> 257 14<616.048 631.904> 263 37<841 868.949> 272 15<455.026 469.906> 280 30<660.141 689.854> 303 32<426.056 452.811> 374 12<644.188 659.952> 401 29<619 632.716>
LayerCount: 2
Fore
SplineSet
259 493 m 24xe0020180
 246 494 247 530 255 552 c 24
 269 589 284 607 307 622 c 24
 331 637 352 650 367 624 c 24
 378 605 368 565 352 545 c 24
 319 505 294 491 259 493 c 24xe0020180
355 579 m 1
 397 556 l 1
 397 556 405 562 411 562 c 0
 415 562 420 560 422 555 c 0
 424 550 423 540 417 533 c 0
 413 528 406 523 400 526 c 24
 394 529 398 540 393 544 c 0
 378 555 349 563 349 563 c 1
 355 579 l 1
356 598 m 1
 401 619 l 1
 401 619 404 629 408 634 c 0xf0020180
 411 638 416 641 420 639 c 0
 424 637 431 631 430 621 c 0
 430 614 427 604 421 601 c 24
 415 598 412 609 405 607 c 0
 387 602 360 583 360 583 c 1
 356 598 l 1
309 515 m 1
 320 461 l 1
 320 461 329 458 332 453 c 0
 335 449 337 443 335 438 c 0
 333 433 326 426 318 426 c 0
 312 426 305 429 303 437 c 24xe0020380
 301 445 311 448 310 456 c 0xe0020580
 308 478 296 509 296 509 c 1
 309 515 l 1
270 507 m 1
 229 474 l 1
 229 474 229 463 226 457 c 0
 223 452 219 449 215 449 c 0
 211 449 203 454 201 464 c 0xe0028180
 200 471 200 480 206 485 c 24
 212 490 217 480 223 484 c 0
 240 494 262 520 262 520 c 1
 270 507 l 1
271 540 m 1xe002a180
 223 537 l 1
 223 537 218 527 213 524 c 0
 209 522 204 520 201 523 c 0
 198 526 193 535 196 545 c 0
 198 552 202 559 209 560 c 24
 216 561 216 550 223 549 c 0
 241 547 270 557 270 557 c 1
 271 540 l 1xe002a180
328 613 m 1
 301 658 l 1
 301 658 292 657 287 660 c 0xe2020980
 283 663 280 667 280 672 c 0
 280 677 285 687 293 690 c 0
 299 692 306 692 310 686 c 24
 314 680 307 673 310 666 c 0xe2020580
 318 647 339 623 339 623 c 1
 328 613 l 1
320 527 m 1
 340 515 l 1
 340 515 343 518 346 518 c 0
 348 518 350 517 351 515 c 0
 352 512 352 506 349 502 c 0
 347 499 344 497 341 498 c 24
 338 499 340 506 337 508 c 0
 330 514 317 518 317 518 c 1
 320 527 l 1
276 505 m 1
 280 474 l 1xe0020580
 280 474 285 473 286 470 c 0
 287 468 288 465 287 462 c 0
 286 459 283 455 279 455 c 0
 276 455 273 457 272 461 c 24
 271 465 275 468 275 472 c 0
 274 484 270 501 270 501 c 1
 276 505 l 1
360 616 m 1
 375 643 l 1
 375 643 373 649 374 653 c 0
 375 656 376 659 378 660 c 0
 380 661 384 661 386 656 c 0
 387 653 389 648 387 644 c 24xea020180
 385 640 381 643 379 640 c 0
 373 631 365 612 365 612 c 1
 360 616 l 1
278 590 m 1
 266 615 l 1
 266 615 262 614 260 616 c 0
 258 617 257 619 257 622 c 0xe0022180
 257 625 259 630 263 632 c 0xe0021180
 266 633 269 634 271 631 c 24
 273 628 270 623 271 619 c 0xe0022180
 275 609 284 596 284 596 c 1
 278 590 l 1
105 664 m 24
 87 663 81 704 86 732 c 24
 95 778 110 803 137 825 c 24xe1420180
 165 848 189 866 216 840 c 24
 236 821 232 771 216 745 c 24
 182 691 152 669 105 664 c 24
211 785 m 1
 273 767 l 1
 273 767 282 777 290 778 c 0
 296 779 303 777 306 772 c 0
 309 767 313 756 306 746 c 0
 301 739 293 732 284 734 c 24
 275 736 278 749 270 753 c 0
 247 763 207 766 207 766 c 1
 211 785 l 1
207 808 m 1
 263 841 l 1
 263 841 263 854 268 860 c 0
 272 865 277 870 283 869 c 0
 289 868 298 862 300 850 c 0xe0421180
 301 842 301 830 293 825 c 24
 285 820 278 832 270 828 c 0
 247 818 217 791 217 791 c 1
 207 808 l 1
166 701 m 1
 194 640 l 1
 194 640 207 639 213 634 c 0
 218 630 221 624 220 618 c 0xf0030180
 219 612 212 601 201 600 c 0xf0028180
 193 599 183 601 178 609 c 24xf0030180
 173 617 185 624 182 633 c 0
 174 658 150 692 150 692 c 1
 166 701 l 1
117 683 m 1
 70 636 l 1xe8060180
 70 636 73 623 70 616 c 0
 68 610 63 604 57 604 c 0
 51 604 41 607 36 618 c 0
 33 626 32 637 38 644 c 24xe80a0180
 44 651 53 641 60 647 c 0
 80 662 103 697 103 697 c 1
 117 683 l 1
110 722 m 1
 47 707 l 1
 47 707 43 695 37 690 c 0xe2120180
 32 686 25 684 20 687 c 0
 15 690 7 699 9 711 c 0
 10 719 13 729 22 732 c 24xe1120180
 31 735 35 721 44 722 c 0
 69 724 105 741 105 741 c 1
 110 722 l 1
167 818 m 1
 120 864 l 1
 120 864 108 860 101 863 c 0
 95 865 90 870 89 876 c 0
 88 882 91 894 101 899 c 0
 108 903 118 905 125 899 c 24xe0220180
 132 893 123 882 129 875 c 0
 145 855 179 833 179 833 c 1
 167 818 l 1
178 717 m 1xe0030180
 207 707 l 1
 207 707 211 712 215 713 c 0
 218 713 221 713 223 710 c 0
 225 707 226 701 223 695 c 0
 221 691 217 687 213 688 c 24
 209 689 210 697 206 699 c 0
 195 705 176 706 176 706 c 1
 178 717 l 1xe0030180
125 682 m 1
 138 648 l 1xe4020180
 138 648 144 647 147 644 c 0xe8020180
 149 642 151 638 150 635 c 0
 149 632 146 626 141 625 c 0xe4020180
 137 625 133 625 131 630 c 24
 129 635 134 639 133 644 c 0xe8020180
 129 658 118 676 118 676 c 1
 125 682 l 1
209 829 m 1
 221 864 l 1
 221 864 218 869 218 874 c 0
 218 878 220 882 222 883 c 0
 224 884 229 886 233 881 c 0
 236 878 238 872 237 867 c 24
 236 862 230 866 228 861 c 0
 222 849 217 825 217 825 c 1xe0424180
 209 829 l 1
107 781 m 1
 85 807 l 1
 85 807 79 805 76 807 c 0
 73 808 70 811 70 814 c 0
 70 817 71 824 76 827 c 0
 79 829 84 830 87 827 c 24xe0860180
 90 824 86 817 89 813 c 0
 96 802 112 789 112 789 c 1
 107 781 l 1
EndSplineSet
Validated: 37
EndChar

StartChar: numbersign
Encoding: 35 35 28
Width: 884
Flags: W
HStem: -97 46<278.013 313.543> 5 43<508.048 532.81> 125 54<11.3347 45.4829> 152 40<459.238 487.905> 209 107<337 565.065> 223 98<341.206 569> 254 51<677.876 830.654> 316 41<794.327 819.902> 335 61<32.6467 71.6697> 379 38<475 490.761> 443 108<362 574.44> 488 51<690.783 836.654> 545 35<53.0491 79.992> 629 59<748.561 790.104> 681 49<98.7324 142.988>
VStem: 11 50<125.818 168.988> 31 41<335.193 362.988> 254 60<-95.9366 -52.561> 347 58<803.011 828.459> 411 35<605.007 633.717> 458 30<152.423 181.991> 460 37<379.053 409.58> 508 34<9.19328 25> 569 8<-1.4397 46.7969> 737 54<650 687.386> 787 33<330 356.949>
LayerCount: 2
Fore
SplineSet
121 502 m 1xc00873
 80 546 l 1
 80 546 69 542 63 545 c 0
 58 547 54 552 53 558 c 0
 52 564 54 575 63 580 c 0
 69 584 79 586 85 580 c 24
 91 574 83 564 88 557 c 0
 102 538 132 516 132 516 c 1
 121 502 l 1xc00873
393 546 m 1
 417 605 l 1
 417 605 411 615 411 623 c 0
 411 629 413 636 418 638 c 0
 423 640 433 642 440 634 c 0
 445 628 449 619 446 610 c 24
 443 601 433 607 429 599 c 0
 417 578 409 539 409 539 c 1xc01073
 393 546 l 1
597 39 m 1
 542 25 l 1
 542 25 539 13 533 9 c 0
 529 5 522 2 518 5 c 0
 514 8 507 17 508 28 c 0
 509 36 512 45 520 48 c 24
 528 51 531 38 539 39 c 0
 561 41 593 57 593 57 c 1
 597 39 l 1
529 227 m 1
 489 182 l 1
 489 182 491 170 488 163 c 0
 486 157 482 152 477 152 c 0
 472 152 462 154 458 165 c 0
 455 172 454 182 459 189 c 24
 464 196 474 187 480 192 c 0xd0007b
 498 207 517 240 517 240 c 1
 529 227 l 1
450 475 m 1
 475 417 l 1
 475 417 486 416 491 411 c 0
 495 407 498 401 497 395 c 0
 496 389 490 380 480 379 c 0
 473 378 464 379 460 387 c 24xc04077
 456 395 467 401 464 410 c 0
 457 434 435 466 435 466 c 1
 450 475 l 1
738 299 m 1
 787 330 l 1xc1007340
 787 330 787 343 791 349 c 0xc1007380
 794 354 800 358 805 357 c 0
 810 356 818 350 820 339 c 0
 821 331 821 321 814 316 c 24xc1007340
 807 311 801 321 794 318 c 0
 774 309 746 283 746 283 c 1
 738 299 l 1
286 160 m 1
 340 143 l 1
 340 143 348 152 355 153 c 0
 360 154 366 153 369 148 c 0
 372 143 375 131 369 122 c 0
 365 115 358 109 350 111 c 24
 342 113 345 125 338 129 c 0
 318 139 282 141 282 141 c 1
 286 160 l 1
211 618 m 1
 143 682 l 1
 143 682 126 677 116 681 c 0
 108 684 99 690 98 698 c 0
 97 706 101 723 116 730 c 0
 126 735 141 738 151 730 c 24xc00273
 161 722 149 707 157 697 c 0
 180 669 228 639 228 639 c 1
 211 618 l 1
318 719 m 1
 357 803 l 1
 357 803 347 818 347 829 c 0
 347 838 351 847 358 851 c 0
 365 855 382 856 394 844 c 0
 402 836 410 823 405 811 c 24
 400 799 383 806 376 795 c 0
 357 765 343 709 343 709 c 1
 318 719 l 1
177 383 m 1
 87 363 l 1
 87 363 81 346 72 340 c 0
 65 335 55 331 48 335 c 0
 41 339 29 351 31 367 c 0
 33 378 38 392 51 396 c 24xc080f3
 64 400 68 382 81 383 c 0
 117 386 170 409 170 409 c 1
 177 383 l 1
128 233 m 1
 61 169 l 1
 61 169 65 152 61 142 c 0
 57 134 50 126 42 125 c 0
 34 124 18 129 11 144 c 0
 6 154 4 169 13 179 c 24xe00173
 22 189 35 175 46 183 c 0
 75 204 108 252 108 252 c 1
 128 233 l 1
237 41 m 1
 278 -42 l 1
 278 -42 296 -44 304 -51 c 0
 311 -57 316 -65 314 -73 c 0
 312 -81 303 -95 287 -97 c 0
 276 -98 261 -96 254 -85 c 24
 247 -74 264 -64 260 -52 c 0
 249 -18 213 28 213 28 c 1
 237 41 l 1
656 604 m 1
 737 650 l 1
 737 650 737 668 744 677 c 0
 749 684 758 689 766 688 c 0
 774 687 788 678 791 662 c 0
 793 651 792 636 781 629 c 24xc0047380
 770 622 760 638 748 633 c 0
 715 620 671 582 671 582 c 1
 656 604 l 1
640 135 m 1
 730 111 l 1
 730 111 742 124 753 125 c 0xe00073
 762 126 772 125 777 118 c 0
 782 111 787 95 777 82 c 0
 770 73 759 63 746 65 c 24
 733 67 737 86 725 91 c 0
 692 105 634 109 634 109 c 1
 640 135 l 1
323 764 m 0
 372 721 370 639 362 551 c 1xc22073
 447 555 518 556 586 555 c 1
 588 579 591 603 594 628 c 0
 605 726 637 827 667 777 c 0
 695 731 693 643 689 550 c 1
 727 547 767 544 809 539 c 0
 861 533 884 497 825 488 c 0
 775 480 729 474 685 468 c 1
 682 412 680 363 676 317 c 1
 716 314 758 310 803 305 c 0
 855 299 878 263 819 254 c 0xc21073
 765 246 715 239 668 233 c 1
 660 154 648 81 629 -6 c 0
 618 -57 580 -78 577 -18 c 0
 572 71 569 149 569 223 c 1xc40073
 485 215 404 210 316 209 c 1xc80073
 302 147 283 87 254 18 c 0
 234 -30 167 -50 161 7 c 0
 153 82 148 148 147 211 c 1
 58 216 -23 236 19 268 c 0
 47 289 93 299 148 305 c 1xc20073
 150 351 154 397 160 444 c 1
 68 448 -18 470 25 502 c 0
 56 525 111 535 175 541 c 1
 180 567 186 594 192 622 c 0
 212 716 269 811 323 764 c 0
578 456 m 1
 502 449 430 445 352 443 c 1
 347 397 343 355 337 316 c 1xc82073
 427 320 499 322 570 321 c 1xc40073
 571 365 575 410 578 456 c 1
EndSplineSet
Validated: 37
EndChar

StartChar: dollar
Encoding: 36 36 29
Width: 845
Flags: W
HStem: -76 47<168.049 196.764> -59 36<539.009 564.742> 54 42<104.239 128.624> 238 36<-14.9524 5.81178> 283 35<278.281 300.948> 373 32<808 821.808> 379 35<657.235 680.906> 423 46<554.42 585.9> 695 38<98.0505 130.991> 799 29<476.049 499.993>
VStem: -15 29<240.192 254> 104 35<54.5797 87.9905> 141 30<389.006 413.763> 168 40<-72.7598 -55> 236 106<-145.264 -68.3818> 273 28<295 317.951> 522 43<-58.9451 -24.4658> 547 39<439 468.949> 562 27<836.945 850.938> 656 25<379.609 404.993> 662 42<696.008 727.716> 795 32<373.052 399.673>
LayerCount: 2
Fore
SplineSet
562 852 m 24x39f224
 591 887 599 780 589 734 c 24
 512 395 464 204 342 -119 c 24
 329 -154 291 -157 257 -148 c 24
 236 -142 230 -114 236 -92 c 24
 297 156 425 535 425 535 c 1
 425 535 478 750 562 852 c 24x39f224
273 63 m 0x39f10c
 273 63 138 98 55 253 c 0
 36 289 56 336 80 368 c 0
 130 435 309 148 487 185 c 0
 517 191 559 198 553 231 c 0
 544 277 255 394 142 576 c 0
 106 634 215 722 280 726 c 24
 464 738 561 701 726 613 c 0
 789 579 846 444 777 426 c 0
 632 388 365 725 329 568 c 24
 287 384 623 337 721 181 c 0
 746 141 744 80 704 60 c 0
 611 14 395 36 395 36 c 0
 273 63 l 0x39f10c
307 590 m 1
 354 576 l 1
 354 576 361 583 367 584 c 0
 372 585 377 584 379 580 c 0
 382 576 384 566 379 558 c 0
 376 552 370 548 363 549 c 24
 356 550 358 561 352 564 c 0
 335 572 304 574 304 574 c 1
 307 590 l 1
230 268 m 1
 273 295 l 1
 273 295 272 306 276 311 c 0
 279 315 284 319 288 318 c 0
 292 317 300 313 301 303 c 0
 302 296 302 287 296 283 c 24
 290 279 284 288 278 285 c 0
 261 277 238 255 238 255 c 1
 230 268 l 1
786 455 m 1
 808 405 l 1
 808 405 818 404 822 400 c 0
 825 397 828 392 827 387 c 0
 826 382 822 374 813 373 c 0x3df004
 807 372 799 373 795 380 c 24
 791 387 800 393 798 400 c 0
 792 420 774 447 774 447 c 1
 786 455 l 1
717 443 m 1
 682 405 l 1x3df014
 682 405 683 395 681 389 c 0
 679 384 676 379 672 379 c 0
 668 379 659 382 656 391 c 0
 654 397 652 405 657 411 c 24
 662 417 668 409 674 414 c 0x3bf014
 689 426 707 454 707 454 c 1
 717 443 l 1
61 266 m 1
 14 254 l 1
 14 254 11 244 6 240 c 0
 2 237 -3 236 -7 238 c 0
 -11 240 -16 247 -15 257 c 0
 -14 264 -12 272 -5 274 c 24
 2 276 4 265 11 266 c 0
 30 268 58 282 58 282 c 1
 61 266 l 1
126 339 m 1
 146 389 l 1
 146 389 141 397 141 404 c 0
 141 409 143 416 147 418 c 0
 151 420 160 421 166 414 c 0
 170 409 173 401 171 394 c 24x3bf804
 169 387 160 392 156 385 c 0
 146 367 139 333 139 333 c 1
 126 339 l 1
535 762 m 1
 500 800 l 1
 500 800 490 797 485 799 c 0
 481 801 477 804 476 809 c 0
 475 814 477 824 485 828 c 0
 490 831 498 833 503 828 c 24
 508 823 503 815 507 809 c 0
 519 793 544 774 544 774 c 1
 535 762 l 1
710 135 m 1
 774 116 l 1
 774 116 783 126 791 127 c 0
 797 128 805 127 808 122 c 0
 811 117 815 105 808 94 c 0
 803 87 795 79 786 81 c 24
 777 83 780 97 771 101 c 0
 747 112 705 115 705 115 c 1
 710 135 l 1
488 404 m 1
 547 439 l 1
 547 439 547 453 552 460 c 0
 556 465 561 470 567 469 c 0
 573 468 584 462 586 449 c 0x39f044
 587 440 586 429 578 423 c 24
 570 417 563 430 554 426 c 0
 530 416 499 386 499 386 c 1
 488 404 l 1
509 49 m 1
 539 -16 l 1
 539 -16 551 -17 557 -23 c 0
 562 -27 566 -34 565 -40 c 0
 564 -46 557 -58 545 -59 c 0
 537 -60 527 -58 522 -49 c 24x79f084
 517 -40 529 -34 526 -24 c 0
 518 2 492 39 492 39 c 1
 509 49 l 1
188 138 m 1
 139 88 l 1
 139 88 142 75 139 67 c 0
 136 61 132 54 126 54 c 0
 120 54 109 57 104 69 c 0
 101 77 99 88 105 96 c 24
 111 104 121 93 129 99 c 0
 150 115 173 153 173 153 c 1
 188 138 l 1
273 -39 m 1xb9f504
 208 -55 l 1
 208 -55 203 -68 197 -73 c 0
 192 -77 185 -79 180 -76 c 0
 175 -73 166 -64 168 -51 c 0
 169 -42 173 -32 182 -29 c 24
 191 -26 195 -40 204 -39 c 0
 230 -37 268 -19 268 -19 c 1
 273 -39 l 1xb9f504
641 630 m 1
 669 696 l 1
 669 696 662 707 662 716 c 0
 662 723 665 730 670 733 c 0
 675 736 688 737 696 728 c 0
 702 722 707 712 704 702 c 24x39f00c
 701 692 688 699 683 690 c 0
 669 667 659 622 659 622 c 1
 641 630 l 1
179 646 m 1
 131 696 l 1
 131 696 118 692 111 695 c 0
 105 697 99 703 98 709 c 0
 97 715 100 727 111 733 c 0
 118 737 129 739 136 733 c 24
 143 727 134 716 140 708 c 0
 156 686 192 662 192 662 c 1
 179 646 l 1
EndSplineSet
Validated: 37
EndChar

StartChar: percent
Encoding: 37 37 30
Width: 770
Flags: W
HStem: -21 44<19.2402 45.6228> 81 34<446.048 467.812> 245 33<699.327 721.948> 275 41<473.051 507.991> 289 28<121.049 144.993> 473 38<263.01 290.949> 499 33<88.2358 112.905> 511 26<643.007 661.951> 564 51<-16.7738 14.718> 741 50<278.422 311.9>
VStem: -17 43<568.241 587> 19 38<-20.4001 14.9891> 87 26<499.339 523.993> 144 31<780.006 802.764> 245 46<473.054 509.533> 276 36<759.011 790.742> 446 22<81.0974 95.9935> 597 45<786.009 819.67> 630 32<511.051 535.673> 693 29<257 277.95>
LayerCount: 2
Fore
SplineSet
665 97 m 24xc0cc90
 629 57 583 42 536 65 c 24
 490 88 467 137 477 191 c 24
 486 240 526 265 573 271 c 24
 615 276 648 254 669 215 c 24
 691 175 695 130 665 97 c 24xc0cc90
263 577 m 24
 227 537 181 522 134 545 c 24
 88 568 64 616 74 670 c 24
 83 719 123 744 170 750 c 24
 212 755 245 733 266 694 c 24
 288 654 293 610 263 577 c 24
284 412 m 0
 391 528 423 639 552 725 c 0
 598 756 684 778 689 721 c 0
 700 605 607 572 534 485 c 24
 377 299 330 132 111 40 c 0
 40 10 146 242 146 242 c 0
 146 242 219 341 284 412 c 0
461 436 m 1
 509 422 l 1
 509 422 516 429 522 430 c 0
 527 431 532 430 535 426 c 0
 538 422 540 414 535 406 c 0
 531 401 525 395 518 396 c 24
 511 397 514 408 507 411 c 0
 489 419 458 421 458 421 c 1
 461 436 l 1
650 231 m 1
 693 257 l 1
 693 257 693 267 697 272 c 0
 700 276 705 279 709 278 c 0
 713 277 721 272 722 263 c 0
 723 257 723 249 717 245 c 24xe0cc90
 711 241 706 250 699 247 c 0
 681 240 657 218 657 218 c 1
 650 231 l 1
621 589 m 1
 643 542 l 1
 643 542 653 541 657 537 c 0
 661 534 663 528 662 524 c 0
 661 519 657 512 648 511 c 0
 642 510 634 512 630 518 c 24xc1ccb0
 626 524 635 529 633 536 c 0
 627 555 608 581 608 581 c 1
 621 589 l 1
150 560 m 1
 113 524 l 1
 113 524 115 514 113 508 c 0
 111 503 107 499 103 499 c 0
 99 499 91 501 87 510 c 0
 85 516 83 523 88 529 c 24
 93 535 100 528 106 532 c 0xc2cc90
 122 544 139 570 139 570 c 1
 150 560 l 1
525 108 m 1
 476 96 l 1
 476 96 473 87 468 83 c 0
 464 80 459 79 455 81 c 0
 451 83 445 90 446 99 c 0
 447 105 450 113 457 115 c 24
 464 117 466 106 473 107 c 0
 492 109 521 122 521 122 c 1
 525 108 l 1
128 732 m 1
 149 780 l 1
 149 780 144 788 144 794 c 0
 144 799 146 805 150 807 c 0
 154 809 163 810 169 803 c 0
 173 798 177 791 175 784 c 24
 173 777 163 781 159 775 c 0
 149 758 142 726 142 726 c 1
 128 732 l 1
182 254 m 1
 145 290 l 1
 145 290 136 287 130 289 c 0
 126 291 122 294 121 299 c 0
 120 304 122 313 130 317 c 0
 136 320 143 322 149 317 c 24xc8cc90
 155 312 148 305 152 299 c 0
 164 283 191 266 191 266 c 1
 182 254 l 1
653 125 m 1
 723 105 l 1
 723 105 733 115 742 116 c 0
 749 117 756 117 760 111 c 0
 764 105 767 91 760 80 c 0
 755 72 746 65 736 67 c 24
 726 69 728 84 719 88 c 0
 693 99 649 103 649 103 c 1
 653 125 l 1
207 721 m 1
 270 759 l 1
 270 759 271 774 276 781 c 0
 280 787 287 792 293 791 c 0
 299 790 310 783 312 769 c 0xc0cd90
 313 760 312 747 304 741 c 24
 296 735 287 749 278 745 c 0
 252 734 218 702 218 702 c 1
 207 721 l 1
231 587 m 1
 263 518 l 1
 263 518 277 517 283 511 c 0
 288 506 292 499 291 492 c 0
 290 485 283 474 270 473 c 0
 261 472 250 474 245 483 c 24xc4ce90
 240 492 252 500 249 510 c 0
 240 538 213 576 213 576 c 1
 231 587 l 1
110 69 m 1
 57 15 l 1
 57 15 60 0 57 -8 c 0
 54 -15 49 -21 43 -21 c 0
 37 -21 24 -18 19 -5 c 0xc0dc90
 15 4 13 15 20 23 c 24
 27 31 38 21 46 27 c 0
 68 44 94 84 94 84 c 1
 110 69 l 1
97 604 m 1
 26 587 l 1
 26 587 22 573 15 568 c 0
 9 564 2 561 -4 564 c 0
 -10 567 -19 577 -17 591 c 0xc0ec90
 -16 600 -12 612 -2 615 c 24
 8 618 12 603 22 604 c 0
 50 606 91 626 91 626 c 1
 97 604 l 1
574 716 m 1
 605 786 l 1
 605 786 597 798 597 807 c 0
 597 814 600 822 606 825 c 0
 612 828 624 830 633 820 c 0
 639 813 646 803 642 793 c 24xc0ccd0
 638 783 624 788 619 779 c 0
 604 754 594 707 594 707 c 1
 574 716 l 1
561 223 m 1
 508 276 l 1
 508 276 495 272 487 275 c 0
 481 278 474 283 473 290 c 0
 472 297 475 310 487 316 c 0
 495 320 506 323 514 316 c 24xd0cc90
 522 309 513 297 519 289 c 0xc8cc90
 537 266 574 240 574 240 c 1
 561 223 l 1
EndSplineSet
Validated: 37
EndChar

StartChar: zero
Encoding: 48 48 31
Width: 1040
Flags: W
HStem: 17 46<1693.01 1729.79> 34 46<-355.986 -319.468> 81 54<1167.33 1201.48> 98 54<-881.665 -847.517> 368 61<1057.63 1096.67> 385 61<-991.577 -952.33> 552 59<1784.56 1827.05> 569 60<-264.439 -221.949> 632 49<1065.57 1109.99> 649 50<-983.43 -939.013>
VStem: -882 49<98.8177 141.988> -505 57<741.011 766.459> -379 60<35.3403 78.439> -275 54<591 628.386> 1056 41<368.193 395.987> 1167 49<81.8005 124.987> 1543 58<723.011 764.621> 1670 60<18.2344 61.439> 1781 47<573.013 610.386>
LayerCount: 2
Fore
SplineSet
1748 329 m 5x003fe0
 1837 304 l 5
 1837 304 1850 317 1861 318 c 4
 1870 319 1880 318 1885 311 c 4
 1890 304 1895 288 1885 275 c 4
 1878 266 1867 257 1854 259 c 28
 1841 261 1845 280 1833 285 c 4
 1800 299 1742 302 1742 302 c 5
 1748 329 l 5x003fe0
1693 528 m 5
 1773 573 l 5
 1773 573 1774 591 1781 600 c 4
 1786 607 1795 612 1803 611 c 4
 1811 610 1825 601 1828 585 c 4
 1830 574 1828 559 1817 552 c 28x023fe0
 1806 545 1796 561 1784 556 c 4
 1751 543 1707 505 1707 505 c 5
 1693 528 l 5
1652 154 m 5
 1693 71 l 5
 1693 71 1711 70 1719 63 c 4
 1726 57 1732 48 1730 40 c 4
 1728 32 1718 19 1702 17 c 4x803fe0
 1691 16 1677 18 1670 29 c 28
 1663 40 1679 50 1675 62 c 4
 1664 96 1629 141 1629 141 c 5
 1652 154 l 5
1284 189 m 5
 1217 125 l 5
 1217 125 1220 107 1216 97 c 4
 1212 89 1206 82 1198 81 c 4
 1190 80 1174 85 1167 100 c 4
 1162 110 1160 125 1169 135 c 28x203fe0
 1178 145 1191 131 1202 139 c 4
 1231 160 1264 207 1264 207 c 5
 1284 189 l 5
1202 416 m 5
 1111 396 l 5
 1111 396 1106 378 1097 372 c 4
 1090 367 1079 364 1072 368 c 4
 1065 372 1054 384 1056 400 c 4
 1058 411 1063 425 1076 429 c 28x083fe0
 1089 433 1093 414 1106 415 c 4
 1142 418 1195 442 1195 442 c 5
 1202 416 l 5
1514 639 m 5
 1553 723 l 5
 1553 723 1543 738 1543 749 c 4
 1543 758 1547 767 1554 771 c 4
 1561 775 1578 777 1590 765 c 4
 1598 757 1606 744 1601 732 c 28
 1596 720 1579 727 1572 716 c 4
 1553 686 1539 629 1539 629 c 5x013fe0
 1514 639 l 5
1178 569 m 5
 1110 633 l 5
 1110 633 1092 628 1082 632 c 4x01bfe0
 1074 635 1066 641 1065 649 c 4x007fe0
 1064 657 1067 674 1082 681 c 4
 1092 686 1107 689 1117 681 c 28x00bfe0
 1127 673 1115 658 1123 648 c 4
 1146 620 1195 590 1195 590 c 5
 1178 569 l 5
-301 346 m 1
 -211 322 l 1
 -211 322 -199 335 -188 336 c 0
 -179 337 -169 336 -164 329 c 0
 -159 322 -154 306 -164 293 c 0
 -171 284 -182 274 -195 276 c 24
 -208 278 -204 297 -216 302 c 0
 -249 316 -307 320 -307 320 c 1
 -301 346 l 1
-356 545 m 1
 -275 591 l 1
 -275 591 -275 608 -268 617 c 0
 -263 624 -254 630 -246 629 c 0
 -238 628 -224 619 -221 603 c 0
 -219 592 -221 576 -232 569 c 24
 -243 562 -253 578 -265 573 c 0
 -298 560 -342 522 -342 522 c 1
 -356 545 l 1
-397 172 m 1
 -356 89 l 1
 -356 89 -337 87 -329 80 c 0
 -322 74 -317 66 -319 58 c 0
 -321 50 -331 36 -347 34 c 0x403fe0
 -358 33 -372 35 -379 46 c 24
 -386 57 -370 67 -374 79 c 0
 -385 113 -420 159 -420 159 c 1
 -397 172 l 1
-765 207 m 1
 -832 142 l 1
 -832 142 -829 125 -833 115 c 0
 -837 107 -843 99 -851 98 c 0
 -859 97 -875 102 -882 117 c 0
 -887 127 -889 142 -880 152 c 24x103fe0
 -871 162 -858 149 -847 157 c 0
 -818 178 -785 225 -785 225 c 1
 -765 207 l 1
-847 433 m 1
 -938 413 l 1
 -938 413 -943 396 -952 390 c 0
 -959 385 -969 381 -976 385 c 0
 -983 389 -995 402 -993 418 c 0
 -991 429 -986 442 -973 446 c 24x043fe0
 -960 450 -956 432 -943 433 c 0
 -907 436 -854 459 -854 459 c 1
 -847 433 l 1
-535 657 m 1
 -496 741 l 1
 -496 741 -505 756 -505 767 c 0
 -505 776 -501 785 -494 789 c 0
 -487 793 -471 794 -459 782 c 0
 -451 774 -443 761 -448 749 c 24
 -453 737 -470 744 -477 733 c 0
 -496 703 -510 647 -510 647 c 1
 -535 657 l 1
-871 587 m 1
 -939 650 l 1
 -939 650 -957 645 -967 649 c 0
 -975 652 -983 659 -984 667 c 0
 -985 675 -982 692 -967 699 c 0
 -957 704 -942 707 -932 699 c 24x007fe0
 -922 691 -934 676 -926 666 c 0
 -903 638 -854 607 -854 607 c 1
 -871 587 l 1
EndSplineSet
Validated: 33
EndChar

StartChar: one
Encoding: 49 49 32
Width: 1040
Flags: W
HStem: 17 46<1693.01 1729.79> 34 46<-355.986 -319.468> 81 54<1167.33 1201.48> 98 54<-881.665 -847.517> 368 61<1057.63 1096.67> 385 61<-991.577 -952.33> 552 59<1784.56 1827.05> 569 60<-264.439 -221.949> 632 49<1065.57 1109.99> 649 50<-983.43 -939.013>
VStem: -882 49<98.8177 141.988> -505 57<741.011 766.459> -379 60<35.3403 78.439> -275 54<591 628.386> 1056 41<368.193 395.987> 1167 49<81.8005 124.987> 1543 58<723.011 764.621> 1670 60<18.2344 61.439> 1781 47<573.013 610.386>
LayerCount: 2
Fore
SplineSet
1748 329 m 5x003fe0
 1837 304 l 5
 1837 304 1850 317 1861 318 c 4
 1870 319 1880 318 1885 311 c 4
 1890 304 1895 288 1885 275 c 4
 1878 266 1867 257 1854 259 c 28
 1841 261 1845 280 1833 285 c 4
 1800 299 1742 302 1742 302 c 5
 1748 329 l 5x003fe0
1693 528 m 5
 1773 573 l 5
 1773 573 1774 591 1781 600 c 4
 1786 607 1795 612 1803 611 c 4
 1811 610 1825 601 1828 585 c 4
 1830 574 1828 559 1817 552 c 28x023fe0
 1806 545 1796 561 1784 556 c 4
 1751 543 1707 505 1707 505 c 5
 1693 528 l 5
1652 154 m 5
 1693 71 l 5
 1693 71 1711 70 1719 63 c 4
 1726 57 1732 48 1730 40 c 4
 1728 32 1718 19 1702 17 c 4x803fe0
 1691 16 1677 18 1670 29 c 28
 1663 40 1679 50 1675 62 c 4
 1664 96 1629 141 1629 141 c 5
 1652 154 l 5
1284 189 m 5
 1217 125 l 5
 1217 125 1220 107 1216 97 c 4
 1212 89 1206 82 1198 81 c 4
 1190 80 1174 85 1167 100 c 4
 1162 110 1160 125 1169 135 c 28x203fe0
 1178 145 1191 131 1202 139 c 4
 1231 160 1264 207 1264 207 c 5
 1284 189 l 5
1202 416 m 5
 1111 396 l 5
 1111 396 1106 378 1097 372 c 4
 1090 367 1079 364 1072 368 c 4
 1065 372 1054 384 1056 400 c 4
 1058 411 1063 425 1076 429 c 28x083fe0
 1089 433 1093 414 1106 415 c 4
 1142 418 1195 442 1195 442 c 5
 1202 416 l 5
1514 639 m 5
 1553 723 l 5
 1553 723 1543 738 1543 749 c 4
 1543 758 1547 767 1554 771 c 4
 1561 775 1578 777 1590 765 c 4
 1598 757 1606 744 1601 732 c 28
 1596 720 1579 727 1572 716 c 4
 1553 686 1539 629 1539 629 c 5x013fe0
 1514 639 l 5
1178 569 m 5
 1110 633 l 5
 1110 633 1092 628 1082 632 c 4x01bfe0
 1074 635 1066 641 1065 649 c 4x007fe0
 1064 657 1067 674 1082 681 c 4
 1092 686 1107 689 1117 681 c 28x00bfe0
 1127 673 1115 658 1123 648 c 4
 1146 620 1195 590 1195 590 c 5
 1178 569 l 5
-301 346 m 5
 -211 322 l 5
 -211 322 -199 335 -188 336 c 4
 -179 337 -169 336 -164 329 c 4
 -159 322 -154 306 -164 293 c 4
 -171 284 -182 274 -195 276 c 28
 -208 278 -204 297 -216 302 c 4
 -249 316 -307 320 -307 320 c 5
 -301 346 l 5
-356 545 m 5
 -275 591 l 5
 -275 591 -275 608 -268 617 c 4
 -263 624 -254 630 -246 629 c 4
 -238 628 -224 619 -221 603 c 4
 -219 592 -221 576 -232 569 c 28
 -243 562 -253 578 -265 573 c 4
 -298 560 -342 522 -342 522 c 5
 -356 545 l 5
-397 172 m 5
 -356 89 l 5
 -356 89 -337 87 -329 80 c 4
 -322 74 -317 66 -319 58 c 4
 -321 50 -331 36 -347 34 c 4x403fe0
 -358 33 -372 35 -379 46 c 28
 -386 57 -370 67 -374 79 c 4
 -385 113 -420 159 -420 159 c 5
 -397 172 l 5
-765 207 m 5
 -832 142 l 5
 -832 142 -829 125 -833 115 c 4
 -837 107 -843 99 -851 98 c 4
 -859 97 -875 102 -882 117 c 4
 -887 127 -889 142 -880 152 c 28x103fe0
 -871 162 -858 149 -847 157 c 4
 -818 178 -785 225 -785 225 c 5
 -765 207 l 5
-847 433 m 5
 -938 413 l 5
 -938 413 -943 396 -952 390 c 4
 -959 385 -969 381 -976 385 c 4
 -983 389 -995 402 -993 418 c 4
 -991 429 -986 442 -973 446 c 28x043fe0
 -960 450 -956 432 -943 433 c 4
 -907 436 -854 459 -854 459 c 5
 -847 433 l 5
-535 657 m 5
 -496 741 l 5
 -496 741 -505 756 -505 767 c 4
 -505 776 -501 785 -494 789 c 4
 -487 793 -471 794 -459 782 c 4
 -451 774 -443 761 -448 749 c 28
 -453 737 -470 744 -477 733 c 4
 -496 703 -510 647 -510 647 c 5
 -535 657 l 5
-871 587 m 5
 -939 650 l 5
 -939 650 -957 645 -967 649 c 4
 -975 652 -983 659 -984 667 c 4
 -985 675 -982 692 -967 699 c 4
 -957 704 -942 707 -932 699 c 28x007fe0
 -922 691 -934 676 -926 666 c 4
 -903 638 -854 607 -854 607 c 5
 -871 587 l 5
EndSplineSet
Validated: 33
EndChar

StartChar: two
Encoding: 50 50 33
Width: 1040
Flags: W
HStem: 17 46<1693.01 1729.79> 34 46<-355.986 -319.468> 81 54<1167.33 1201.48> 98 54<-881.665 -847.517> 368 61<1057.63 1096.67> 385 61<-991.577 -952.33> 552 59<1784.56 1827.05> 569 60<-264.439 -221.949> 632 49<1065.57 1109.99> 649 50<-983.43 -939.013>
VStem: -882 49<98.8177 141.988> -505 57<741.011 766.459> -379 60<35.3403 78.439> -275 54<591 628.386> 1056 41<368.193 395.987> 1167 49<81.8005 124.987> 1543 58<723.011 764.621> 1670 60<18.2344 61.439> 1781 47<573.013 610.386>
LayerCount: 2
Fore
SplineSet
1748 329 m 5x003fe0
 1837 304 l 5
 1837 304 1850 317 1861 318 c 4
 1870 319 1880 318 1885 311 c 4
 1890 304 1895 288 1885 275 c 4
 1878 266 1867 257 1854 259 c 28
 1841 261 1845 280 1833 285 c 4
 1800 299 1742 302 1742 302 c 5
 1748 329 l 5x003fe0
1693 528 m 5
 1773 573 l 5
 1773 573 1774 591 1781 600 c 4
 1786 607 1795 612 1803 611 c 4
 1811 610 1825 601 1828 585 c 4
 1830 574 1828 559 1817 552 c 28x023fe0
 1806 545 1796 561 1784 556 c 4
 1751 543 1707 505 1707 505 c 5
 1693 528 l 5
1652 154 m 5
 1693 71 l 5
 1693 71 1711 70 1719 63 c 4
 1726 57 1732 48 1730 40 c 4
 1728 32 1718 19 1702 17 c 4x803fe0
 1691 16 1677 18 1670 29 c 28
 1663 40 1679 50 1675 62 c 4
 1664 96 1629 141 1629 141 c 5
 1652 154 l 5
1284 189 m 5
 1217 125 l 5
 1217 125 1220 107 1216 97 c 4
 1212 89 1206 82 1198 81 c 4
 1190 80 1174 85 1167 100 c 4
 1162 110 1160 125 1169 135 c 28x203fe0
 1178 145 1191 131 1202 139 c 4
 1231 160 1264 207 1264 207 c 5
 1284 189 l 5
1202 416 m 5
 1111 396 l 5
 1111 396 1106 378 1097 372 c 4
 1090 367 1079 364 1072 368 c 4
 1065 372 1054 384 1056 400 c 4
 1058 411 1063 425 1076 429 c 28x083fe0
 1089 433 1093 414 1106 415 c 4
 1142 418 1195 442 1195 442 c 5
 1202 416 l 5
1514 639 m 5
 1553 723 l 5
 1553 723 1543 738 1543 749 c 4
 1543 758 1547 767 1554 771 c 4
 1561 775 1578 777 1590 765 c 4
 1598 757 1606 744 1601 732 c 28
 1596 720 1579 727 1572 716 c 4
 1553 686 1539 629 1539 629 c 5x013fe0
 1514 639 l 5
1178 569 m 5
 1110 633 l 5
 1110 633 1092 628 1082 632 c 4x01bfe0
 1074 635 1066 641 1065 649 c 4x007fe0
 1064 657 1067 674 1082 681 c 4
 1092 686 1107 689 1117 681 c 28x00bfe0
 1127 673 1115 658 1123 648 c 4
 1146 620 1195 590 1195 590 c 5
 1178 569 l 5
-301 346 m 1
 -211 322 l 1
 -211 322 -199 335 -188 336 c 0
 -179 337 -169 336 -164 329 c 0
 -159 322 -154 306 -164 293 c 0
 -171 284 -182 274 -195 276 c 24
 -208 278 -204 297 -216 302 c 0
 -249 316 -307 320 -307 320 c 1
 -301 346 l 1
-356 545 m 1
 -275 591 l 1
 -275 591 -275 608 -268 617 c 0
 -263 624 -254 630 -246 629 c 0
 -238 628 -224 619 -221 603 c 0
 -219 592 -221 576 -232 569 c 24
 -243 562 -253 578 -265 573 c 0
 -298 560 -342 522 -342 522 c 1
 -356 545 l 1
-397 172 m 1
 -356 89 l 1
 -356 89 -337 87 -329 80 c 0
 -322 74 -317 66 -319 58 c 0
 -321 50 -331 36 -347 34 c 0x403fe0
 -358 33 -372 35 -379 46 c 24
 -386 57 -370 67 -374 79 c 0
 -385 113 -420 159 -420 159 c 1
 -397 172 l 1
-765 207 m 1
 -832 142 l 1
 -832 142 -829 125 -833 115 c 0
 -837 107 -843 99 -851 98 c 0
 -859 97 -875 102 -882 117 c 0
 -887 127 -889 142 -880 152 c 24x103fe0
 -871 162 -858 149 -847 157 c 0
 -818 178 -785 225 -785 225 c 1
 -765 207 l 1
-847 433 m 1
 -938 413 l 1
 -938 413 -943 396 -952 390 c 0
 -959 385 -969 381 -976 385 c 0
 -983 389 -995 402 -993 418 c 0
 -991 429 -986 442 -973 446 c 24x043fe0
 -960 450 -956 432 -943 433 c 0
 -907 436 -854 459 -854 459 c 1
 -847 433 l 1
-535 657 m 1
 -496 741 l 1
 -496 741 -505 756 -505 767 c 0
 -505 776 -501 785 -494 789 c 0
 -487 793 -471 794 -459 782 c 0
 -451 774 -443 761 -448 749 c 24
 -453 737 -470 744 -477 733 c 0
 -496 703 -510 647 -510 647 c 1
 -535 657 l 1
-871 587 m 1
 -939 650 l 1
 -939 650 -957 645 -967 649 c 0
 -975 652 -983 659 -984 667 c 0
 -985 675 -982 692 -967 699 c 0
 -957 704 -942 707 -932 699 c 24x007fe0
 -922 691 -934 676 -926 666 c 0
 -903 638 -854 607 -854 607 c 1
 -871 587 l 1
EndSplineSet
Validated: 33
EndChar

StartChar: three
Encoding: 51 51 34
Width: 1040
Flags: W
HStem: 17 46<1693.01 1729.79> 34 46<-355.986 -319.468> 81 54<1167.33 1201.48> 98 54<-881.665 -847.517> 368 61<1057.63 1096.67> 385 61<-991.577 -952.33> 552 59<1784.56 1827.05> 569 60<-264.439 -221.949> 632 49<1065.57 1109.99> 649 50<-983.43 -939.013>
VStem: -882 49<98.8177 141.988> -505 57<741.011 766.459> -379 60<35.3403 78.439> -275 54<591 628.386> 1056 41<368.193 395.987> 1167 49<81.8005 124.987> 1543 58<723.011 764.621> 1670 60<18.2344 61.439> 1781 47<573.013 610.386>
LayerCount: 2
Fore
SplineSet
1748 329 m 5x003fe0
 1837 304 l 5
 1837 304 1850 317 1861 318 c 4
 1870 319 1880 318 1885 311 c 4
 1890 304 1895 288 1885 275 c 4
 1878 266 1867 257 1854 259 c 28
 1841 261 1845 280 1833 285 c 4
 1800 299 1742 302 1742 302 c 5
 1748 329 l 5x003fe0
1693 528 m 5
 1773 573 l 5
 1773 573 1774 591 1781 600 c 4
 1786 607 1795 612 1803 611 c 4
 1811 610 1825 601 1828 585 c 4
 1830 574 1828 559 1817 552 c 28x023fe0
 1806 545 1796 561 1784 556 c 4
 1751 543 1707 505 1707 505 c 5
 1693 528 l 5
1652 154 m 5
 1693 71 l 5
 1693 71 1711 70 1719 63 c 4
 1726 57 1732 48 1730 40 c 4
 1728 32 1718 19 1702 17 c 4x803fe0
 1691 16 1677 18 1670 29 c 28
 1663 40 1679 50 1675 62 c 4
 1664 96 1629 141 1629 141 c 5
 1652 154 l 5
1284 189 m 5
 1217 125 l 5
 1217 125 1220 107 1216 97 c 4
 1212 89 1206 82 1198 81 c 4
 1190 80 1174 85 1167 100 c 4
 1162 110 1160 125 1169 135 c 28x203fe0
 1178 145 1191 131 1202 139 c 4
 1231 160 1264 207 1264 207 c 5
 1284 189 l 5
1202 416 m 5
 1111 396 l 5
 1111 396 1106 378 1097 372 c 4
 1090 367 1079 364 1072 368 c 4
 1065 372 1054 384 1056 400 c 4
 1058 411 1063 425 1076 429 c 28x083fe0
 1089 433 1093 414 1106 415 c 4
 1142 418 1195 442 1195 442 c 5
 1202 416 l 5
1514 639 m 5
 1553 723 l 5
 1553 723 1543 738 1543 749 c 4
 1543 758 1547 767 1554 771 c 4
 1561 775 1578 777 1590 765 c 4
 1598 757 1606 744 1601 732 c 28
 1596 720 1579 727 1572 716 c 4
 1553 686 1539 629 1539 629 c 5x013fe0
 1514 639 l 5
1178 569 m 5
 1110 633 l 5
 1110 633 1092 628 1082 632 c 4x01bfe0
 1074 635 1066 641 1065 649 c 4x007fe0
 1064 657 1067 674 1082 681 c 4
 1092 686 1107 689 1117 681 c 28x00bfe0
 1127 673 1115 658 1123 648 c 4
 1146 620 1195 590 1195 590 c 5
 1178 569 l 5
-301 346 m 1
 -211 322 l 1
 -211 322 -199 335 -188 336 c 0
 -179 337 -169 336 -164 329 c 0
 -159 322 -154 306 -164 293 c 0
 -171 284 -182 274 -195 276 c 24
 -208 278 -204 297 -216 302 c 0
 -249 316 -307 320 -307 320 c 1
 -301 346 l 1
-356 545 m 1
 -275 591 l 1
 -275 591 -275 608 -268 617 c 0
 -263 624 -254 630 -246 629 c 0
 -238 628 -224 619 -221 603 c 0
 -219 592 -221 576 -232 569 c 24
 -243 562 -253 578 -265 573 c 0
 -298 560 -342 522 -342 522 c 1
 -356 545 l 1
-397 172 m 1
 -356 89 l 1
 -356 89 -337 87 -329 80 c 0
 -322 74 -317 66 -319 58 c 0
 -321 50 -331 36 -347 34 c 0x403fe0
 -358 33 -372 35 -379 46 c 24
 -386 57 -370 67 -374 79 c 0
 -385 113 -420 159 -420 159 c 1
 -397 172 l 1
-765 207 m 1
 -832 142 l 1
 -832 142 -829 125 -833 115 c 0
 -837 107 -843 99 -851 98 c 0
 -859 97 -875 102 -882 117 c 0
 -887 127 -889 142 -880 152 c 24x103fe0
 -871 162 -858 149 -847 157 c 0
 -818 178 -785 225 -785 225 c 1
 -765 207 l 1
-847 433 m 1
 -938 413 l 1
 -938 413 -943 396 -952 390 c 0
 -959 385 -969 381 -976 385 c 0
 -983 389 -995 402 -993 418 c 0
 -991 429 -986 442 -973 446 c 24x043fe0
 -960 450 -956 432 -943 433 c 0
 -907 436 -854 459 -854 459 c 1
 -847 433 l 1
-535 657 m 1
 -496 741 l 1
 -496 741 -505 756 -505 767 c 0
 -505 776 -501 785 -494 789 c 0
 -487 793 -471 794 -459 782 c 0
 -451 774 -443 761 -448 749 c 24
 -453 737 -470 744 -477 733 c 0
 -496 703 -510 647 -510 647 c 1
 -535 657 l 1
-871 587 m 1
 -939 650 l 1
 -939 650 -957 645 -967 649 c 0
 -975 652 -983 659 -984 667 c 0
 -985 675 -982 692 -967 699 c 0
 -957 704 -942 707 -932 699 c 24x007fe0
 -922 691 -934 676 -926 666 c 0
 -903 638 -854 607 -854 607 c 1
 -871 587 l 1
EndSplineSet
Validated: 33
EndChar

StartChar: four
Encoding: 52 52 35
Width: 1040
Flags: W
HStem: 17 46<1693.01 1729.79> 34 46<-355.986 -319.468> 81 54<1167.33 1201.48> 98 54<-881.665 -847.517> 368 61<1057.63 1096.67> 385 61<-991.577 -952.33> 552 59<1784.56 1827.05> 569 60<-264.439 -221.949> 632 49<1065.57 1109.99> 649 50<-983.43 -939.013>
VStem: -882 49<98.8177 141.988> -505 57<741.011 766.459> -379 60<35.3403 78.439> -275 54<591 628.386> 1056 41<368.193 395.987> 1167 49<81.8005 124.987> 1543 58<723.011 764.621> 1670 60<18.2344 61.439> 1781 47<573.013 610.386>
LayerCount: 2
Fore
SplineSet
1748 329 m 5x003fe0
 1837 304 l 5
 1837 304 1850 317 1861 318 c 4
 1870 319 1880 318 1885 311 c 4
 1890 304 1895 288 1885 275 c 4
 1878 266 1867 257 1854 259 c 28
 1841 261 1845 280 1833 285 c 4
 1800 299 1742 302 1742 302 c 5
 1748 329 l 5x003fe0
1693 528 m 5
 1773 573 l 5
 1773 573 1774 591 1781 600 c 4
 1786 607 1795 612 1803 611 c 4
 1811 610 1825 601 1828 585 c 4
 1830 574 1828 559 1817 552 c 28x023fe0
 1806 545 1796 561 1784 556 c 4
 1751 543 1707 505 1707 505 c 5
 1693 528 l 5
1652 154 m 5
 1693 71 l 5
 1693 71 1711 70 1719 63 c 4
 1726 57 1732 48 1730 40 c 4
 1728 32 1718 19 1702 17 c 4x803fe0
 1691 16 1677 18 1670 29 c 28
 1663 40 1679 50 1675 62 c 4
 1664 96 1629 141 1629 141 c 5
 1652 154 l 5
1284 189 m 5
 1217 125 l 5
 1217 125 1220 107 1216 97 c 4
 1212 89 1206 82 1198 81 c 4
 1190 80 1174 85 1167 100 c 4
 1162 110 1160 125 1169 135 c 28x203fe0
 1178 145 1191 131 1202 139 c 4
 1231 160 1264 207 1264 207 c 5
 1284 189 l 5
1202 416 m 5
 1111 396 l 5
 1111 396 1106 378 1097 372 c 4
 1090 367 1079 364 1072 368 c 4
 1065 372 1054 384 1056 400 c 4
 1058 411 1063 425 1076 429 c 28x083fe0
 1089 433 1093 414 1106 415 c 4
 1142 418 1195 442 1195 442 c 5
 1202 416 l 5
1514 639 m 5
 1553 723 l 5
 1553 723 1543 738 1543 749 c 4
 1543 758 1547 767 1554 771 c 4
 1561 775 1578 777 1590 765 c 4
 1598 757 1606 744 1601 732 c 28
 1596 720 1579 727 1572 716 c 4
 1553 686 1539 629 1539 629 c 5x013fe0
 1514 639 l 5
1178 569 m 5
 1110 633 l 5
 1110 633 1092 628 1082 632 c 4x01bfe0
 1074 635 1066 641 1065 649 c 4x007fe0
 1064 657 1067 674 1082 681 c 4
 1092 686 1107 689 1117 681 c 28x00bfe0
 1127 673 1115 658 1123 648 c 4
 1146 620 1195 590 1195 590 c 5
 1178 569 l 5
-301 346 m 1
 -211 322 l 1
 -211 322 -199 335 -188 336 c 0
 -179 337 -169 336 -164 329 c 0
 -159 322 -154 306 -164 293 c 0
 -171 284 -182 274 -195 276 c 24
 -208 278 -204 297 -216 302 c 0
 -249 316 -307 320 -307 320 c 1
 -301 346 l 1
-356 545 m 1
 -275 591 l 1
 -275 591 -275 608 -268 617 c 0
 -263 624 -254 630 -246 629 c 0
 -238 628 -224 619 -221 603 c 0
 -219 592 -221 576 -232 569 c 24
 -243 562 -253 578 -265 573 c 0
 -298 560 -342 522 -342 522 c 1
 -356 545 l 1
-397 172 m 1
 -356 89 l 1
 -356 89 -337 87 -329 80 c 0
 -322 74 -317 66 -319 58 c 0
 -321 50 -331 36 -347 34 c 0x403fe0
 -358 33 -372 35 -379 46 c 24
 -386 57 -370 67 -374 79 c 0
 -385 113 -420 159 -420 159 c 1
 -397 172 l 1
-765 207 m 1
 -832 142 l 1
 -832 142 -829 125 -833 115 c 0
 -837 107 -843 99 -851 98 c 0
 -859 97 -875 102 -882 117 c 0
 -887 127 -889 142 -880 152 c 24x103fe0
 -871 162 -858 149 -847 157 c 0
 -818 178 -785 225 -785 225 c 1
 -765 207 l 1
-847 433 m 1
 -938 413 l 1
 -938 413 -943 396 -952 390 c 0
 -959 385 -969 381 -976 385 c 0
 -983 389 -995 402 -993 418 c 0
 -991 429 -986 442 -973 446 c 24x043fe0
 -960 450 -956 432 -943 433 c 0
 -907 436 -854 459 -854 459 c 1
 -847 433 l 1
-535 657 m 1
 -496 741 l 1
 -496 741 -505 756 -505 767 c 0
 -505 776 -501 785 -494 789 c 0
 -487 793 -471 794 -459 782 c 0
 -451 774 -443 761 -448 749 c 24
 -453 737 -470 744 -477 733 c 0
 -496 703 -510 647 -510 647 c 1
 -535 657 l 1
-871 587 m 1
 -939 650 l 1
 -939 650 -957 645 -967 649 c 0
 -975 652 -983 659 -984 667 c 0
 -985 675 -982 692 -967 699 c 0
 -957 704 -942 707 -932 699 c 24x007fe0
 -922 691 -934 676 -926 666 c 0
 -903 638 -854 607 -854 607 c 1
 -871 587 l 1
EndSplineSet
Validated: 33
EndChar

StartChar: five
Encoding: 53 53 36
Width: 1040
Flags: W
HStem: 17 46<1693.01 1729.79> 34 46<-355.986 -319.468> 81 54<1167.33 1201.48> 98 54<-881.665 -847.517> 368 61<1057.63 1096.67> 385 61<-991.577 -952.33> 552 59<1784.56 1827.05> 569 60<-264.439 -221.949> 632 49<1065.57 1109.99> 649 50<-983.43 -939.013>
VStem: -882 49<98.8177 141.988> -505 57<741.011 766.459> -379 60<35.3403 78.439> -275 54<591 628.386> 1056 41<368.193 395.987> 1167 49<81.8005 124.987> 1543 58<723.011 764.621> 1670 60<18.2344 61.439> 1781 47<573.013 610.386>
LayerCount: 2
Fore
SplineSet
1748 329 m 5x003fe0
 1837 304 l 5
 1837 304 1850 317 1861 318 c 4
 1870 319 1880 318 1885 311 c 4
 1890 304 1895 288 1885 275 c 4
 1878 266 1867 257 1854 259 c 28
 1841 261 1845 280 1833 285 c 4
 1800 299 1742 302 1742 302 c 5
 1748 329 l 5x003fe0
1693 528 m 5
 1773 573 l 5
 1773 573 1774 591 1781 600 c 4
 1786 607 1795 612 1803 611 c 4
 1811 610 1825 601 1828 585 c 4
 1830 574 1828 559 1817 552 c 28x023fe0
 1806 545 1796 561 1784 556 c 4
 1751 543 1707 505 1707 505 c 5
 1693 528 l 5
1652 154 m 5
 1693 71 l 5
 1693 71 1711 70 1719 63 c 4
 1726 57 1732 48 1730 40 c 4
 1728 32 1718 19 1702 17 c 4x803fe0
 1691 16 1677 18 1670 29 c 28
 1663 40 1679 50 1675 62 c 4
 1664 96 1629 141 1629 141 c 5
 1652 154 l 5
1284 189 m 5
 1217 125 l 5
 1217 125 1220 107 1216 97 c 4
 1212 89 1206 82 1198 81 c 4
 1190 80 1174 85 1167 100 c 4
 1162 110 1160 125 1169 135 c 28x203fe0
 1178 145 1191 131 1202 139 c 4
 1231 160 1264 207 1264 207 c 5
 1284 189 l 5
1202 416 m 5
 1111 396 l 5
 1111 396 1106 378 1097 372 c 4
 1090 367 1079 364 1072 368 c 4
 1065 372 1054 384 1056 400 c 4
 1058 411 1063 425 1076 429 c 28x083fe0
 1089 433 1093 414 1106 415 c 4
 1142 418 1195 442 1195 442 c 5
 1202 416 l 5
1514 639 m 5
 1553 723 l 5
 1553 723 1543 738 1543 749 c 4
 1543 758 1547 767 1554 771 c 4
 1561 775 1578 777 1590 765 c 4
 1598 757 1606 744 1601 732 c 28
 1596 720 1579 727 1572 716 c 4
 1553 686 1539 629 1539 629 c 5x013fe0
 1514 639 l 5
1178 569 m 5
 1110 633 l 5
 1110 633 1092 628 1082 632 c 4x01bfe0
 1074 635 1066 641 1065 649 c 4x007fe0
 1064 657 1067 674 1082 681 c 4
 1092 686 1107 689 1117 681 c 28x00bfe0
 1127 673 1115 658 1123 648 c 4
 1146 620 1195 590 1195 590 c 5
 1178 569 l 5
-301 346 m 1
 -211 322 l 1
 -211 322 -199 335 -188 336 c 0
 -179 337 -169 336 -164 329 c 0
 -159 322 -154 306 -164 293 c 0
 -171 284 -182 274 -195 276 c 24
 -208 278 -204 297 -216 302 c 0
 -249 316 -307 320 -307 320 c 1
 -301 346 l 1
-356 545 m 1
 -275 591 l 1
 -275 591 -275 608 -268 617 c 0
 -263 624 -254 630 -246 629 c 0
 -238 628 -224 619 -221 603 c 0
 -219 592 -221 576 -232 569 c 24
 -243 562 -253 578 -265 573 c 0
 -298 560 -342 522 -342 522 c 1
 -356 545 l 1
-397 172 m 1
 -356 89 l 1
 -356 89 -337 87 -329 80 c 0
 -322 74 -317 66 -319 58 c 0
 -321 50 -331 36 -347 34 c 0x403fe0
 -358 33 -372 35 -379 46 c 24
 -386 57 -370 67 -374 79 c 0
 -385 113 -420 159 -420 159 c 1
 -397 172 l 1
-765 207 m 1
 -832 142 l 1
 -832 142 -829 125 -833 115 c 0
 -837 107 -843 99 -851 98 c 0
 -859 97 -875 102 -882 117 c 0
 -887 127 -889 142 -880 152 c 24x103fe0
 -871 162 -858 149 -847 157 c 0
 -818 178 -785 225 -785 225 c 1
 -765 207 l 1
-847 433 m 1
 -938 413 l 1
 -938 413 -943 396 -952 390 c 0
 -959 385 -969 381 -976 385 c 0
 -983 389 -995 402 -993 418 c 0
 -991 429 -986 442 -973 446 c 24x043fe0
 -960 450 -956 432 -943 433 c 0
 -907 436 -854 459 -854 459 c 1
 -847 433 l 1
-535 657 m 1
 -496 741 l 1
 -496 741 -505 756 -505 767 c 0
 -505 776 -501 785 -494 789 c 0
 -487 793 -471 794 -459 782 c 0
 -451 774 -443 761 -448 749 c 24
 -453 737 -470 744 -477 733 c 0
 -496 703 -510 647 -510 647 c 1
 -535 657 l 1
-871 587 m 1
 -939 650 l 1
 -939 650 -957 645 -967 649 c 0
 -975 652 -983 659 -984 667 c 0
 -985 675 -982 692 -967 699 c 0
 -957 704 -942 707 -932 699 c 24x007fe0
 -922 691 -934 676 -926 666 c 0
 -903 638 -854 607 -854 607 c 1
 -871 587 l 1
EndSplineSet
Validated: 33
EndChar

StartChar: six
Encoding: 54 54 37
Width: 1040
Flags: W
HStem: 17 46<1693.01 1729.79> 34 46<-355.986 -319.468> 81 54<1167.33 1201.48> 98 54<-881.665 -847.517> 368 61<1057.63 1096.67> 385 61<-991.577 -952.33> 552 59<1784.56 1827.05> 569 60<-264.439 -221.949> 632 49<1065.57 1109.99> 649 50<-983.43 -939.013>
VStem: -882 49<98.8177 141.988> -505 57<741.011 766.459> -379 60<35.3403 78.439> -275 54<591 628.386> 1056 41<368.193 395.987> 1167 49<81.8005 124.987> 1543 58<723.011 764.621> 1670 60<18.2344 61.439> 1781 47<573.013 610.386>
LayerCount: 2
Fore
SplineSet
1748 329 m 5x003fe0
 1837 304 l 5
 1837 304 1850 317 1861 318 c 4
 1870 319 1880 318 1885 311 c 4
 1890 304 1895 288 1885 275 c 4
 1878 266 1867 257 1854 259 c 28
 1841 261 1845 280 1833 285 c 4
 1800 299 1742 302 1742 302 c 5
 1748 329 l 5x003fe0
1693 528 m 5
 1773 573 l 5
 1773 573 1774 591 1781 600 c 4
 1786 607 1795 612 1803 611 c 4
 1811 610 1825 601 1828 585 c 4
 1830 574 1828 559 1817 552 c 28x023fe0
 1806 545 1796 561 1784 556 c 4
 1751 543 1707 505 1707 505 c 5
 1693 528 l 5
1652 154 m 5
 1693 71 l 5
 1693 71 1711 70 1719 63 c 4
 1726 57 1732 48 1730 40 c 4
 1728 32 1718 19 1702 17 c 4x803fe0
 1691 16 1677 18 1670 29 c 28
 1663 40 1679 50 1675 62 c 4
 1664 96 1629 141 1629 141 c 5
 1652 154 l 5
1284 189 m 5
 1217 125 l 5
 1217 125 1220 107 1216 97 c 4
 1212 89 1206 82 1198 81 c 4
 1190 80 1174 85 1167 100 c 4
 1162 110 1160 125 1169 135 c 28x203fe0
 1178 145 1191 131 1202 139 c 4
 1231 160 1264 207 1264 207 c 5
 1284 189 l 5
1202 416 m 5
 1111 396 l 5
 1111 396 1106 378 1097 372 c 4
 1090 367 1079 364 1072 368 c 4
 1065 372 1054 384 1056 400 c 4
 1058 411 1063 425 1076 429 c 28x083fe0
 1089 433 1093 414 1106 415 c 4
 1142 418 1195 442 1195 442 c 5
 1202 416 l 5
1514 639 m 5
 1553 723 l 5
 1553 723 1543 738 1543 749 c 4
 1543 758 1547 767 1554 771 c 4
 1561 775 1578 777 1590 765 c 4
 1598 757 1606 744 1601 732 c 28
 1596 720 1579 727 1572 716 c 4
 1553 686 1539 629 1539 629 c 5x013fe0
 1514 639 l 5
1178 569 m 5
 1110 633 l 5
 1110 633 1092 628 1082 632 c 4x01bfe0
 1074 635 1066 641 1065 649 c 4x007fe0
 1064 657 1067 674 1082 681 c 4
 1092 686 1107 689 1117 681 c 28x00bfe0
 1127 673 1115 658 1123 648 c 4
 1146 620 1195 590 1195 590 c 5
 1178 569 l 5
-301 346 m 1
 -211 322 l 1
 -211 322 -199 335 -188 336 c 0
 -179 337 -169 336 -164 329 c 0
 -159 322 -154 306 -164 293 c 0
 -171 284 -182 274 -195 276 c 24
 -208 278 -204 297 -216 302 c 0
 -249 316 -307 320 -307 320 c 1
 -301 346 l 1
-356 545 m 1
 -275 591 l 1
 -275 591 -275 608 -268 617 c 0
 -263 624 -254 630 -246 629 c 0
 -238 628 -224 619 -221 603 c 0
 -219 592 -221 576 -232 569 c 24
 -243 562 -253 578 -265 573 c 0
 -298 560 -342 522 -342 522 c 1
 -356 545 l 1
-397 172 m 1
 -356 89 l 1
 -356 89 -337 87 -329 80 c 0
 -322 74 -317 66 -319 58 c 0
 -321 50 -331 36 -347 34 c 0x403fe0
 -358 33 -372 35 -379 46 c 24
 -386 57 -370 67 -374 79 c 0
 -385 113 -420 159 -420 159 c 1
 -397 172 l 1
-765 207 m 1
 -832 142 l 1
 -832 142 -829 125 -833 115 c 0
 -837 107 -843 99 -851 98 c 0
 -859 97 -875 102 -882 117 c 0
 -887 127 -889 142 -880 152 c 24x103fe0
 -871 162 -858 149 -847 157 c 0
 -818 178 -785 225 -785 225 c 1
 -765 207 l 1
-847 433 m 1
 -938 413 l 1
 -938 413 -943 396 -952 390 c 0
 -959 385 -969 381 -976 385 c 0
 -983 389 -995 402 -993 418 c 0
 -991 429 -986 442 -973 446 c 24x043fe0
 -960 450 -956 432 -943 433 c 0
 -907 436 -854 459 -854 459 c 1
 -847 433 l 1
-535 657 m 1
 -496 741 l 1
 -496 741 -505 756 -505 767 c 0
 -505 776 -501 785 -494 789 c 0
 -487 793 -471 794 -459 782 c 0
 -451 774 -443 761 -448 749 c 24
 -453 737 -470 744 -477 733 c 0
 -496 703 -510 647 -510 647 c 1
 -535 657 l 1
-871 587 m 1
 -939 650 l 1
 -939 650 -957 645 -967 649 c 0
 -975 652 -983 659 -984 667 c 0
 -985 675 -982 692 -967 699 c 0
 -957 704 -942 707 -932 699 c 24x007fe0
 -922 691 -934 676 -926 666 c 0
 -903 638 -854 607 -854 607 c 1
 -871 587 l 1
EndSplineSet
Validated: 33
EndChar

StartChar: seven
Encoding: 55 55 38
Width: 1040
Flags: W
HStem: 17 46<1693.01 1729.79> 34 46<-355.986 -319.468> 81 54<1167.33 1201.48> 98 54<-881.665 -847.517> 368 61<1057.63 1096.67> 385 61<-991.577 -952.33> 552 59<1784.56 1827.05> 569 60<-264.439 -221.949> 632 49<1065.57 1109.99> 649 50<-983.43 -939.013>
VStem: -882 49<98.8177 141.988> -505 57<741.011 766.459> -379 60<35.3403 78.439> -275 54<591 628.386> 1056 41<368.193 395.987> 1167 49<81.8005 124.987> 1543 58<723.011 764.621> 1670 60<18.2344 61.439> 1781 47<573.013 610.386>
LayerCount: 2
Fore
SplineSet
1748 329 m 5x003fe0
 1837 304 l 5
 1837 304 1850 317 1861 318 c 4
 1870 319 1880 318 1885 311 c 4
 1890 304 1895 288 1885 275 c 4
 1878 266 1867 257 1854 259 c 28
 1841 261 1845 280 1833 285 c 4
 1800 299 1742 302 1742 302 c 5
 1748 329 l 5x003fe0
1693 528 m 5
 1773 573 l 5
 1773 573 1774 591 1781 600 c 4
 1786 607 1795 612 1803 611 c 4
 1811 610 1825 601 1828 585 c 4
 1830 574 1828 559 1817 552 c 28x023fe0
 1806 545 1796 561 1784 556 c 4
 1751 543 1707 505 1707 505 c 5
 1693 528 l 5
1652 154 m 5
 1693 71 l 5
 1693 71 1711 70 1719 63 c 4
 1726 57 1732 48 1730 40 c 4
 1728 32 1718 19 1702 17 c 4x803fe0
 1691 16 1677 18 1670 29 c 28
 1663 40 1679 50 1675 62 c 4
 1664 96 1629 141 1629 141 c 5
 1652 154 l 5
1284 189 m 5
 1217 125 l 5
 1217 125 1220 107 1216 97 c 4
 1212 89 1206 82 1198 81 c 4
 1190 80 1174 85 1167 100 c 4
 1162 110 1160 125 1169 135 c 28x203fe0
 1178 145 1191 131 1202 139 c 4
 1231 160 1264 207 1264 207 c 5
 1284 189 l 5
1202 416 m 5
 1111 396 l 5
 1111 396 1106 378 1097 372 c 4
 1090 367 1079 364 1072 368 c 4
 1065 372 1054 384 1056 400 c 4
 1058 411 1063 425 1076 429 c 28x083fe0
 1089 433 1093 414 1106 415 c 4
 1142 418 1195 442 1195 442 c 5
 1202 416 l 5
1514 639 m 5
 1553 723 l 5
 1553 723 1543 738 1543 749 c 4
 1543 758 1547 767 1554 771 c 4
 1561 775 1578 777 1590 765 c 4
 1598 757 1606 744 1601 732 c 28
 1596 720 1579 727 1572 716 c 4
 1553 686 1539 629 1539 629 c 5x013fe0
 1514 639 l 5
1178 569 m 5
 1110 633 l 5
 1110 633 1092 628 1082 632 c 4x01bfe0
 1074 635 1066 641 1065 649 c 4x007fe0
 1064 657 1067 674 1082 681 c 4
 1092 686 1107 689 1117 681 c 28x00bfe0
 1127 673 1115 658 1123 648 c 4
 1146 620 1195 590 1195 590 c 5
 1178 569 l 5
-301 346 m 1
 -211 322 l 1
 -211 322 -199 335 -188 336 c 0
 -179 337 -169 336 -164 329 c 0
 -159 322 -154 306 -164 293 c 0
 -171 284 -182 274 -195 276 c 24
 -208 278 -204 297 -216 302 c 0
 -249 316 -307 320 -307 320 c 1
 -301 346 l 1
-356 545 m 1
 -275 591 l 1
 -275 591 -275 608 -268 617 c 0
 -263 624 -254 630 -246 629 c 0
 -238 628 -224 619 -221 603 c 0
 -219 592 -221 576 -232 569 c 24
 -243 562 -253 578 -265 573 c 0
 -298 560 -342 522 -342 522 c 1
 -356 545 l 1
-397 172 m 1
 -356 89 l 1
 -356 89 -337 87 -329 80 c 0
 -322 74 -317 66 -319 58 c 0
 -321 50 -331 36 -347 34 c 0x403fe0
 -358 33 -372 35 -379 46 c 24
 -386 57 -370 67 -374 79 c 0
 -385 113 -420 159 -420 159 c 1
 -397 172 l 1
-765 207 m 1
 -832 142 l 1
 -832 142 -829 125 -833 115 c 0
 -837 107 -843 99 -851 98 c 0
 -859 97 -875 102 -882 117 c 0
 -887 127 -889 142 -880 152 c 24x103fe0
 -871 162 -858 149 -847 157 c 0
 -818 178 -785 225 -785 225 c 1
 -765 207 l 1
-847 433 m 1
 -938 413 l 1
 -938 413 -943 396 -952 390 c 0
 -959 385 -969 381 -976 385 c 0
 -983 389 -995 402 -993 418 c 0
 -991 429 -986 442 -973 446 c 24x043fe0
 -960 450 -956 432 -943 433 c 0
 -907 436 -854 459 -854 459 c 1
 -847 433 l 1
-535 657 m 1
 -496 741 l 1
 -496 741 -505 756 -505 767 c 0
 -505 776 -501 785 -494 789 c 0
 -487 793 -471 794 -459 782 c 0
 -451 774 -443 761 -448 749 c 24
 -453 737 -470 744 -477 733 c 0
 -496 703 -510 647 -510 647 c 1
 -535 657 l 1
-871 587 m 1
 -939 650 l 1
 -939 650 -957 645 -967 649 c 0
 -975 652 -983 659 -984 667 c 0
 -985 675 -982 692 -967 699 c 0
 -957 704 -942 707 -932 699 c 24x007fe0
 -922 691 -934 676 -926 666 c 0
 -903 638 -854 607 -854 607 c 1
 -871 587 l 1
EndSplineSet
Validated: 33
EndChar

StartChar: eight
Encoding: 56 56 39
Width: 1040
Flags: W
HStem: 17 46<1693.01 1729.79> 34 46<-355.986 -319.468> 81 54<1167.33 1201.48> 98 54<-881.665 -847.517> 368 61<1057.63 1096.67> 385 61<-991.577 -952.33> 552 59<1784.56 1827.05> 569 60<-264.439 -221.949> 632 49<1065.57 1109.99> 649 50<-983.43 -939.013>
VStem: -882 49<98.8177 141.988> -505 57<741.011 766.459> -379 60<35.3403 78.439> -275 54<591 628.386> 1056 41<368.193 395.987> 1167 49<81.8005 124.987> 1543 58<723.011 764.621> 1670 60<18.2344 61.439> 1781 47<573.013 610.386>
LayerCount: 2
Fore
SplineSet
1748 329 m 5x003fe0
 1837 304 l 5
 1837 304 1850 317 1861 318 c 4
 1870 319 1880 318 1885 311 c 4
 1890 304 1895 288 1885 275 c 4
 1878 266 1867 257 1854 259 c 28
 1841 261 1845 280 1833 285 c 4
 1800 299 1742 302 1742 302 c 5
 1748 329 l 5x003fe0
1693 528 m 5
 1773 573 l 5
 1773 573 1774 591 1781 600 c 4
 1786 607 1795 612 1803 611 c 4
 1811 610 1825 601 1828 585 c 4
 1830 574 1828 559 1817 552 c 28x023fe0
 1806 545 1796 561 1784 556 c 4
 1751 543 1707 505 1707 505 c 5
 1693 528 l 5
1652 154 m 5
 1693 71 l 5
 1693 71 1711 70 1719 63 c 4
 1726 57 1732 48 1730 40 c 4
 1728 32 1718 19 1702 17 c 4x803fe0
 1691 16 1677 18 1670 29 c 28
 1663 40 1679 50 1675 62 c 4
 1664 96 1629 141 1629 141 c 5
 1652 154 l 5
1284 189 m 5
 1217 125 l 5
 1217 125 1220 107 1216 97 c 4
 1212 89 1206 82 1198 81 c 4
 1190 80 1174 85 1167 100 c 4
 1162 110 1160 125 1169 135 c 28x203fe0
 1178 145 1191 131 1202 139 c 4
 1231 160 1264 207 1264 207 c 5
 1284 189 l 5
1202 416 m 5
 1111 396 l 5
 1111 396 1106 378 1097 372 c 4
 1090 367 1079 364 1072 368 c 4
 1065 372 1054 384 1056 400 c 4
 1058 411 1063 425 1076 429 c 28x083fe0
 1089 433 1093 414 1106 415 c 4
 1142 418 1195 442 1195 442 c 5
 1202 416 l 5
1514 639 m 5
 1553 723 l 5
 1553 723 1543 738 1543 749 c 4
 1543 758 1547 767 1554 771 c 4
 1561 775 1578 777 1590 765 c 4
 1598 757 1606 744 1601 732 c 28
 1596 720 1579 727 1572 716 c 4
 1553 686 1539 629 1539 629 c 5x013fe0
 1514 639 l 5
1178 569 m 5
 1110 633 l 5
 1110 633 1092 628 1082 632 c 4x01bfe0
 1074 635 1066 641 1065 649 c 4x007fe0
 1064 657 1067 674 1082 681 c 4
 1092 686 1107 689 1117 681 c 28x00bfe0
 1127 673 1115 658 1123 648 c 4
 1146 620 1195 590 1195 590 c 5
 1178 569 l 5
-301 346 m 1
 -211 322 l 1
 -211 322 -199 335 -188 336 c 0
 -179 337 -169 336 -164 329 c 0
 -159 322 -154 306 -164 293 c 0
 -171 284 -182 274 -195 276 c 24
 -208 278 -204 297 -216 302 c 0
 -249 316 -307 320 -307 320 c 1
 -301 346 l 1
-356 545 m 1
 -275 591 l 1
 -275 591 -275 608 -268 617 c 0
 -263 624 -254 630 -246 629 c 0
 -238 628 -224 619 -221 603 c 0
 -219 592 -221 576 -232 569 c 24
 -243 562 -253 578 -265 573 c 0
 -298 560 -342 522 -342 522 c 1
 -356 545 l 1
-397 172 m 1
 -356 89 l 1
 -356 89 -337 87 -329 80 c 0
 -322 74 -317 66 -319 58 c 0
 -321 50 -331 36 -347 34 c 0x403fe0
 -358 33 -372 35 -379 46 c 24
 -386 57 -370 67 -374 79 c 0
 -385 113 -420 159 -420 159 c 1
 -397 172 l 1
-765 207 m 1
 -832 142 l 1
 -832 142 -829 125 -833 115 c 0
 -837 107 -843 99 -851 98 c 0
 -859 97 -875 102 -882 117 c 0
 -887 127 -889 142 -880 152 c 24x103fe0
 -871 162 -858 149 -847 157 c 0
 -818 178 -785 225 -785 225 c 1
 -765 207 l 1
-847 433 m 1
 -938 413 l 1
 -938 413 -943 396 -952 390 c 0
 -959 385 -969 381 -976 385 c 0
 -983 389 -995 402 -993 418 c 0
 -991 429 -986 442 -973 446 c 24x043fe0
 -960 450 -956 432 -943 433 c 0
 -907 436 -854 459 -854 459 c 1
 -847 433 l 1
-535 657 m 1
 -496 741 l 1
 -496 741 -505 756 -505 767 c 0
 -505 776 -501 785 -494 789 c 0
 -487 793 -471 794 -459 782 c 0
 -451 774 -443 761 -448 749 c 24
 -453 737 -470 744 -477 733 c 0
 -496 703 -510 647 -510 647 c 1
 -535 657 l 1
-871 587 m 1
 -939 650 l 1
 -939 650 -957 645 -967 649 c 0
 -975 652 -983 659 -984 667 c 0
 -985 675 -982 692 -967 699 c 0
 -957 704 -942 707 -932 699 c 24x007fe0
 -922 691 -934 676 -926 666 c 0
 -903 638 -854 607 -854 607 c 1
 -871 587 l 1
EndSplineSet
Validated: 33
EndChar

StartChar: nine
Encoding: 57 57 40
Width: 1040
Flags: W
HStem: 17 46<1693.01 1729.79> 34 46<-355.986 -319.468> 81 54<1167.33 1201.48> 98 54<-881.665 -847.517> 368 61<1057.63 1096.67> 385 61<-991.577 -952.33> 552 59<1784.56 1827.05> 569 60<-264.439 -221.949> 632 49<1065.57 1109.99> 649 50<-983.43 -939.013>
VStem: -882 49<98.8177 141.988> -505 57<741.011 766.459> -379 60<35.3403 78.439> -275 54<591 628.386> 1056 41<368.193 395.987> 1167 49<81.8005 124.987> 1543 58<723.011 764.621> 1670 60<18.2344 61.439> 1781 47<573.013 610.386>
LayerCount: 2
Fore
SplineSet
1748 329 m 5x003fe0
 1837 304 l 5
 1837 304 1850 317 1861 318 c 4
 1870 319 1880 318 1885 311 c 4
 1890 304 1895 288 1885 275 c 4
 1878 266 1867 257 1854 259 c 28
 1841 261 1845 280 1833 285 c 4
 1800 299 1742 302 1742 302 c 5
 1748 329 l 5x003fe0
1693 528 m 5
 1773 573 l 5
 1773 573 1774 591 1781 600 c 4
 1786 607 1795 612 1803 611 c 4
 1811 610 1825 601 1828 585 c 4
 1830 574 1828 559 1817 552 c 28x023fe0
 1806 545 1796 561 1784 556 c 4
 1751 543 1707 505 1707 505 c 5
 1693 528 l 5
1652 154 m 5
 1693 71 l 5
 1693 71 1711 70 1719 63 c 4
 1726 57 1732 48 1730 40 c 4
 1728 32 1718 19 1702 17 c 4x803fe0
 1691 16 1677 18 1670 29 c 28
 1663 40 1679 50 1675 62 c 4
 1664 96 1629 141 1629 141 c 5
 1652 154 l 5
1284 189 m 5
 1217 125 l 5
 1217 125 1220 107 1216 97 c 4
 1212 89 1206 82 1198 81 c 4
 1190 80 1174 85 1167 100 c 4
 1162 110 1160 125 1169 135 c 28x203fe0
 1178 145 1191 131 1202 139 c 4
 1231 160 1264 207 1264 207 c 5
 1284 189 l 5
1202 416 m 5
 1111 396 l 5
 1111 396 1106 378 1097 372 c 4
 1090 367 1079 364 1072 368 c 4
 1065 372 1054 384 1056 400 c 4
 1058 411 1063 425 1076 429 c 28x083fe0
 1089 433 1093 414 1106 415 c 4
 1142 418 1195 442 1195 442 c 5
 1202 416 l 5
1514 639 m 5
 1553 723 l 5
 1553 723 1543 738 1543 749 c 4
 1543 758 1547 767 1554 771 c 4
 1561 775 1578 777 1590 765 c 4
 1598 757 1606 744 1601 732 c 28
 1596 720 1579 727 1572 716 c 4
 1553 686 1539 629 1539 629 c 5x013fe0
 1514 639 l 5
1178 569 m 5
 1110 633 l 5
 1110 633 1092 628 1082 632 c 4x01bfe0
 1074 635 1066 641 1065 649 c 4x007fe0
 1064 657 1067 674 1082 681 c 4
 1092 686 1107 689 1117 681 c 28x00bfe0
 1127 673 1115 658 1123 648 c 4
 1146 620 1195 590 1195 590 c 5
 1178 569 l 5
-301 346 m 1
 -211 322 l 1
 -211 322 -199 335 -188 336 c 0
 -179 337 -169 336 -164 329 c 0
 -159 322 -154 306 -164 293 c 0
 -171 284 -182 274 -195 276 c 24
 -208 278 -204 297 -216 302 c 0
 -249 316 -307 320 -307 320 c 1
 -301 346 l 1
-356 545 m 1
 -275 591 l 1
 -275 591 -275 608 -268 617 c 0
 -263 624 -254 630 -246 629 c 0
 -238 628 -224 619 -221 603 c 0
 -219 592 -221 576 -232 569 c 24
 -243 562 -253 578 -265 573 c 0
 -298 560 -342 522 -342 522 c 1
 -356 545 l 1
-397 172 m 1
 -356 89 l 1
 -356 89 -337 87 -329 80 c 0
 -322 74 -317 66 -319 58 c 0
 -321 50 -331 36 -347 34 c 0x403fe0
 -358 33 -372 35 -379 46 c 24
 -386 57 -370 67 -374 79 c 0
 -385 113 -420 159 -420 159 c 1
 -397 172 l 1
-765 207 m 1
 -832 142 l 1
 -832 142 -829 125 -833 115 c 0
 -837 107 -843 99 -851 98 c 0
 -859 97 -875 102 -882 117 c 0
 -887 127 -889 142 -880 152 c 24x103fe0
 -871 162 -858 149 -847 157 c 0
 -818 178 -785 225 -785 225 c 1
 -765 207 l 1
-847 433 m 1
 -938 413 l 1
 -938 413 -943 396 -952 390 c 0
 -959 385 -969 381 -976 385 c 0
 -983 389 -995 402 -993 418 c 0
 -991 429 -986 442 -973 446 c 24x043fe0
 -960 450 -956 432 -943 433 c 0
 -907 436 -854 459 -854 459 c 1
 -847 433 l 1
-535 657 m 1
 -496 741 l 1
 -496 741 -505 756 -505 767 c 0
 -505 776 -501 785 -494 789 c 0
 -487 793 -471 794 -459 782 c 0
 -451 774 -443 761 -448 749 c 24
 -453 737 -470 744 -477 733 c 0
 -496 703 -510 647 -510 647 c 1
 -535 657 l 1
-871 587 m 1
 -939 650 l 1
 -939 650 -957 645 -967 649 c 0
 -975 652 -983 659 -984 667 c 0
 -985 675 -982 692 -967 699 c 0
 -957 704 -942 707 -932 699 c 24x007fe0
 -922 691 -934 676 -926 666 c 0
 -903 638 -854 607 -854 607 c 1
 -871 587 l 1
EndSplineSet
Validated: 33
EndChar

StartChar: colon
Encoding: 58 58 41
Width: 446
Flags: W
HStem: -16 20<152.144 163.811> 31 18<303.234 318.95> 94 12<307.048 317.71> 225 20<134.144 145.811> 271 19<285.234 300.95> 335 12<289.048 299.618>
VStem: 132 131<275.33 372.57> 150 132<32.2181 131.57> 207 14<404.002 412.905> 225 15<163.002 171.905> 260 23<395.004 409.858> 279 22<154.004 168.858> 287 13<339 344.905> 305 13<98 103.905>
LayerCount: 2
Fore
SplineSet
245 275 m 28xfe04
 222 262 205 256 177 258 c 28
 157 259 139 264 130 282 c 28
 118 305 125 322 132 345 c 28
 138 363 145 373 161 382 c 28
 179 392 192 398 213 393 c 28
 237 388 255 381 267 360 c 28
 278 341 268 325 263 305 c 28
 260 292 257 282 245 275 c 28xfe04
266 334 m 5
 287 339 l 5
 287 339 287 343 289 345 c 4
 290 346 292 348 294 347 c 4
 296 346 300 343 300 339 c 4xfc0c
 300 336 300 333 297 332 c 28
 294 331 292 335 289 335 c 4
 281 334 269 328 269 328 c 5
 266 334 l 5
202 385 m 5
 210 404 l 5
 210 404 207 407 207 410 c 4
 207 412 208 414 210 415 c 4
 212 416 215 416 218 413 c 4
 220 411 222 407 221 404 c 28xfc84
 220 401 217 403 215 401 c 4
 211 394 208 381 208 381 c 5
 202 385 l 5
188 270 m 5
 185 249 l 5
 185 249 188 246 189 243 c 4
 190 241 189 238 188 237 c 4
 187 236 183 236 179 238 c 4
 177 240 174 242 174 245 c 28
 174 248 179 247 180 250 c 4
 182 258 181 272 181 272 c 5
 188 270 l 5
142 279 m 5
 128 264 l 5
 128 264 130 259 129 257 c 4
 128 255 127 254 125 254 c 4
 123 254 119 255 117 259 c 4
 116 262 114 265 116 267 c 28
 118 269 122 266 124 268 c 4
 130 273 137 284 137 284 c 5
 142 279 l 5
164 373 m 5
 159 396 l 5
 159 396 155 398 153 400 c 4
 152 402 151 404 152 406 c 4
 153 408 155 410 159 409 c 4
 162 408 165 406 166 403 c 28
 167 400 163 399 163 396 c 4
 164 387 170 374 170 374 c 5
 164 373 l 5
142 349 m 5
 119 354 l 5
 119 354 117 351 114 351 c 4
 112 351 109 350 108 352 c 4
 107 354 105 358 107 361 c 4
 108 363 110 366 113 365 c 28
 116 364 116 360 119 359 c 4
 127 356 142 355 142 355 c 5
 142 349 l 5
250 364 m 5
 264 395 l 5
 264 395 260 401 260 405 c 4xfc24
 260 408 262 412 265 413 c 4
 268 414 274 415 279 410 c 4xfc14
 282 407 285 402 283 397 c 28
 281 392 275 396 272 392 c 4
 265 381 260 360 260 360 c 5xfc24
 250 364 l 5
250 306 m 5
 282 287 l 5xfd04
 282 287 288 291 292 290 c 4
 295 289 300 288 301 285 c 4
 302 282 303 275 298 271 c 4
 295 268 290 267 285 269 c 28
 280 271 283 278 279 281 c 4xfc14
 267 290 245 297 245 297 c 5
 250 306 l 5
220 267 m 5
 214 233 l 5
 214 233 220 228 221 224 c 4xfc84
 222 221 221 217 219 215 c 4
 217 213 211 211 205 215 c 4
 201 217 197 221 197 226 c 28
 197 231 204 229 206 234 c 4
 210 246 210 269 210 269 c 5
 220 267 l 5
176 266 m 5
 152 241 l 5
 152 241 154 235 153 231 c 4
 152 228 150 225 147 225 c 4
 144 225 137 226 134 232 c 4
 132 236 130 241 133 245 c 28
 136 249 142 244 146 247 c 4
 156 255 168 273 168 273 c 5
 176 266 l 5
139 308 m 5
 103 315 l 5
 103 315 98 311 94 310 c 4
 91 309 87 310 85 312 c 4
 83 314 80 321 83 326 c 4
 85 330 89 333 94 332 c 28
 99 331 98 325 103 323 c 4
 117 318 140 318 140 318 c 5
 139 308 l 5
263 34 m 28xfe04
 240 21 223 15 195 17 c 28
 175 18 157 23 148 41 c 28
 136 64 143 81 150 104 c 28
 156 122 163 132 179 141 c 28
 197 151 210 157 231 152 c 28
 255 147 273 140 285 119 c 28
 296 100 287 84 282 64 c 28xfd04
 279 51 275 41 263 34 c 28xfe04
284 93 m 5
 305 98 l 5
 305 98 305 102 307 104 c 4
 308 105 311 107 313 106 c 4
 315 105 318 102 318 98 c 4
 318 95 318 92 315 91 c 28
 312 90 310 94 307 94 c 4
 299 93 287 87 287 87 c 5xfc0c
 284 93 l 5
220 144 m 5
 228 163 l 5
 228 163 225 166 225 169 c 4
 225 171 226 173 228 174 c 4
 230 175 234 175 237 172 c 4
 239 170 241 166 240 163 c 28xfc44
 239 160 235 162 233 160 c 4
 229 153 226 141 226 141 c 5
 220 144 l 5
206 29 m 5
 203 8 l 5
 203 8 206 5 207 2 c 4xfc84
 208 0 207 -3 206 -4 c 4
 205 -5 201 -5 197 -3 c 4
 195 -1 193 1 193 4 c 28
 193 7 197 6 198 9 c 4
 200 17 199 31 199 31 c 5
 206 29 l 5
160 38 m 5
 146 23 l 5
 146 23 148 19 147 17 c 4
 146 15 145 13 143 13 c 4
 141 13 137 14 135 18 c 4
 134 21 132 24 134 26 c 28
 136 28 140 25 142 27 c 4
 148 32 155 43 155 43 c 5
 160 38 l 5
182 132 m 5
 177 155 l 5
 177 155 173 157 171 159 c 4
 170 161 169 163 170 165 c 4
 171 167 173 169 177 168 c 4
 180 167 183 165 184 162 c 28
 185 159 181 158 181 155 c 4
 182 146 189 133 189 133 c 5
 182 132 l 5
160 108 m 5
 137 113 l 5
 137 113 135 110 132 110 c 4xfe04
 130 110 127 109 126 111 c 4
 125 113 123 117 125 120 c 4
 126 122 128 125 131 124 c 28
 134 123 135 119 138 118 c 4
 146 115 160 114 160 114 c 5
 160 108 l 5
268 123 m 5
 283 154 l 5xfc24
 283 154 279 160 279 164 c 4xfc14
 279 167 280 171 283 172 c 4xfc24
 286 173 292 174 297 169 c 4
 300 166 303 161 301 156 c 28xfc14
 299 151 293 155 290 151 c 4
 283 140 278 119 278 119 c 5
 268 123 l 5
268 65 m 5
 300 46 l 5
 300 46 306 50 310 49 c 4
 313 48 318 47 319 44 c 4
 320 41 321 35 316 31 c 4
 313 28 308 26 303 28 c 28
 298 30 301 37 297 40 c 4
 285 49 263 56 263 56 c 5xfe0c
 268 65 l 5
238 26 m 5
 232 -8 l 5
 232 -8 238 -13 239 -17 c 4
 240 -20 239 -24 237 -26 c 4
 235 -28 229 -30 223 -26 c 4
 219 -24 215 -20 215 -15 c 28
 215 -10 223 -12 225 -7 c 4xfc44
 229 5 228 28 228 28 c 5
 238 26 l 5
194 25 m 5
 170 0 l 5
 170 0 172 -6 171 -10 c 4
 170 -13 168 -16 165 -16 c 4
 162 -16 155 -15 152 -9 c 4
 150 -5 148 0 151 4 c 28
 154 8 160 3 164 6 c 4
 174 14 186 32 186 32 c 5
 194 25 l 5
157 67 m 5
 121 74 l 5
 121 74 117 70 113 69 c 4
 110 68 105 69 103 71 c 4
 101 73 98 80 101 85 c 4
 103 89 107 92 112 91 c 28
 117 90 117 84 122 82 c 4
 136 77 158 77 158 77 c 5
 157 67 l 5
EndSplineSet
Validated: 37
EndChar

StartChar: semicolon
Encoding: 59 59 42
Width: 448
Flags: W
HStem: 31 18<305.234 320.95> 65 7<106.647 120> 94 12<309.048 319.71> 155 11<158.028 168.997> 225 20<136.144 147.811> 271 19<287.234 302.95> 335 12<291.048 301.618>
VStem: 134 131<275.33 372.57> 142 24<-45.8594 -30.0036> 158 14<157.141 165.952> 227 15<163.002 171.905> 262 23<395.004 409.858> 281 22<154.004 168.858> 289 13<339 344.905> 307 13<98 103.905>
LayerCount: 2
Fore
SplineSet
195 129 m 1xfe42
 169 154 l 1
 169 154 165 154 162 155 c 0
 160 156 158 158 158 160 c 0
 158 162 159 165 163 166 c 0
 166 167 170 167 172 165 c 24
 174 163 171 160 173 157 c 0
 178 150 200 133 200 133 c 1
 195 129 l 1xfe42
247 275 m 24
 224 262 207 256 179 258 c 24
 159 259 141 264 132 282 c 24
 120 305 127 322 134 345 c 24
 140 363 147 373 163 382 c 24
 181 392 194 398 215 393 c 24
 239 388 257 381 269 360 c 24
 280 341 270 325 265 305 c 24xff02
 262 292 259 282 247 275 c 24
268 334 m 1
 289 339 l 1
 289 339 289 343 291 345 c 0
 292 346 294 348 296 347 c 0
 298 346 302 343 302 339 c 0xfe06
 302 336 302 333 299 332 c 24
 296 331 294 335 291 335 c 0
 283 334 271 328 271 328 c 1
 268 334 l 1
204 385 m 1
 212 404 l 1
 212 404 209 407 209 410 c 0
 209 412 210 414 212 415 c 0
 214 416 217 416 220 413 c 0
 222 411 225 407 224 404 c 24
 223 401 219 403 217 401 c 0
 213 394 210 381 210 381 c 1
 204 385 l 1
190 270 m 1
 187 249 l 1
 187 249 190 246 191 243 c 0
 192 241 191 238 190 237 c 0
 189 236 185 236 181 238 c 0
 179 240 176 242 176 245 c 24
 176 248 181 247 182 250 c 0
 184 258 183 272 183 272 c 1
 190 270 l 1
144 279 m 1
 130 264 l 1
 130 264 132 259 131 257 c 0
 130 255 129 254 127 254 c 0
 125 254 121 255 119 259 c 0
 118 262 116 265 118 267 c 24
 120 269 124 266 126 268 c 0
 132 273 139 284 139 284 c 1
 144 279 l 1
166 373 m 1xfe82
 161 396 l 1
 161 396 157 398 155 400 c 0
 154 402 153 404 154 406 c 0
 155 408 157 410 161 409 c 0
 164 408 167 406 168 403 c 24
 169 400 165 399 165 396 c 0
 166 387 172 374 172 374 c 1xfe42
 166 373 l 1xfe82
144 349 m 1
 121 354 l 1
 121 354 119 351 116 351 c 0
 114 351 111 350 110 352 c 0
 109 354 107 358 109 361 c 0
 110 363 112 366 115 365 c 24
 118 364 118 360 121 359 c 0
 129 356 144 355 144 355 c 1
 144 349 l 1
252 364 m 1
 266 395 l 1
 266 395 262 401 262 405 c 0xfe12
 262 408 264 412 267 413 c 0
 270 414 276 415 281 410 c 0xfe0a
 284 407 287 402 285 397 c 24
 283 392 277 396 274 392 c 0
 267 381 262 360 262 360 c 1xfe12
 252 364 l 1
252 306 m 1
 284 287 l 1
 284 287 290 291 294 290 c 0
 297 289 302 288 303 285 c 0
 304 282 305 275 300 271 c 0
 297 268 292 267 287 269 c 24
 282 271 285 278 281 281 c 0xfe0a
 269 290 247 297 247 297 c 1
 252 306 l 1
222 267 m 1
 216 233 l 1
 216 233 222 228 223 224 c 0
 224 221 223 217 221 215 c 0
 219 213 213 211 207 215 c 0
 203 217 199 221 199 226 c 24
 199 231 206 229 208 234 c 0
 212 246 212 269 212 269 c 1
 222 267 l 1
178 266 m 1
 154 241 l 1
 154 241 156 235 155 231 c 0
 154 228 152 225 149 225 c 0
 146 225 139 226 136 232 c 0
 134 236 132 241 135 245 c 24
 138 249 144 244 148 247 c 0
 158 255 170 273 170 273 c 1
 178 266 l 1
141 308 m 1
 105 315 l 1
 105 315 101 311 97 310 c 0
 94 309 89 310 87 312 c 0
 85 314 82 321 85 326 c 0
 87 330 91 333 96 332 c 24
 101 331 101 325 106 323 c 0
 120 318 142 318 142 318 c 1xfe82
 141 308 l 1
265 34 m 24xff02
 242 21 224 25 197 17 c 0
 160 6 104 -48 98 -27 c 0
 91 -2 103 39 110 62 c 0
 116 80 165 132 181 141 c 0
 199 151 212 157 233 152 c 24
 257 147 275 140 287 119 c 24
 298 100 289 84 284 64 c 24
 281 51 277 41 265 34 c 24xff02
286 93 m 1
 307 98 l 1
 307 98 307 102 309 104 c 0
 310 105 313 107 315 106 c 0
 317 105 320 102 320 98 c 0
 320 95 320 92 317 91 c 24
 314 90 312 94 309 94 c 0
 301 93 289 87 289 87 c 1xfe06
 286 93 l 1
222 144 m 1
 230 163 l 1
 230 163 227 166 227 169 c 0
 227 171 228 173 230 174 c 0
 232 175 236 175 239 172 c 0
 241 170 243 166 242 163 c 24xfe22
 241 160 237 162 235 160 c 0
 231 153 228 141 228 141 c 1
 222 144 l 1
208 29 m 1
 205 8 l 1
 205 8 208 5 209 2 c 0
 210 0 209 -3 208 -4 c 0
 207 -5 204 -5 200 -3 c 0
 198 -1 195 1 195 4 c 24
 195 7 199 6 200 9 c 0
 202 17 201 31 201 31 c 1
 208 29 l 1
111 -30 m 1
 97 -45 l 1
 97 -45 99 -50 98 -52 c 0
 97 -54 96 -56 94 -56 c 0
 92 -56 88 -55 86 -51 c 0
 85 -48 83 -44 85 -42 c 24
 87 -40 91 -44 93 -42 c 0
 99 -37 105 -26 105 -26 c 1
 111 -30 l 1
142 90 m 1xfe82
 131 124 l 1
 131 124 128 127 126 129 c 0
 125 131 123 133 124 135 c 0
 125 137 128 138 132 137 c 0
 135 136 138 135 139 132 c 24
 140 129 136 128 136 125 c 0
 137 116 148 90 148 90 c 1
 142 90 l 1xfe82
120 65 m 1
 97 71 l 1
 97 71 95 67 92 67 c 0
 90 67 87 67 86 69 c 0
 85 71 83 74 85 77 c 0
 86 79 88 83 91 82 c 24
 94 81 95 76 98 75 c 0
 106 72 120 72 120 72 c 1
 120 65 l 1
270 123 m 1
 285 154 l 1xfe12
 285 154 281 160 281 164 c 0xfe0a
 281 167 282 171 285 172 c 0xfe12
 288 173 294 174 299 169 c 0
 302 166 305 161 303 156 c 24xfe0a
 301 151 295 155 292 151 c 0
 285 140 280 119 280 119 c 1
 270 123 l 1
270 65 m 1
 302 46 l 1
 302 46 308 50 312 49 c 0
 315 48 320 47 321 44 c 0
 322 41 323 35 318 31 c 0
 315 28 310 26 305 28 c 24
 300 30 303 37 299 40 c 0
 287 49 265 56 265 56 c 1xff06
 270 65 l 1
240 26 m 1
 234 -8 l 1
 234 -8 240 -13 241 -17 c 0
 242 -20 241 -24 239 -26 c 0
 237 -28 231 -30 225 -26 c 0
 221 -24 217 -20 217 -15 c 24
 217 -10 225 -12 227 -7 c 0xfe22
 231 5 230 28 230 28 c 1
 240 26 l 1
152 5 m 5
 161 -30 l 5
 161 -30 166 -35 166 -39 c 4
 166 -42 166 -45 163 -47 c 4
 160 -49 153 -50 148 -46 c 4
 144 -43 141 -40 142 -35 c 28xfe82
 143 -30 151 -32 153 -28 c 4
 159 -16 140 -6 140 -6 c 5
 152 5 l 5
108 -1 m 1
 72 6 l 1
 72 6 67 1 63 0 c 0
 60 -1 56 1 54 3 c 0
 52 5 49 11 52 16 c 0
 54 20 58 24 63 23 c 24
 68 22 67 16 72 14 c 0
 86 9 109 9 109 9 c 1
 108 -1 l 1
EndSplineSet
Validated: 37
EndChar

StartChar: less
Encoding: 60 60 43
Width: 1040
Flags: W
HStem: 17 46<1693.01 1729.79> 34 46<-355.986 -319.468> 81 54<1167.33 1201.48> 98 54<-881.665 -847.517> 368 61<1057.63 1096.67> 385 61<-991.577 -952.33> 552 59<1784.56 1827.05> 569 60<-264.439 -221.949> 632 49<1065.57 1109.99> 649 50<-983.43 -939.013>
VStem: -882 49<98.8177 141.988> -505 57<741.011 766.459> -379 60<35.3403 78.439> -275 54<591 628.386> 1056 41<368.193 395.987> 1167 49<81.8005 124.987> 1543 58<723.011 764.621> 1670 60<18.2344 61.439> 1781 47<573.013 610.386>
LayerCount: 2
Fore
SplineSet
1748 329 m 5x003fe0
 1837 304 l 5
 1837 304 1850 317 1861 318 c 4
 1870 319 1880 318 1885 311 c 4
 1890 304 1895 288 1885 275 c 4
 1878 266 1867 257 1854 259 c 28
 1841 261 1845 280 1833 285 c 4
 1800 299 1742 302 1742 302 c 5
 1748 329 l 5x003fe0
1693 528 m 5
 1773 573 l 5
 1773 573 1774 591 1781 600 c 4
 1786 607 1795 612 1803 611 c 4
 1811 610 1825 601 1828 585 c 4
 1830 574 1828 559 1817 552 c 28x023fe0
 1806 545 1796 561 1784 556 c 4
 1751 543 1707 505 1707 505 c 5
 1693 528 l 5
1652 154 m 5
 1693 71 l 5
 1693 71 1711 70 1719 63 c 4
 1726 57 1732 48 1730 40 c 4
 1728 32 1718 19 1702 17 c 4x803fe0
 1691 16 1677 18 1670 29 c 28
 1663 40 1679 50 1675 62 c 4
 1664 96 1629 141 1629 141 c 5
 1652 154 l 5
1284 189 m 5
 1217 125 l 5
 1217 125 1220 107 1216 97 c 4
 1212 89 1206 82 1198 81 c 4
 1190 80 1174 85 1167 100 c 4
 1162 110 1160 125 1169 135 c 28x203fe0
 1178 145 1191 131 1202 139 c 4
 1231 160 1264 207 1264 207 c 5
 1284 189 l 5
1202 416 m 5
 1111 396 l 5
 1111 396 1106 378 1097 372 c 4
 1090 367 1079 364 1072 368 c 4
 1065 372 1054 384 1056 400 c 4
 1058 411 1063 425 1076 429 c 28x083fe0
 1089 433 1093 414 1106 415 c 4
 1142 418 1195 442 1195 442 c 5
 1202 416 l 5
1514 639 m 5
 1553 723 l 5
 1553 723 1543 738 1543 749 c 4
 1543 758 1547 767 1554 771 c 4
 1561 775 1578 777 1590 765 c 4
 1598 757 1606 744 1601 732 c 28
 1596 720 1579 727 1572 716 c 4
 1553 686 1539 629 1539 629 c 5x013fe0
 1514 639 l 5
1178 569 m 5
 1110 633 l 5
 1110 633 1092 628 1082 632 c 4x01bfe0
 1074 635 1066 641 1065 649 c 4x007fe0
 1064 657 1067 674 1082 681 c 4
 1092 686 1107 689 1117 681 c 28x00bfe0
 1127 673 1115 658 1123 648 c 4
 1146 620 1195 590 1195 590 c 5
 1178 569 l 5
-301 346 m 1
 -211 322 l 1
 -211 322 -199 335 -188 336 c 0
 -179 337 -169 336 -164 329 c 0
 -159 322 -154 306 -164 293 c 0
 -171 284 -182 274 -195 276 c 24
 -208 278 -204 297 -216 302 c 0
 -249 316 -307 320 -307 320 c 1
 -301 346 l 1
-356 545 m 1
 -275 591 l 1
 -275 591 -275 608 -268 617 c 0
 -263 624 -254 630 -246 629 c 0
 -238 628 -224 619 -221 603 c 0
 -219 592 -221 576 -232 569 c 24
 -243 562 -253 578 -265 573 c 0
 -298 560 -342 522 -342 522 c 1
 -356 545 l 1
-397 172 m 1
 -356 89 l 1
 -356 89 -337 87 -329 80 c 0
 -322 74 -317 66 -319 58 c 0
 -321 50 -331 36 -347 34 c 0x403fe0
 -358 33 -372 35 -379 46 c 24
 -386 57 -370 67 -374 79 c 0
 -385 113 -420 159 -420 159 c 1
 -397 172 l 1
-765 207 m 1
 -832 142 l 1
 -832 142 -829 125 -833 115 c 0
 -837 107 -843 99 -851 98 c 0
 -859 97 -875 102 -882 117 c 0
 -887 127 -889 142 -880 152 c 24x103fe0
 -871 162 -858 149 -847 157 c 0
 -818 178 -785 225 -785 225 c 1
 -765 207 l 1
-847 433 m 1
 -938 413 l 1
 -938 413 -943 396 -952 390 c 0
 -959 385 -969 381 -976 385 c 0
 -983 389 -995 402 -993 418 c 0
 -991 429 -986 442 -973 446 c 24x043fe0
 -960 450 -956 432 -943 433 c 0
 -907 436 -854 459 -854 459 c 1
 -847 433 l 1
-535 657 m 1
 -496 741 l 1
 -496 741 -505 756 -505 767 c 0
 -505 776 -501 785 -494 789 c 0
 -487 793 -471 794 -459 782 c 0
 -451 774 -443 761 -448 749 c 24
 -453 737 -470 744 -477 733 c 0
 -496 703 -510 647 -510 647 c 1
 -535 657 l 1
-871 587 m 1
 -939 650 l 1
 -939 650 -957 645 -967 649 c 0
 -975 652 -983 659 -984 667 c 0
 -985 675 -982 692 -967 699 c 0
 -957 704 -942 707 -932 699 c 24x007fe0
 -922 691 -934 676 -926 666 c 0
 -903 638 -854 607 -854 607 c 1
 -871 587 l 1
EndSplineSet
Validated: 33
EndChar

StartChar: equal
Encoding: 61 61 44
Width: 1040
Flags: W
HStem: 17 46<1693.01 1729.79> 34 46<-355.986 -319.468> 81 54<1167.33 1201.48> 98 54<-881.665 -847.517> 368 61<1057.63 1096.67> 385 61<-991.577 -952.33> 552 59<1784.56 1827.05> 569 60<-264.439 -221.949> 632 49<1065.57 1109.99> 649 50<-983.43 -939.013>
VStem: -882 49<98.8177 141.988> -505 57<741.011 766.459> -379 60<35.3403 78.439> -275 54<591 628.386> 1056 41<368.193 395.987> 1167 49<81.8005 124.987> 1543 58<723.011 764.621> 1670 60<18.2344 61.439> 1781 47<573.013 610.386>
LayerCount: 2
Fore
SplineSet
1748 329 m 5x003fe0
 1837 304 l 5
 1837 304 1850 317 1861 318 c 4
 1870 319 1880 318 1885 311 c 4
 1890 304 1895 288 1885 275 c 4
 1878 266 1867 257 1854 259 c 28
 1841 261 1845 280 1833 285 c 4
 1800 299 1742 302 1742 302 c 5
 1748 329 l 5x003fe0
1693 528 m 5
 1773 573 l 5
 1773 573 1774 591 1781 600 c 4
 1786 607 1795 612 1803 611 c 4
 1811 610 1825 601 1828 585 c 4
 1830 574 1828 559 1817 552 c 28x023fe0
 1806 545 1796 561 1784 556 c 4
 1751 543 1707 505 1707 505 c 5
 1693 528 l 5
1652 154 m 5
 1693 71 l 5
 1693 71 1711 70 1719 63 c 4
 1726 57 1732 48 1730 40 c 4
 1728 32 1718 19 1702 17 c 4x803fe0
 1691 16 1677 18 1670 29 c 28
 1663 40 1679 50 1675 62 c 4
 1664 96 1629 141 1629 141 c 5
 1652 154 l 5
1284 189 m 5
 1217 125 l 5
 1217 125 1220 107 1216 97 c 4
 1212 89 1206 82 1198 81 c 4
 1190 80 1174 85 1167 100 c 4
 1162 110 1160 125 1169 135 c 28x203fe0
 1178 145 1191 131 1202 139 c 4
 1231 160 1264 207 1264 207 c 5
 1284 189 l 5
1202 416 m 5
 1111 396 l 5
 1111 396 1106 378 1097 372 c 4
 1090 367 1079 364 1072 368 c 4
 1065 372 1054 384 1056 400 c 4
 1058 411 1063 425 1076 429 c 28x083fe0
 1089 433 1093 414 1106 415 c 4
 1142 418 1195 442 1195 442 c 5
 1202 416 l 5
1514 639 m 5
 1553 723 l 5
 1553 723 1543 738 1543 749 c 4
 1543 758 1547 767 1554 771 c 4
 1561 775 1578 777 1590 765 c 4
 1598 757 1606 744 1601 732 c 28
 1596 720 1579 727 1572 716 c 4
 1553 686 1539 629 1539 629 c 5x013fe0
 1514 639 l 5
1178 569 m 5
 1110 633 l 5
 1110 633 1092 628 1082 632 c 4x01bfe0
 1074 635 1066 641 1065 649 c 4x007fe0
 1064 657 1067 674 1082 681 c 4
 1092 686 1107 689 1117 681 c 28x00bfe0
 1127 673 1115 658 1123 648 c 4
 1146 620 1195 590 1195 590 c 5
 1178 569 l 5
-301 346 m 1
 -211 322 l 1
 -211 322 -199 335 -188 336 c 0
 -179 337 -169 336 -164 329 c 0
 -159 322 -154 306 -164 293 c 0
 -171 284 -182 274 -195 276 c 24
 -208 278 -204 297 -216 302 c 0
 -249 316 -307 320 -307 320 c 1
 -301 346 l 1
-356 545 m 1
 -275 591 l 1
 -275 591 -275 608 -268 617 c 0
 -263 624 -254 630 -246 629 c 0
 -238 628 -224 619 -221 603 c 0
 -219 592 -221 576 -232 569 c 24
 -243 562 -253 578 -265 573 c 0
 -298 560 -342 522 -342 522 c 1
 -356 545 l 1
-397 172 m 1
 -356 89 l 1
 -356 89 -337 87 -329 80 c 0
 -322 74 -317 66 -319 58 c 0
 -321 50 -331 36 -347 34 c 0x403fe0
 -358 33 -372 35 -379 46 c 24
 -386 57 -370 67 -374 79 c 0
 -385 113 -420 159 -420 159 c 1
 -397 172 l 1
-765 207 m 1
 -832 142 l 1
 -832 142 -829 125 -833 115 c 0
 -837 107 -843 99 -851 98 c 0
 -859 97 -875 102 -882 117 c 0
 -887 127 -889 142 -880 152 c 24x103fe0
 -871 162 -858 149 -847 157 c 0
 -818 178 -785 225 -785 225 c 1
 -765 207 l 1
-847 433 m 1
 -938 413 l 1
 -938 413 -943 396 -952 390 c 0
 -959 385 -969 381 -976 385 c 0
 -983 389 -995 402 -993 418 c 0
 -991 429 -986 442 -973 446 c 24x043fe0
 -960 450 -956 432 -943 433 c 0
 -907 436 -854 459 -854 459 c 1
 -847 433 l 1
-535 657 m 1
 -496 741 l 1
 -496 741 -505 756 -505 767 c 0
 -505 776 -501 785 -494 789 c 0
 -487 793 -471 794 -459 782 c 0
 -451 774 -443 761 -448 749 c 24
 -453 737 -470 744 -477 733 c 0
 -496 703 -510 647 -510 647 c 1
 -535 657 l 1
-871 587 m 1
 -939 650 l 1
 -939 650 -957 645 -967 649 c 0
 -975 652 -983 659 -984 667 c 0
 -985 675 -982 692 -967 699 c 0
 -957 704 -942 707 -932 699 c 24x007fe0
 -922 691 -934 676 -926 666 c 0
 -903 638 -854 607 -854 607 c 1
 -871 587 l 1
EndSplineSet
Validated: 33
EndChar

StartChar: greater
Encoding: 62 62 45
Width: 1040
Flags: W
HStem: 17 46<1693.01 1729.79> 34 46<-355.986 -319.468> 81 54<1167.33 1201.48> 98 54<-881.665 -847.517> 368 61<1057.63 1096.67> 385 61<-991.577 -952.33> 552 59<1784.56 1827.05> 569 60<-264.439 -221.949> 632 49<1065.57 1109.99> 649 50<-983.43 -939.013>
VStem: -882 49<98.8177 141.988> -505 57<741.011 766.459> -379 60<35.3403 78.439> -275 54<591 628.386> 1056 41<368.193 395.987> 1167 49<81.8005 124.987> 1543 58<723.011 764.621> 1670 60<18.2344 61.439> 1781 47<573.013 610.386>
LayerCount: 2
Fore
SplineSet
1748 329 m 5x003fe0
 1837 304 l 5
 1837 304 1850 317 1861 318 c 4
 1870 319 1880 318 1885 311 c 4
 1890 304 1895 288 1885 275 c 4
 1878 266 1867 257 1854 259 c 28
 1841 261 1845 280 1833 285 c 4
 1800 299 1742 302 1742 302 c 5
 1748 329 l 5x003fe0
1693 528 m 5
 1773 573 l 5
 1773 573 1774 591 1781 600 c 4
 1786 607 1795 612 1803 611 c 4
 1811 610 1825 601 1828 585 c 4
 1830 574 1828 559 1817 552 c 28x023fe0
 1806 545 1796 561 1784 556 c 4
 1751 543 1707 505 1707 505 c 5
 1693 528 l 5
1652 154 m 5
 1693 71 l 5
 1693 71 1711 70 1719 63 c 4
 1726 57 1732 48 1730 40 c 4
 1728 32 1718 19 1702 17 c 4x803fe0
 1691 16 1677 18 1670 29 c 28
 1663 40 1679 50 1675 62 c 4
 1664 96 1629 141 1629 141 c 5
 1652 154 l 5
1284 189 m 5
 1217 125 l 5
 1217 125 1220 107 1216 97 c 4
 1212 89 1206 82 1198 81 c 4
 1190 80 1174 85 1167 100 c 4
 1162 110 1160 125 1169 135 c 28x203fe0
 1178 145 1191 131 1202 139 c 4
 1231 160 1264 207 1264 207 c 5
 1284 189 l 5
1202 416 m 5
 1111 396 l 5
 1111 396 1106 378 1097 372 c 4
 1090 367 1079 364 1072 368 c 4
 1065 372 1054 384 1056 400 c 4
 1058 411 1063 425 1076 429 c 28x083fe0
 1089 433 1093 414 1106 415 c 4
 1142 418 1195 442 1195 442 c 5
 1202 416 l 5
1514 639 m 5
 1553 723 l 5
 1553 723 1543 738 1543 749 c 4
 1543 758 1547 767 1554 771 c 4
 1561 775 1578 777 1590 765 c 4
 1598 757 1606 744 1601 732 c 28
 1596 720 1579 727 1572 716 c 4
 1553 686 1539 629 1539 629 c 5x013fe0
 1514 639 l 5
1178 569 m 5
 1110 633 l 5
 1110 633 1092 628 1082 632 c 4x01bfe0
 1074 635 1066 641 1065 649 c 4x007fe0
 1064 657 1067 674 1082 681 c 4
 1092 686 1107 689 1117 681 c 28x00bfe0
 1127 673 1115 658 1123 648 c 4
 1146 620 1195 590 1195 590 c 5
 1178 569 l 5
-301 346 m 1
 -211 322 l 1
 -211 322 -199 335 -188 336 c 0
 -179 337 -169 336 -164 329 c 0
 -159 322 -154 306 -164 293 c 0
 -171 284 -182 274 -195 276 c 24
 -208 278 -204 297 -216 302 c 0
 -249 316 -307 320 -307 320 c 1
 -301 346 l 1
-356 545 m 1
 -275 591 l 1
 -275 591 -275 608 -268 617 c 0
 -263 624 -254 630 -246 629 c 0
 -238 628 -224 619 -221 603 c 0
 -219 592 -221 576 -232 569 c 24
 -243 562 -253 578 -265 573 c 0
 -298 560 -342 522 -342 522 c 1
 -356 545 l 1
-397 172 m 1
 -356 89 l 1
 -356 89 -337 87 -329 80 c 0
 -322 74 -317 66 -319 58 c 0
 -321 50 -331 36 -347 34 c 0x403fe0
 -358 33 -372 35 -379 46 c 24
 -386 57 -370 67 -374 79 c 0
 -385 113 -420 159 -420 159 c 1
 -397 172 l 1
-765 207 m 1
 -832 142 l 1
 -832 142 -829 125 -833 115 c 0
 -837 107 -843 99 -851 98 c 0
 -859 97 -875 102 -882 117 c 0
 -887 127 -889 142 -880 152 c 24x103fe0
 -871 162 -858 149 -847 157 c 0
 -818 178 -785 225 -785 225 c 1
 -765 207 l 1
-847 433 m 1
 -938 413 l 1
 -938 413 -943 396 -952 390 c 0
 -959 385 -969 381 -976 385 c 0
 -983 389 -995 402 -993 418 c 0
 -991 429 -986 442 -973 446 c 24x043fe0
 -960 450 -956 432 -943 433 c 0
 -907 436 -854 459 -854 459 c 1
 -847 433 l 1
-535 657 m 1
 -496 741 l 1
 -496 741 -505 756 -505 767 c 0
 -505 776 -501 785 -494 789 c 0
 -487 793 -471 794 -459 782 c 0
 -451 774 -443 761 -448 749 c 24
 -453 737 -470 744 -477 733 c 0
 -496 703 -510 647 -510 647 c 1
 -535 657 l 1
-871 587 m 1
 -939 650 l 1
 -939 650 -957 645 -967 649 c 0
 -975 652 -983 659 -984 667 c 0
 -985 675 -982 692 -967 699 c 0
 -957 704 -942 707 -932 699 c 24x007fe0
 -922 691 -934 676 -926 666 c 0
 -903 638 -854 607 -854 607 c 1
 -871 587 l 1
EndSplineSet
Validated: 33
EndChar

